<svg width="12" height="18" viewBox="0 0 12 18" fill="none" xmlns="http://www.w3.org/2000/svg">
<path fill-rule="evenodd" clip-rule="evenodd" d="M7.42857 9.00124L0.571704 15.0586C0.215322 15.3742 0.0028092 15.8144 0.0028092 16.2869C0.0028092 16.5197 0.0546911 16.7486 0.153511 16.9598C0.252202 17.1708 0.395154 17.3589 0.5715 17.515C0.926591 17.8295 1.39987 18 1.88594 18C2.12745 18 2.36736 17.9579 2.59227 17.8754C2.81716 17.7929 3.02409 17.6711 3.20037 17.515L11.4278 10.23C11.6049 10.0744 11.749 9.88614 11.8483 9.67516C11.9477 9.46374 12 9.23451 12 9.00124C12 8.76797 11.9477 8.53875 11.8483 8.32733C11.749 8.11634 11.6053 7.92846 11.4282 7.77281L3.20109 0.488089C3.02526 0.331198 2.81812 0.208382 2.59319 0.125408C2.36809 0.0423698 2.12783 0 1.88594 0C1.64405 0 1.40378 0.0423698 1.17868 0.125408C0.953889 0.208332 0.747216 0.330736 0.57145 0.487492C0.394496 0.643074 0.250928 0.830839 0.151729 1.04167C0.0522562 1.25309 0 1.48231 0 1.71558C0 1.94885 0.0522562 2.17808 0.151729 2.38949C0.251009 2.6005 0.394733 2.7884 0.571888 2.94406M0.571888 2.94406L7.42857 9.00124L0.571888 2.94406Z" fill="#444444"/>
</svg>
