<svg width="12" height="18" viewBox="0 0 12 18" fill="none" xmlns="http://www.w3.org/2000/svg">
<path fill-rule="evenodd" clip-rule="evenodd" d="M4.57143 8.99876L11.4283 2.94141C11.7847 2.62585 11.9972 2.18558 11.9972 1.71309C11.9972 1.48027 11.9453 1.25143 11.8465 1.04018C11.7478 0.82921 11.6048 0.641109 11.4285 0.484962C11.0734 0.170544 10.6001 0 10.1141 0C9.87255 0 9.63264 0.0420835 9.40773 0.124575C9.18284 0.207057 8.97591 0.328871 8.79963 0.484962L0.572221 7.76999C0.39509 7.92564 0.250999 8.11386 0.151729 8.32484C0.0522547 8.53626 9.53674e-07 8.76549 9.53674e-07 8.99876C9.53674e-07 9.23203 0.0522547 9.46125 0.151729 9.67267C0.250999 9.88366 0.39471 10.0715 0.571839 10.2272L8.79891 17.5119C8.97474 17.6688 9.18188 17.7916 9.40681 17.8746C9.63191 17.9576 9.87217 18 10.1141 18C10.356 18 10.5962 17.9576 10.8213 17.8746C11.0461 17.7917 11.2528 17.6693 11.4285 17.5125C11.6055 17.3569 11.7491 17.1692 11.8483 16.9583C11.9477 16.7469 12 16.5177 12 16.2844C12 16.0511 11.9477 15.8219 11.8483 15.6105C11.749 15.3995 11.6053 15.2116 11.4281 15.0559M11.4281 15.0559L4.57143 8.99876L11.4281 15.0559Z" fill="#444444"/>
</svg>
