<svg width="151" height="149" viewBox="0 0 151 149" fill="none" xmlns="http://www.w3.org/2000/svg">
<path d="M5.66748 140.033C13.768 148.134 31.5892 144.408 50.7066 132.257" stroke="#0587D6" stroke-width="2.77153" stroke-miterlimit="79.8403" stroke-linecap="round" stroke-linejoin="round"/>
<path d="M35.1533 123.022C42.9299 129.341 52.0025 133.715 61.8852 136.145" stroke="white" stroke-width="5.54321" stroke-miterlimit="79.8403" stroke-linecap="round" stroke-linejoin="round"/>
<path d="M77.9246 138.251C115.505 138.251 145.969 107.859 145.969 70.3685C145.969 32.878 115.505 2.48584 77.9246 2.48584C40.3445 2.48584 9.87988 32.878 9.87988 70.3685C9.87988 107.859 40.3445 138.251 77.9246 138.251Z" fill="white"/>
<path fill-rule="evenodd" clip-rule="evenodd" d="M9.55518 70.0445C9.55518 49.4691 18.6278 31.1619 33.0468 18.687C22.6781 30.5138 16.3597 46.2289 16.3597 63.0781C16.3597 100.665 46.8178 131.123 84.2423 131.123C101.254 131.123 116.807 124.804 128.633 114.436C116.321 128.855 97.8513 137.927 77.2759 137.927C40.1753 138.089 9.55518 107.631 9.55518 70.0445Z" fill="#85DBF6"/>
<path d="M77.4382 137.927C115.018 137.927 145.483 107.535 145.483 70.0443C145.483 32.5537 115.018 2.16162 77.4382 2.16162C39.8582 2.16162 9.39355 32.5537 9.39355 70.0443C9.39355 107.535 39.8582 137.927 77.4382 137.927Z" stroke="#0587D6" stroke-width="2.77153" stroke-miterlimit="79.8403" stroke-linecap="round" stroke-linejoin="round"/>
<path d="M77.4381 138.089C98.1966 138.089 115.025 107.625 115.025 70.0447C115.025 32.4646 98.1966 2 77.4381 2C56.6796 2 39.8516 32.4646 39.8516 70.0447C39.8516 107.625 56.6796 138.089 77.4381 138.089Z" stroke="#0587D6" stroke-width="2.77153" stroke-miterlimit="79.8403" stroke-linecap="round" stroke-linejoin="round"/>
<path d="M28.0249 23.5469C40.1757 31.3234 57.835 36.1837 77.4383 36.1837C97.0417 36.1837 114.701 31.3234 126.852 23.5469" stroke="#0587D6" stroke-width="2.77153" stroke-miterlimit="79.8403" stroke-linecap="round" stroke-linejoin="round"/>
<path d="M15.3877 46.0674C30.6167 51.4138 52.8123 54.816 77.438 54.816C102.064 54.816 124.259 51.4138 139.488 46.0674" stroke="#0587D6" stroke-width="2.581" stroke-miterlimit="79.8403" stroke-linecap="round" stroke-linejoin="round"/>
<path d="M28.0249 116.704C40.1757 108.927 57.835 104.067 77.4383 104.067C97.0417 104.067 114.701 108.927 126.852 116.704" stroke="#0587D6" stroke-width="2.77153" stroke-miterlimit="79.8403" stroke-linecap="round" stroke-linejoin="round"/>
<path d="M12.6338 93.2122C28.3489 88.3519 51.3545 85.2737 76.7902 85.2737C102.226 85.2737 125.232 88.3519 140.947 93.2122" stroke="#0587D6" stroke-width="2.51069" stroke-miterlimit="79.8403" stroke-linecap="round" stroke-linejoin="round"/>
<path d="M11.0142 70.0444H144.025" stroke="#0587D6" stroke-width="2.77153" stroke-miterlimit="79.8403" stroke-linecap="round" stroke-linejoin="round"/>
<path d="M77.438 3.45801V136.469" stroke="#0587D6" stroke-width="2.77153" stroke-miterlimit="79.8403" stroke-linecap="round" stroke-linejoin="round"/>
<path d="M21.706 83.168C15.0635 91.5925 9.71718 100.179 6.31494 107.956" stroke="white" stroke-width="5.54321" stroke-miterlimit="79.8403" stroke-linecap="round" stroke-linejoin="round"/>
<path fill-rule="evenodd" clip-rule="evenodd" d="M33.6957 96.7767L27.0533 83.6538L24.1371 85.922C21.5449 88.0281 18.3047 84.6259 20.2488 82.0337L22.517 79.1175L9.39404 72.4751C8.09795 71.665 7.61193 70.2069 8.09797 68.7488C8.584 67.4527 9.55609 65.9946 10.8522 64.8605C12.1483 63.7265 13.7683 63.0784 15.8745 63.4024L31.4276 66.3186L36.774 58.7041C38.5561 56.1119 40.5002 53.6818 42.2823 52.0617L51.1929 43.151V42.989L44.7125 36.5086L14.2544 21.9276C14.2544 21.9276 14.0924 21.7656 13.7684 21.6036C12.9583 21.1175 11.9862 20.4695 11.3382 20.1454C8.584 18.0393 7.61191 15.9332 10.2041 14.313C13.7683 12.2069 17.8186 13.503 22.0309 14.7991L36.2879 18.8494L36.774 19.0114C37.584 18.3633 38.8801 19.9834 39.5281 19.4974C40.9862 19.9834 40.8242 19.4974 42.7683 20.1454L45.1985 20.9555C46.0086 22.0896 46.1706 21.4415 47.4667 22.0896L49.2488 19.6594L52.651 16.5812C53.4611 15.9332 54.4332 15.7711 55.4052 16.0952C58.1594 17.2292 60.2656 20.4695 61.0756 21.6036C61.7237 23.2237 60.5896 24.3577 59.2935 25.4918L61.0756 25.8158C61.3997 25.9779 61.5616 25.6538 62.8577 26.3019H63.1818H63.3438C64.1538 26.4639 64.8019 26.6259 65.4499 26.6259L67.07 26.4639L77.4387 16.0952C79.7069 13.827 82.9471 11.7209 85.8633 9.93875C88.2935 8.64266 92.5058 6.86053 95.26 8.48064L95.422 8.64266L95.584 8.80467L95.746 8.96668L95.908 9.12869L96.07 9.2907L96.232 9.45271L96.3941 9.61472C98.0142 12.3689 96.2321 16.5812 94.936 19.0114C93.3159 22.0896 91.0477 25.3298 88.7795 27.436L78.4108 37.8047L78.2488 39.4248C78.2488 40.2348 78.4108 40.8829 78.5728 41.5309L79.8689 46.3913L82.7851 43.6371C83.7572 42.665 85.3773 42.017 87.1594 43.9611L91.6957 49.6315C93.4779 51.4136 89.7516 53.8438 88.6175 54.8158C87.3214 56.1119 85.2153 57.084 84.2432 57.8941L83.2711 58.3801L82.9472 57.732V56.922C83.7572 58.5421 83.5952 58.3801 84.2432 60.3242L85.8633 64.5365C87.6455 66.3186 87.6455 65.1846 86.8354 66.1566C85.7013 67.2907 88.6175 66.8047 87.8075 67.4527L86.1874 68.7488L90.2376 83.0058C91.5337 87.2181 90.0756 91.7544 87.9695 94.9946C86.3493 97.5868 82.4611 96.1287 82.7851 93.2125C82.9471 92.4024 82.9472 91.9164 82.9472 91.4304C82.9472 91.1064 82.9472 90.9443 82.9472 90.9443L68.3661 60.6483L61.8857 54.1678H61.5617L52.651 63.0784C51.0309 64.6985 48.6007 66.8047 46.0086 68.5868L38.3941 73.9332L41.3103 89.4862C41.6343 91.5924 40.9862 93.3745 39.8522 94.5086C38.7181 95.8047 37.422 96.7767 35.9639 97.2628C35.9639 98.8829 34.1817 98.0728 33.6957 96.7767Z" fill="white" stroke="white" stroke-width="0.405028" stroke-miterlimit="10"/>
<path fill-rule="evenodd" clip-rule="evenodd" d="M48.7627 31.6478L45.5225 28.4076C47.3046 25.3294 48.2767 23.5473 52.813 18.6869C53.299 18.2009 54.5951 17.5528 55.2431 18.2009L58.4834 21.4411C59.4554 22.4132 58.8074 23.2232 58.1593 24.0333C53.461 28.8936 51.6789 29.8657 48.7627 31.6478Z" fill="#85DBF6"/>
<path d="M48.7627 31.6478L45.5225 28.4076C47.3046 25.3294 48.2767 23.5473 52.813 18.6869C53.299 18.2009 54.5951 17.5528 55.2431 18.2009L58.4834 21.4411C59.4554 22.4132 58.8074 23.2232 58.1593 24.0333C53.461 28.8936 51.6789 29.8657 48.7627 31.6478Z" stroke="#0587D6" stroke-width="1.52825" stroke-miterlimit="79.8403" stroke-linecap="round" stroke-linejoin="round"/>
<path fill-rule="evenodd" clip-rule="evenodd" d="M52.165 44.6089C64.1539 35.5363 66.098 32.296 68.0421 28.7318C66.26 29.5418 63.9918 29.2178 62.2097 28.7318L20.5729 16.905C17.1706 15.9329 15.0644 15.6089 11.8242 17.391C13.1203 17.229 13.2823 18.3631 14.4164 18.8491L45.0365 33.5921L51.841 40.3966C52.9751 41.5307 53.2991 43.6368 52.165 44.6089Z" fill="#00A2E5"/>
<path d="M68.0418 28.8942C66.2597 29.7042 63.9915 29.3802 62.2094 28.8942L20.5725 17.0674C17.1703 16.0953 14.4161 14.6372 11.3379 16.5813C11.4999 17.8774 13.444 18.6875 14.4161 19.1735L45.0362 33.9165L51.8407 40.721C52.8128 41.6931 52.8128 43.6372 51.8407 44.6093" stroke="#0587D6" stroke-width="2.77153" stroke-miterlimit="79.8403" stroke-linecap="round" stroke-linejoin="round"/>
<path fill-rule="evenodd" clip-rule="evenodd" d="M25.7568 77.4971L31.5892 68.7485L14.416 65.3463C12.3099 65.0222 10.5277 66.8044 9.55566 69.0725L25.7568 77.4971Z" fill="#00A2E5"/>
<path d="M31.5894 68.9103L14.4162 65.5081C13.2821 65.3461 12.1481 65.8321 11.338 66.6422C10.2039 67.7762 10.3659 69.5584 11.824 70.3684L25.757 77.3349" stroke="#0587D6" stroke-width="2.77153" stroke-miterlimit="79.8403" stroke-linecap="round" stroke-linejoin="round"/>
<path fill-rule="evenodd" clip-rule="evenodd" d="M21.3823 83.1676C29.1589 73.6089 36.7734 59.838 43.2538 53.3575L78.8963 17.7151C82.7846 13.8268 91.8571 8.80444 93.6393 10.9106C95.7454 13.0167 90.7231 21.7653 86.8348 25.6536L51.1924 61.2961C44.7119 67.7765 31.265 75.391 21.3823 83.1676Z" fill="#85DBF6"/>
<path fill-rule="evenodd" clip-rule="evenodd" d="M74.0361 55.9499L77.2764 59.5142C80.6786 57.57 82.4607 56.76 87.8071 52.3857C88.4551 51.8996 89.1032 50.6035 88.2931 49.7935L85.0529 46.2292C84.2428 45.2572 83.2707 45.7432 82.4607 46.5533C77.2763 51.2516 76.4663 53.0337 74.0361 55.9499Z" fill="#85DBF6"/>
<path d="M74.0361 55.9499L77.2764 59.5142C80.6786 57.57 82.4607 56.76 87.8071 52.3857C88.4551 51.8996 89.1032 50.6035 88.2931 49.7935L85.0529 46.2292C84.2428 45.2572 83.2707 45.7432 82.4607 46.5533C77.2763 51.2516 76.4663 53.0337 74.0361 55.9499Z" stroke="#0587D6" stroke-width="1.60197" stroke-miterlimit="79.8403" stroke-linecap="round" stroke-linejoin="round"/>
<path fill-rule="evenodd" clip-rule="evenodd" d="M60.104 52.5475C69.1766 40.5587 72.4168 38.6145 75.9811 36.6704C75.171 38.4525 75.495 40.7207 75.9811 42.5028L87.8079 84.1397C88.78 87.5419 89.59 89.4861 87.8079 92.5643C87.9699 91.2682 86.3498 91.2682 85.7017 90.1341L70.9587 59.514L64.1543 52.7095C63.0202 51.5754 60.9141 51.5754 60.104 52.5475Z" fill="#00A2E5"/>
<path d="M75.9802 36.8325C75.1701 38.6146 75.4942 40.8828 75.9802 42.6649L87.807 84.3018C88.7791 87.704 90.0752 89.1621 88.131 92.2403C86.6729 92.0783 86.3489 91.4303 85.7009 90.4582L70.9578 59.8381L64.1534 53.0336C63.1813 52.0616 61.2372 52.0616 60.2651 53.0336" stroke="#0587D6" stroke-width="2.77153" stroke-miterlimit="79.8403" stroke-linecap="round" stroke-linejoin="round"/>
<path fill-rule="evenodd" clip-rule="evenodd" d="M27.2153 78.955L35.964 73.1226L39.3662 90.2957C39.6902 92.4019 37.9081 94.184 35.6399 95.1561L27.2153 78.955Z" fill="#00A2E5"/>
<path d="M35.8016 72.9609L39.2039 90.1341C39.3659 91.4302 38.8798 92.7263 37.7457 93.6984C36.7737 94.6704 35.1536 94.1844 34.6675 93.2123L27.5391 79.1174" stroke="#0587D6" stroke-width="2.77153" stroke-miterlimit="79.8403" stroke-linecap="round" stroke-linejoin="round"/>
<path d="M21.3823 83.1676C29.1589 73.6089 36.7734 59.838 43.2538 53.3575L78.8963 17.7151C82.7846 13.8268 91.8571 8.80444 93.6393 10.9106C95.7454 13.0167 90.7231 21.7653 86.8348 25.6536L51.1924 61.2961C44.7119 67.7765 31.265 75.391 21.3823 83.1676Z" stroke="#0587D6" stroke-width="2.77153" stroke-miterlimit="79.8403" stroke-linecap="round" stroke-linejoin="round"/>
<path d="M19.1143 86.5696C2.4272 108.765 -3.56718 130.799 5.82946 140.195" stroke="#0587D6" stroke-width="2.77153" stroke-miterlimit="79.8403" stroke-linecap="round" stroke-linejoin="round"/>
<path d="M90.7225 13.665C89.5884 17.8773 85.5381 22.7377 85.5381 22.7377L50.2197 57.7321" stroke="white" stroke-width="1.84774" stroke-miterlimit="10" stroke-linecap="round"/>
<path d="M73.7114 43.9609L81.974 73.1229" stroke="white" stroke-width="1.84774" stroke-miterlimit="10" stroke-linecap="round"/>
<path d="M146.617 141.491V85.5975C146.617 84.4635 145.645 83.8154 144.835 83.8154H103.846C102.712 83.8154 102.064 84.7875 102.064 85.5975V141.491C102.064 142.625 103.036 143.274 103.846 143.274H144.835C145.645 143.598 146.617 142.625 146.617 141.491Z" stroke="white" stroke-width="8.14349" stroke-miterlimit="79.8403" stroke-linecap="round" stroke-linejoin="round"/>
<path fill-rule="evenodd" clip-rule="evenodd" d="M134.142 82.5199H114.053V77.0115C114.053 76.0395 114.863 75.0674 115.997 75.0674H132.36C133.332 75.0674 134.304 75.8774 134.304 77.0115V82.5199H134.142Z" fill="white" stroke="white" stroke-width="7.14631" stroke-miterlimit="10" stroke-linecap="round"/>
<path d="M116.482 143.922H109.84V147H116.482V143.922Z" fill="#0587D6" stroke="white" stroke-width="3.17234" stroke-miterlimit="79.8403" stroke-linecap="round" stroke-linejoin="round"/>
<path fill-rule="evenodd" clip-rule="evenodd" d="M146.617 141.491V85.5975C146.617 84.4635 145.645 83.8154 144.835 83.8154H103.846C102.712 83.8154 102.064 84.7875 102.064 85.5975V141.491C102.064 142.625 103.036 143.274 103.846 143.274H144.835C145.645 143.598 146.617 142.625 146.617 141.491Z" fill="white"/>
<path d="M146.455 84.6257H102.874V143.274H146.455V84.6257Z" fill="#85DBF6"/>
<path d="M146.617 141.491V85.5975C146.617 84.4635 145.645 83.8154 144.835 83.8154H103.846C102.712 83.8154 102.064 84.7875 102.064 85.5975V141.491C102.064 142.625 103.036 143.274 103.846 143.274H144.835C145.645 143.598 146.617 142.625 146.617 141.491Z" stroke="#0587D6" stroke-width="2.71336" stroke-miterlimit="79.8403" stroke-linecap="round" stroke-linejoin="round"/>
<path fill-rule="evenodd" clip-rule="evenodd" d="M134.142 82.5199H114.053V77.0115C114.053 76.0395 114.863 75.0674 115.997 75.0674H132.36C133.332 75.0674 134.304 75.8774 134.304 77.0115V82.5199H134.142Z" fill="white" stroke="#0587D6" stroke-width="3.17234" stroke-miterlimit="10" stroke-linecap="round"/>
<path d="M116.482 143.922H109.84V147H116.482V143.922Z" fill="#0587D6" stroke="#0587D6" stroke-width="1.35684" stroke-miterlimit="79.8403" stroke-linecap="round" stroke-linejoin="round"/>
<path d="M139.163 143.922H132.521V147H139.163V143.922Z" fill="#0587D6" stroke="#0587D6" stroke-width="1.35684" stroke-miterlimit="79.8403" stroke-linecap="round" stroke-linejoin="round"/>
<path d="M139.163 143.922H132.521V147H139.163V143.922Z" fill="#0587D6" stroke="#0587D6" stroke-width="1.35684" stroke-miterlimit="79.8403" stroke-linecap="round" stroke-linejoin="round"/>
<path d="M111.299 94.5088V129.827" stroke="#0587D6" stroke-width="1.58625" stroke-miterlimit="10" stroke-linecap="round"/>
<path d="M138.354 94.5088V129.827" stroke="#0587D6" stroke-width="1.58625" stroke-miterlimit="10" stroke-linecap="round"/>
<path d="M124.745 94.5088V129.827" stroke="#0587D6" stroke-width="1.58625" stroke-miterlimit="10" stroke-linecap="round"/>
</svg>
