<svg width="157" height="154" viewBox="0 0 157 154" fill="none" xmlns="http://www.w3.org/2000/svg">
<g filter="url(#filter0_d_674_20607)">
<path d="M141.907 75.0046C141.907 37.5959 111.3 6.98877 74.0329 6.98877C36.6242 6.98877 6.01709 37.5959 6.01709 75.0046C6.01709 112.413 36.6242 142.879 74.0329 142.879C111.3 143.02 141.907 112.413 141.907 75.0046Z" stroke="#0587D6" stroke-width="2.77873" stroke-miterlimit="10" stroke-linecap="round" stroke-linejoin="round"/>
<path d="M130.003 38.3042C134.254 41.8467 134.821 46.6645 137.797 51.0572C138.505 52.0491 138.789 55.8749 139.497 55.8749C140.631 55.8749 143.607 51.4823 144.315 50.6321C145.874 48.3649 147.432 46.3811 148.991 46.3811C149.416 46.3811 149.983 47.373 149.983 47.7981C149.983 48.2232 148.991 48.9317 147.433 51.7657C145.874 54.883 145.307 61.1178 143.182 64.3769C141.623 66.6441 142.756 68.3445 142.756 70.3283C142.473 74.1542 142.615 78.2635 142.048 81.9477L138.08 110.288" stroke="white" stroke-width="4.14188" stroke-miterlimit="10" stroke-linecap="round" stroke-linejoin="round"/>
<path d="M10.2676 72.312C8.99226 81.8059 11.5429 105.328 13.385 110.571" stroke="white" stroke-width="4.41564" stroke-miterlimit="10" stroke-linecap="round" stroke-linejoin="round"/>
<path d="M15.2266 111.138C14.093 108.02 10.5505 86.0567 10.9756 82.7976" stroke="white" stroke-width="4.14188" stroke-miterlimit="10" stroke-linecap="round" stroke-linejoin="round"/>
<path fill-rule="evenodd" clip-rule="evenodd" d="M112.433 118.931C112.716 120.065 113.424 121.198 114.416 122.049C114.841 122.474 117.676 123.182 118.384 123.041C123.91 121.907 126.603 118.79 132.554 120.348C132.696 120.348 132.837 120.49 132.979 120.49C135.671 113.405 121.785 108.446 124.761 101.361C123.627 99.3767 126.177 97.1095 126.177 94.7007V89.7412C126.036 84.9234 121.926 78.1218 119.659 75.4295L117.676 71.4619C115.408 70.6117 110.732 66.0773 108.323 66.5024C103.647 66.0773 101.238 64.9437 98.9712 64.802C97.5542 64.802 95.2869 67.0692 93.1614 67.2109C90.7525 71.0368 80.6919 73.8708 77.8579 66.3607C71.3397 62.96 65.105 62.8183 60.2872 61.543C59.2953 61.2596 59.5786 64.2352 58.445 64.2352L56.7447 65.0854C53.0605 67.3526 49.518 66.6441 46.5423 70.0449L28.4048 90.4497C28.1214 90.7331 25.8542 92.7169 25.4291 92.8586L17.7773 95.976C20.8947 97.9597 22.5951 101.077 21.0364 105.753C20.3279 107.312 19.7611 109.012 18.9109 110.571C20.4696 112.555 21.6032 114.255 22.3117 116.097C22.4534 116.097 22.7368 116.239 23.0202 116.381C23.7287 116.664 24.4372 117.089 25.2874 117.373C25.5708 117.514 25.7125 117.656 26.1376 117.798C27.2712 118.223 28.4048 118.931 29.5384 119.781C30.3886 120.207 30.9554 120.632 31.9473 121.057C32.9392 121.482 34.3561 122.332 35.0646 123.182C36.1982 124.458 36.6234 122.615 35.4898 123.041L35.7731 122.049C36.6233 121.765 36.0566 122.757 37.0484 122.474C38.182 122.049 37.757 120.773 39.4574 120.773C39.8825 120.773 41.5828 117.514 42.0079 117.656C45.9755 109.296 48.2427 103.628 48.9512 104.903C51.0767 108.871 55.7528 118.081 55.7528 124.316C55.7528 125.591 55.7528 128.709 55.6111 129.842C54.4775 136.36 53.0605 139.619 59.5787 141.036C71.7649 143.587 88.202 143.445 101.097 137.919C105.489 135.935 105.773 131.543 105.773 126.725L105.631 125.875C105.631 121.057 109.315 117.939 110.591 113.972C109.599 113.122 110.874 114.255 112.433 118.931Z" fill="#00A2E5"/>
<path d="M56.603 111.846C56.0362 111.138 53.3439 110.004 51.6436 111.846C52.4938 112.98 53.2023 114.397 53.344 115.814C55.0444 118.789 55.6111 122.19 56.3196 127.15C56.8864 130.975 56.4614 134.66 55.4695 138.202L56.3196 138.06C56.603 136.927 56.7448 135.51 56.8865 135.368C58.1618 131.259 60.0039 125.024 59.2954 120.631C58.4452 114.963 59.1536 115.53 56.603 111.846Z" fill="#85DBF6"/>
<path fill-rule="evenodd" clip-rule="evenodd" d="M123.344 124.458L122.494 123.466L120.793 121.765C120.652 121.624 120.652 121.482 120.652 121.057L121.502 113.688L121.785 112.271C123.627 104.336 127.028 90.8748 127.737 86.7655L127.878 86.057V85.9153L128.02 84.3566C128.02 83.9315 128.02 83.2231 128.02 82.798C128.02 80.6725 127.737 77.6968 127.028 73.0207C126.887 72.0288 126.887 70.4701 126.745 69.0531C126.603 67.6361 126.603 66.2191 126.461 65.6523C125.328 62.2515 125.186 60.8345 123.627 58.4256L122.777 57.4337C122.777 57.4337 122.777 57.292 122.636 57.292C122.636 57.1503 122.494 57.0086 122.494 56.8669L122.352 56.7252H122.21C122.069 56.5835 122.069 56.5835 122.069 56.4418L121.927 56.3001H121.785C121.644 56.3001 121.502 56.3001 121.36 56.1584C121.077 55.875 121.077 55.5916 121.077 55.5916C120.935 55.3082 120.793 55.1665 120.652 54.8831C120.368 54.8831 120.085 54.5997 120.227 54.1746C120.227 53.8912 120.51 53.6079 120.652 53.4662C120.793 53.3245 120.935 53.1827 121.077 53.1827C121.219 52.8993 121.36 52.8993 121.644 53.041C121.785 53.1827 121.927 53.3244 121.927 53.6078C122.352 53.1827 122.352 54.0329 122.21 53.6078C122.21 53.6078 122.069 53.4661 121.927 53.3244L121.644 53.4662C121.502 53.1828 121.36 53.4661 121.502 53.1827L121.927 53.6078V53.4662C122.069 53.4662 122.21 53.3244 122.352 53.3244C122.636 53.1827 122.777 53.8912 122.352 53.4662C122.21 53.3245 121.785 53.4661 121.785 53.3244C122.069 55.1665 123.344 52.7576 123.769 54.5997C124.053 54.7414 124.052 54.8831 124.336 55.0248C124.761 55.4499 125.186 55.875 125.611 56.3001C126.178 56.8669 126.745 57.4337 127.312 58.0005C127.453 57.5754 127.595 57.1503 127.595 56.5835C127.17 55.5916 126.745 54.5997 126.178 53.6078C125.186 51.4824 124.194 49.4986 123.202 47.3731C123.202 47.2314 123.344 47.0897 123.344 47.0897C123.344 46.6646 123.061 46.3812 122.777 46.0978C122.777 45.3893 122.636 44.6808 122.636 43.9723C122.919 43.6889 123.061 43.4055 123.486 42.9804C123.769 43.1221 124.336 43.5472 124.761 44.114C125.328 44.8225 125.611 45.6727 125.753 46.0978C126.603 47.3731 127.453 48.5067 128.304 49.782C130.287 55.3082 130.854 56.4418 130.854 56.4418C131.138 56.3001 130.429 51.9075 129.012 47.3731C127.737 43.4055 126.461 40.8549 127.17 40.1464C127.453 39.7213 128.02 40.0047 128.587 40.1464C128.87 40.5715 129.154 40.9966 129.437 41.4217C130.146 42.697 130.854 44.114 131.563 45.3893C131.988 46.5229 133.688 45.9561 134.113 46.948C134.538 49.782 135.247 50.9155 135.53 51.9074C135.672 52.3325 135.672 52.7577 135.814 52.7577C135.955 52.7577 136.097 54.3163 136.097 53.4662C136.097 52.616 136.097 52.1909 135.955 51.3407C135.672 50.0654 135.672 47.7982 134.397 43.8306C133.546 42.9804 133.121 41.4217 133.263 40.7132C133.263 40.5715 133.688 39.863 133.83 39.5796C134.538 39.863 134.538 39.5796 135.247 39.863C135.814 40.9966 136.805 42.1302 137.372 43.2638C137.656 44.2557 138.081 45.3893 138.364 46.3812C138.222 47.5148 138.931 49.3569 139.498 51.4824C140.065 53.3244 140.206 54.3163 140.773 55.1665C140.773 57.7171 140.206 57.4337 140.631 57.5754C140.915 57.5754 140.915 59.8426 141.198 59.4175C141.482 58.8507 141.056 58.4256 141.482 57.8588C141.623 57.4337 141.623 57.0086 141.765 56.7252C141.907 56.3001 140.915 55.0248 141.198 54.5997C141.482 54.1746 142.19 54.0329 142.474 53.7495C142.757 53.6078 142.19 51.4824 142.474 51.3407C142.757 51.199 143.607 50.0654 143.749 50.0654C144.032 50.0654 144.741 49.782 145.166 49.9237C145.166 49.9237 145.733 49.9237 146.016 50.4905C146.299 50.9155 145.591 53.7495 145.449 54.1746C145.307 54.458 145.024 55.3082 144.882 55.5916C144.741 55.7333 144.741 56.7252 144.599 56.8669C144.032 57.7171 144.599 58.8507 144.032 59.7009C143.607 61.8264 143.04 64.377 142.048 67.211C140.915 70.1867 139.214 70.4701 139.64 74.8628C139.073 76.9883 140.065 80.1057 139.781 83.3648C139.498 86.4821 139.923 89.8829 140.065 92.0084C138.506 101.361 143.324 112.697 136.664 119.782C136.097 124.174 129.721 126.158 125.895 126.158C126.036 124.458 124.194 125.308 123.344 124.458Z" fill="white"/>
<path fill-rule="evenodd" clip-rule="evenodd" d="M33.7901 118.081C32.3731 119.64 29.114 121.907 26.7051 121.907C21.6039 121.907 16.5027 117.231 14.5189 111.279C13.3853 108.162 9.41774 86.1986 9.84284 82.7978C9.98454 80.5306 9.98459 75.4295 9.98459 73.304C9.98459 68.6279 10.5514 68.9113 9.70117 66.5024L9.98459 60.8344C8.56759 57.5753 13.8104 52.3324 11.5432 49.3567C11.2598 48.9316 12.5352 46.6644 12.5352 46.381C12.5352 45.6725 13.8104 45.6725 14.5189 45.6725C15.6525 45.6725 14.5189 48.7899 15.0857 49.3567C16.0776 51.1988 11.8267 51.1988 13.5271 53.6077C13.9522 54.5996 13.2437 51.1988 14.2356 50.9154C15.3692 49.9235 17.2112 46.2393 18.0614 45.5308C21.1788 42.6968 20.612 38.871 24.7213 37.3123C25.7132 37.0289 32.373 38.5876 32.9398 38.5876C34.2151 38.5876 37.4742 44.3972 37.4742 44.6806C37.4742 45.6725 31.0978 53.6077 30.2476 53.7494H37.1908C38.3244 53.8911 37.0492 56.7251 36.199 56.5834C33.7901 56.1583 29.5391 61.4012 29.114 61.8263C27.1302 63.385 25.4298 68.7696 24.1545 71.0368C23.0209 72.5955 21.8873 79.397 23.8711 83.648L31.5229 108.445L33.7901 118.081Z" fill="white"/>
<path fill-rule="evenodd" clip-rule="evenodd" d="M31.5229 120.49C33.0816 118.222 38.7496 108.304 40.0249 105.47C39.5998 102.352 39.033 99.9433 37.4743 98.9514C36.199 97.8178 31.3812 92.5749 30.1059 92.5749C27.2719 92.4332 25.4299 98.1012 25.7133 99.8016C27.4137 106.745 29.6808 113.546 31.5229 120.49Z" fill="white"/>
<path fill-rule="evenodd" clip-rule="evenodd" d="M96.846 51.1989L77.2915 49.4985V59.1341C79.417 62.2515 82.3927 64.9438 87.919 64.9438C88.6275 64.9438 89.3359 64.8021 90.1861 64.6604L90.4695 64.5187C92.595 59.7009 94.8622 55.5916 96.846 51.1989Z" fill="white"/>
<path fill-rule="evenodd" clip-rule="evenodd" d="M102.656 22.2927C101.097 14.9243 94.0124 12.9405 94.0124 10.6733V7.83936C94.0124 9.82315 91.6035 10.6733 90.0448 10.6733C78.8506 10.6733 71.9072 23.2846 71.9072 32.2117C71.9072 34.7623 72.0489 37.1712 72.1906 39.4384C72.6157 43.831 75.3081 47.3735 78.0004 50.2075C80.8344 53.0415 83.81 55.0253 87.7776 55.0253C91.7452 55.0253 94.8626 52.8998 97.5549 50.2075C100.389 47.3735 102.373 43.6893 102.798 39.4384C103.931 33.487 103.931 27.9607 102.656 22.2927Z" fill="white"/>
<path fill-rule="evenodd" clip-rule="evenodd" d="M57.4541 58.9924C57.4541 58.9924 57.8791 50.7738 62.6969 40.9965C62.6969 40.9965 57.3123 27.8185 60.5714 18.8914C63.6888 10.106 69.0734 4.57973 78.5673 1.17894C81.9681 0.0453478 85.5106 -0.0963561 88.4862 0.0453434C95.0044 0.470442 100.814 4.57973 104.215 10.3894C106.907 15.0655 109.741 21.442 109.033 26.9683C107.899 37.8791 113.425 37.7374 108.041 53.7495C108.041 53.7495 104.64 58.709 110.166 61.8263" fill="white"/>
<path fill-rule="evenodd" clip-rule="evenodd" d="M74.7412 7.98058C74.7412 7.98058 67.798 15.0656 67.6563 30.7942C67.5146 46.5229 69.6401 42.5553 72.7575 51.0572C76.0166 59.5592 73.8911 57.292 75.5915 61.543C77.1502 65.794 80.551 75.713 80.551 75.713L80.4092 77.13C80.4092 77.13 72.8992 73.3041 71.0571 68.3446C71.0571 68.3446 69.7818 73.1624 67.0895 74.5794C67.0895 74.5794 68.3648 62.96 67.9397 62.3932L59.296 63.6685C59.296 63.6685 58.0207 53.1827 64.8223 41.8468C64.8223 41.8468 63.8304 21.3003 64.964 21.3003C64.964 20.8752 67.6563 7.69718 74.7412 7.98058Z" fill="#85DBF6"/>
<path fill-rule="evenodd" clip-rule="evenodd" d="M102.939 15.9155C102.939 15.9155 107.899 25.5511 107.474 31.3608C107.049 37.1705 107.474 47.2311 104.923 52.8991C102.231 58.4254 107.474 62.9598 107.474 62.9598L110.024 65.6521L109.741 66.3606L98.1214 64.5185C98.1214 64.5185 93.8704 72.312 93.8704 76.1378C93.8704 76.1378 88.911 73.8706 96.4211 57.1501C98.4049 52.8991 101.381 49.0732 103.506 40.2879C104.498 34.7616 103.648 26.2596 102.939 15.9155Z" fill="#85DBF6"/>
<path d="M83.5264 3.021L75.3079 6.42178C73.8909 7.27198 70.065 9.96427 68.7897 11.523C66.0974 15.0655 65.2472 18.7496 64.5387 23.1423C64.2553 25.8346 64.1136 28.6686 64.2553 31.3609L64.6804 38.7293C64.8221 40.7131 64.5387 42.2718 63.8302 43.8305L60.5711 51.9073C59.7209 54.0328 59.4375 56.1583 59.2958 58.2838L58.729 64.9437L67.6561 62.3931" stroke="#0587D6" stroke-width="1.67871" stroke-miterlimit="10" stroke-linecap="round" stroke-linejoin="round"/>
<path d="M100.53 10.2476L104.498 18.7495C106.623 22.7171 107.048 26.9681 107.332 31.7859V39.4377C107.19 43.6887 106.198 49.2149 104.498 53.7493C103.648 56.2999 104.073 59.1339 105.915 61.1177C106.198 61.5428 106.623 61.8262 106.907 62.2513L109.599 66.5023" stroke="#0587D6" stroke-width="1.67871" stroke-miterlimit="10" stroke-linecap="round" stroke-linejoin="round"/>
<path d="M92.7369 67.778C85.7936 74.1544 79.8422 69.0533 79.8422 69.0533C79.8422 69.0533 75.5912 64.5189 75.0244 56.3003" stroke="#0587D6" stroke-width="1.36315" stroke-miterlimit="10" stroke-linecap="round" stroke-linejoin="round"/>
<path d="M75.4495 60.6924C75.4495 60.6924 78.5669 68.7693 80.6924 76.2793C80.8341 76.7044 80.409 77.2712 79.8422 77.1295C77.4334 76.1376 72.4738 73.3036 70.7734 67.3523" stroke="#0074A5" stroke-width="1.3871" stroke-miterlimit="10" stroke-linecap="round"/>
<path d="M98.4053 64.5186C98.4053 64.5186 104.923 65.5105 109.316 66.644" stroke="#0587D6" stroke-width="1.36315" stroke-miterlimit="10" stroke-linecap="round" stroke-linejoin="round"/>
<path d="M109.458 66.644C109.883 66.644 113.709 69.1946 113.992 69.3363C116.117 71.0367 118.951 73.8707 119.66 75.4294C121.502 77.8383 126.178 88.0407 126.603 89.4577" stroke="#0587D6" stroke-width="2.40889" stroke-miterlimit="10" stroke-linecap="round" stroke-linejoin="round"/>
<path fill-rule="evenodd" clip-rule="evenodd" d="M78.283 49.9232C75.449 47.0892 73.1819 43.405 72.4734 39.154C72.3317 36.8868 72.1899 34.3362 72.1899 31.9273C72.1899 31.6439 72.1899 31.2189 72.1899 30.7938C72.3316 32.7775 72.3317 34.3362 72.4734 35.8949C72.8985 40.2876 75.5907 45.1054 78.283 47.9394C80.9753 50.7734 84.0927 52.7572 88.0603 52.7572C92.0279 52.7572 95.1453 50.7734 97.8376 47.9394C100.672 45.1054 102.655 40.2876 103.08 35.8949C103.364 33.7694 103.506 31.6439 103.506 29.6602C103.647 32.9192 103.364 35.8949 103.08 39.2957C102.372 43.6884 100.247 47.2309 97.8376 50.0649C95.0036 52.8989 92.0279 54.8827 88.0603 54.8827C83.8093 55.0244 80.8336 53.0406 78.283 49.9232Z" fill="#85DBF6"/>
<path fill-rule="evenodd" clip-rule="evenodd" d="M94.1544 10.3895C94.1544 12.3733 91.7455 13.2235 90.1869 13.2235C78.9926 13.2235 72.0493 23.0007 72.0493 31.9278C72.0493 42.5553 74.5999 50.7738 77.5756 58.9924C74.0331 54.7414 67.7983 42.9804 67.7983 33.3448C67.7983 25.9764 68.5068 17.0494 72.4744 10.9563C76.0169 5.71339 82.2517 2.1709 88.0614 2.1709C95.1463 2.1709 102.656 8.12228 102.656 19.7416C102.656 19.8833 102.656 20.025 102.656 20.1667L102.94 22.4339C101.381 15.0656 94.2962 15.6324 94.2962 13.6486V10.8146H94.0128L94.1544 10.3895Z" fill="#85DBF6"/>
<path d="M100.955 62.2515C100.955 62.2515 93.02 67.211 94.5787 77.6968C87.0686 72.4539 99.6799 51.199 101.522 46.3812C103.506 41.4217 104.073 36.0371 104.073 30.7942C104.073 27.3934 103.364 23.9926 102.797 20.1667C102.797 20.025 102.797 19.8833 102.797 19.7416C102.797 8.26398 95.2872 2.1709 88.2022 2.1709C82.6759 2.1709 76.2994 5.71339 72.6152 10.9563C68.7894 17.0494 67.9392 25.9764 67.9392 33.3448C67.9392 39.2962 68.3643 44.9642 69.2145 51.0572C70.6315 62.2515 72.8987 71.0369 66.5222 75.0045C66.5222 75.0045 70.3481 63.3851 66.2388 53.1827" stroke="#0587D6" stroke-width="1.67871" stroke-miterlimit="10" stroke-linecap="round" stroke-linejoin="round"/>
<path d="M92.8792 4.86328C93.5877 5.85518 94.1544 9.25597 94.1544 10.3896C94.1544 12.3734 91.7455 13.2236 90.1868 13.2236C78.9926 13.2236 72.0493 23.0008 72.0493 31.9279C72.0493 42.5554 74.5999 50.7739 77.5756 58.9925C74.0331 54.7415 67.7983 42.9805 67.7983 33.3449" stroke="#0587D6" stroke-width="1.67871" stroke-miterlimit="10" stroke-linecap="round" stroke-linejoin="round"/>
<path d="M94.1543 10.3896V13.2236C94.1543 15.4908 101.239 14.7823 102.798 22.009" stroke="#0587D6" stroke-width="1.36315" stroke-miterlimit="10" stroke-linecap="round" stroke-linejoin="round"/>
<path d="M72.4741 39.2964C72.8992 43.6891 75.5915 47.2316 78.2838 50.0656C81.1178 52.8995 84.0935 54.8833 88.0611 54.8833C92.0287 54.8833 95.1461 52.7578 97.8384 50.0656C100.531 47.2316 102.656 43.5474 103.081 39.2964" stroke="#0587D6" stroke-width="1.36315" stroke-miterlimit="10" stroke-linecap="round" stroke-linejoin="round"/>
<path d="M89.9026 6.42188C78.85 6.42188 72.0484 13.7903 70.4897 24.5594" stroke="#0587D6" stroke-width="1.36315" stroke-miterlimit="10" stroke-linecap="round" stroke-linejoin="round"/>
<path d="M83.5262 29.5188C81.5424 28.2435 79.5587 27.9601 77.2915 29.3771" stroke="#00A2E5" stroke-width="1.36315" stroke-miterlimit="10" stroke-linecap="round" stroke-linejoin="round"/>
<path fill-rule="evenodd" clip-rule="evenodd" d="M81.118 28.3854C81.8265 28.5271 82.2516 29.0939 82.1099 29.8024C81.9682 30.5109 81.4014 30.936 80.6929 30.7943C79.9844 30.6526 79.5593 30.0858 79.701 29.3773C79.8427 28.5271 80.5512 28.2437 81.118 28.3854Z" fill="#0587D6"/>
<path fill-rule="evenodd" clip-rule="evenodd" d="M87.9188 47.6567C90.7528 47.6567 91.7447 45.3895 93.1616 43.9725C90.8945 42.9806 90.6111 43.264 89.4775 43.264C88.769 43.264 88.2022 43.5474 87.4937 43.5474C87.0686 43.5474 86.3601 43.264 85.5099 43.264C84.518 43.264 84.0929 43.264 81.8257 43.9725C84.0929 45.3895 84.9431 47.6567 87.9188 47.6567Z" fill="#00A2E5"/>
<path d="M94.1536 43.8301C92.5949 44.5386 90.3278 45.1054 87.9189 45.1054C85.51 45.1054 83.2428 44.6803 81.6841 43.8301" stroke="#0587D6" stroke-width="1.36315" stroke-miterlimit="10" stroke-linecap="round" stroke-linejoin="round"/>
<path d="M84.8013 38.3042C86.0766 38.3042 86.7851 39.5795 87.9187 39.5795C89.0523 39.5795 89.9024 38.3042 91.036 38.3042" stroke="#0587D6" stroke-width="1.36315" stroke-miterlimit="10" stroke-linecap="round" stroke-linejoin="round"/>
<path d="M92.4536 29.5193C94.4374 28.244 96.2795 27.9606 98.6884 29.3776" stroke="#00A2E5" stroke-width="1.36315" stroke-miterlimit="10" stroke-linecap="round" stroke-linejoin="round"/>
<path fill-rule="evenodd" clip-rule="evenodd" d="M94.5793 28.3854C95.2878 28.2437 95.8546 28.5271 95.9963 29.3773C96.138 30.2275 95.8546 30.6526 95.0044 30.7943C94.296 30.936 93.7292 30.6526 93.5875 29.8024C93.4458 29.2356 94.0125 28.3854 94.5793 28.3854Z" fill="#0587D6"/>
<path d="M88.486 26.6839H87.2108C85.7938 26.6839 82.8181 25.5503 80.2675 25.5503H73.0408C73.0408 30.5098 72.6157 34.0523 78.5671 34.0523C87.069 34.0523 85.5104 27.9592 86.9274 27.9592H88.2026C89.7613 27.9592 88.0609 34.0523 96.5629 34.0523C102.656 34.0523 102.089 30.3681 102.089 25.5503H94.8625C93.0204 25.5503 89.903 26.6839 88.486 26.6839Z" stroke="#0587D6" stroke-width="1.28932" stroke-miterlimit="10" stroke-linecap="round" stroke-linejoin="round"/>
<path fill-rule="evenodd" clip-rule="evenodd" d="M122.919 124.315C121.36 122.048 116.684 114.538 115.409 112.129C116.401 105.328 121.644 101.502 126.178 100.227L122.919 124.315Z" fill="white"/>
<path d="M15.6522 51.7652C14.802 52.7571 15.0854 50.4899 16.0773 49.0729C15.2271 49.3563 17.2108 48.5061 16.644 47.5142C15.3687 44.9636 15.7938 45.5304 14.3769 44.5385C13.8101 44.1134 11.4011 44.8219 10.976 46.5223C10.8343 46.8057 10.9761 49.6397 9.9842 50.7733C9.7008 51.0567 9.13397 54.174 9.41737 54.5991C9.27567 56.7246 8.14206 57.4331 9.13395 60.2671L10.2675 65.51C11.1177 68.0606 10.6927 65.0849 10.6927 69.6193C10.6927 71.8865 11.2594 70.3278 11.2594 72.3116" stroke="white" stroke-width="3.70105" stroke-miterlimit="10" stroke-linecap="round" stroke-linejoin="round"/>
<path fill-rule="evenodd" clip-rule="evenodd" d="M27.9796 53.466C29.9633 53.3243 30.5301 53.6077 30.105 55.4498C33.9309 55.3081 33.6476 56.4417 31.6638 58.2838C33.6476 58.9923 33.2225 60.4092 30.3885 62.5347L27.8379 62.1096L27.9796 53.466Z" fill="white"/>
<path d="M24.0122 69.7612C22.8787 71.3199 22.3119 80.9555 23.5872 85.3482L32.5142 110.287" stroke="#0587D6" stroke-width="1.36315" stroke-miterlimit="10" stroke-linecap="round" stroke-linejoin="round"/>
<path d="M35.7734 122.615C45.6924 116.381 47.8179 101.927 49.0932 104.62C51.2187 108.587 56.0365 118.223 56.0365 124.458C56.0365 129.417 55.328 134.235 53.0608 138.628" stroke="#0587D6" stroke-width="2.40889" stroke-miterlimit="10" stroke-linecap="round" stroke-linejoin="round"/>
<path fill-rule="evenodd" clip-rule="evenodd" d="M39.3161 104.478C39.3161 104.478 42.5751 117.939 37.8991 120.915C37.8991 120.915 35.3485 122.049 33.0813 119.64C32.9396 119.498 39.5995 118.223 39.3161 104.478Z" fill="#85DBF6"/>
<path d="M26.9878 91.4414L39.8824 77.8382C41.1577 75.571 42.5747 73.0204 45.5504 70.8949C47.5342 69.4779 50.7933 66.7857 53.2022 66.2189L58.445 64.6602" stroke="#0587D6" stroke-width="2.40889" stroke-miterlimit="10" stroke-linecap="round" stroke-linejoin="round"/>
<path d="M116.401 121.907C112.575 120.915 109.599 112.98 109.174 114.255C107.899 118.081 105.206 120.915 105.206 125.733C105.206 128.142 104.498 131.826 105.206 134.235" stroke="#0587D6" stroke-width="2.40889" stroke-miterlimit="10" stroke-linecap="round" stroke-linejoin="round"/>
<path d="M108.75 133.385C98.4054 139.478 86.7861 142.737 74.1749 142.737C64.2559 142.737 54.6203 140.47 45.835 136.644" stroke="white" stroke-width="5.55731" stroke-miterlimit="10" stroke-linecap="round" stroke-linejoin="round"/>
<path d="M110.449 132.393C99.8216 139.194 87.4938 143.02 74.174 143.02C62.9798 143.02 52.2106 140.186 42.8584 135.51" stroke="#0587D6" stroke-width="2.77873" stroke-miterlimit="10" stroke-linecap="round" stroke-linejoin="round"/>
<path d="M122.919 124.316C121.36 122.049 116.826 114.964 115.409 112.271" stroke="#0587D6" stroke-width="1.36315" stroke-miterlimit="10" stroke-linecap="round" stroke-linejoin="round"/>
<path d="M58.4457 67.9189C57.1704 68.344 52.6361 69.4776 49.6604 71.4614C47.3932 72.8784 45.5511 74.8622 43.9924 76.9877L40.1665 82.6557" stroke="#85DBF6" stroke-width="1.36315" stroke-miterlimit="10" stroke-linecap="round" stroke-linejoin="round"/>
<path d="M27.1299 92.4333C27.1299 92.4333 40.7331 95.6924 41.5833 110.571C41.725 112.838 41.2998 115.105 40.3079 117.089C35.3484 127.291 31.2392 119.498 32.3728 121.057" stroke="#0587D6" stroke-width="3.14431" stroke-miterlimit="10" stroke-linecap="round" stroke-linejoin="round"/>
<path d="M123.911 100.085C116.826 105.328 113.142 111.421 114.133 116.38C115.125 121.34 116.259 123.324 120.085 122.473" stroke="#0587D6" stroke-width="3.14431" stroke-miterlimit="10" stroke-linecap="round" stroke-linejoin="round"/>
<path d="M31.5229 120.49C31.5229 120.49 40.1667 108.87 40.5918 103.911" stroke="#0587D6" stroke-width="1.8496" stroke-miterlimit="10" stroke-linecap="round" stroke-linejoin="round"/>
<path d="M28.9724 92.5752C27.4137 94.559 27.272 94.9841 27.272 94.9841" stroke="#0587D6" stroke-width="1.8496" stroke-miterlimit="10" stroke-linecap="round" stroke-linejoin="round"/>
<path d="M110.732 125.591L120.793 126.583C122.21 128.992 123.344 130.976 124.761 133.526" stroke="white" stroke-width="5.03614" stroke-miterlimit="10" stroke-linejoin="round"/>
<path d="M31.806 124.316C24.1542 127.575 17.2109 122.757 17.2109 122.757" stroke="white" stroke-width="5.55731" stroke-miterlimit="10" stroke-linejoin="round"/>
<path d="M59.7209 79.8223C59.7209 79.8223 46.2594 87.1906 50.0853 106.462" stroke="#0587D6" stroke-width="2.40889" stroke-miterlimit="10" stroke-linecap="round"/>
<path d="M107.757 82.7981C107.757 82.7981 118.384 95.126 109.174 114.255" stroke="#0587D6" stroke-width="2.40889" stroke-miterlimit="10" stroke-linecap="round" stroke-linejoin="round"/>
<path d="M141.482 55.3076C142.048 54.5991 142.615 54.8825 142.899 54.174C143.607 52.4736 142.19 51.1983 144.032 49.7813C145.591 48.9311 146.583 49.923 146.583 49.923C146.583 49.923 146.158 53.1821 144.882 56.8663C144.457 57.9999 143.749 61.9675 143.607 63.1011C143.04 65.7934 142.19 67.4938 140.773 69.9027C139.498 72.0282 140.348 79.9633 140.206 83.7892L141.057 109.72C141.34 115.247 135.105 125.307 130.996 125.449C129.012 125.591 124.478 125.732 122.919 124.032" stroke="#0587D6" stroke-width="1.417" stroke-miterlimit="10" stroke-linecap="round" stroke-linejoin="round"/>
<path d="M141.907 59.9841C141.907 59.8424 142.049 57.8586 141.624 56.1582C141.199 54.5996 140.207 51.3405 140.207 51.3405C140.207 51.3405 137.656 40.1462 135.672 39.5794C134.397 39.296 134.114 40.4296 134.114 40.9964C134.114 40.9964 137.798 49.6401 136.948 53.8911" stroke="#0587D6" stroke-width="1.417" stroke-miterlimit="10" stroke-linecap="round" stroke-linejoin="round"/>
<path d="M129.013 41.4216C128.304 38.871 130.996 39.0127 131.705 40.288" stroke="#0587D6" stroke-width="1.417" stroke-miterlimit="10" stroke-linecap="round" stroke-linejoin="round"/>
<path d="M123.344 111.563C123.485 103.911 128.445 84.6396 128.87 81.8056C129.153 80.8137 129.578 78.9716 129.862 77.6963C130.287 75.5708 130.145 73.587 129.72 71.3198C129.578 70.6113 129.578 70.1862 129.153 69.7611C128.586 68.9109 127.736 67.3522 127.878 66.2187C127.878 65.2268 127.878 64.3765 127.736 63.243C126.886 59.7005 126.603 58.1418 125.186 55.5912C124.902 54.741 120.793 50.9151 121.36 49.9232C122.918 48.0811 126.886 54.0325 127.736 54.8827L129.437 57.0082C130.854 53.4657 124.619 46.6641 124.194 43.6884C124.194 43.2633 124.194 42.9799 124.335 42.8382C124.619 42.1297 125.894 41.988 126.461 42.5548" stroke="#0587D6" stroke-width="1.417" stroke-miterlimit="10" stroke-linecap="round" stroke-linejoin="round"/>
<path d="M133.264 56.0166C132.13 49.9236 126.462 42.5552 126.462 42.5552" stroke="#0587D6" stroke-width="1.417" stroke-miterlimit="10" stroke-linecap="round" stroke-linejoin="round"/>
<path d="M129.013 41.7056C129.438 42.2724 134.256 53.6083 133.122 56.0172" stroke="#0587D6" stroke-width="1.417" stroke-miterlimit="10" stroke-linecap="round" stroke-linejoin="round"/>
<path d="M131.563 40.2876C133.83 43.2633 136.948 54.1742 136.948 54.1742" stroke="#0587D6" stroke-width="1.417" stroke-miterlimit="10" stroke-linecap="round" stroke-linejoin="round"/>
<path d="M13.668 59.1344C13.668 58.9927 14.3764 54.7417 15.2266 53.3247C15.9351 51.9077 18.0606 49.2155 18.0606 49.2155C18.0606 49.2155 21.7448 39.2965 25.8541 39.1548C26.846 39.4382 26.9877 40.1467 26.5626 40.9969C26.5626 40.9969 20.8946 47.7985 20.4695 52.0494" stroke="#0587D6" stroke-width="1.417" stroke-miterlimit="10" stroke-linecap="round" stroke-linejoin="round"/>
<path d="M31.665 42.8389C32.3735 41.2802 30.673 40.43 29.6812 41.2802" stroke="#0587D6" stroke-width="1.417" stroke-miterlimit="10" stroke-linecap="round" stroke-linejoin="round"/>
<path d="M24.0132 69.6193C25.7136 67.7772 26.1387 66.5019 27.1306 64.0931C28.6893 61.2591 28.9727 59.1336 31.3816 57.4332C31.8067 57.1498 37.0496 52.4737 36.1994 51.6235C35.2075 49.498 30.1063 54.8826 29.2561 55.3077L26.7055 56.2996C27.414 53.1822 33.3653 49.2146 35.0657 46.3806C35.4908 45.3887 34.6407 44.2551 33.3654 44.6802" stroke="#0587D6" stroke-width="1.417" stroke-miterlimit="10" stroke-linecap="round" stroke-linejoin="round"/>
<path d="M23.3047 54.7408C24.8634 51.3401 33.3654 44.6802 33.3654 44.6802" stroke="#0587D6" stroke-width="1.417" stroke-miterlimit="10" stroke-linecap="round" stroke-linejoin="round"/>
<path d="M31.5232 42.98C30.9564 43.4051 23.1629 52.4738 23.3046 54.5993" stroke="#0587D6" stroke-width="1.417" stroke-miterlimit="10" stroke-linecap="round" stroke-linejoin="round"/>
<path d="M29.539 41.2803C25.9965 43.1224 20.4702 52.1911 20.4702 52.1911" stroke="#0587D6" stroke-width="1.417" stroke-miterlimit="10" stroke-linecap="round" stroke-linejoin="round"/>
<path d="M30.9556 120.774C30.9556 120.774 20.0447 127.292 13.5266 108.163C12.9598 105.045 10.6926 78.9727 12.5347 67.2116C11.6845 64.5193 11.8261 64.9444 10.8342 62.1104C10.5508 61.4019 10.4091 60.2683 10.2674 59.2764C10.1257 58.1428 10.2674 56.8676 10.8342 55.734C11.2593 54.7421 11.5427 53.7502 11.5427 51.9081C11.5427 51.6247 11.5428 51.1996 11.8262 50.9162C12.2513 50.066 13.2432 47.9405 13.2432 46.0984L13.6682 45.9567C13.6682 45.9567 15.5103 45.2482 16.0771 47.0903C16.5022 48.5073 14.8018 49.6409 15.0852 51.3413C15.2269 52.1915 15.0852 52.4749 15.5103 53.3251" stroke="#0587D6" stroke-width="1.417" stroke-miterlimit="10" stroke-linecap="round" stroke-linejoin="round"/>
</g>
<defs>
<filter id="filter0_d_674_20607" x="0.62793" y="0" width="155.426" height="153.515" filterUnits="userSpaceOnUse" color-interpolation-filters="sRGB">
<feFlood flood-opacity="0" result="BackgroundImageFix"/>
<feColorMatrix in="SourceAlpha" type="matrix" values="0 0 0 0 0 0 0 0 0 0 0 0 0 0 0 0 0 0 127 0" result="hardAlpha"/>
<feOffset dy="4"/>
<feGaussianBlur stdDeviation="2"/>
<feComposite in2="hardAlpha" operator="out"/>
<feColorMatrix type="matrix" values="0 0 0 0 0 0 0 0 0 0 0 0 0 0 0 0 0 0 0.25 0"/>
<feBlend mode="normal" in2="BackgroundImageFix" result="effect1_dropShadow_674_20607"/>
<feBlend mode="normal" in="SourceGraphic" in2="effect1_dropShadow_674_20607" result="shape"/>
</filter>
</defs>
</svg>
