<svg width="143" height="142" viewBox="0 0 143 142" fill="none" xmlns="http://www.w3.org/2000/svg">
<path d="M72 2C110.205 2 141 32.9594 141 71C141 109.041 110.041 140 72 140" stroke="#0587D6" stroke-width="2.81714" stroke-miterlimit="79.8403" stroke-linecap="round" stroke-linejoin="round"/>
<path fill-rule="evenodd" clip-rule="evenodd" d="M22.432 119.086H128.484V116.286C127.002 116.286 125.685 114.969 125.685 113.487V103.606C125.685 102.124 127.002 100.807 128.484 100.807V97.8423C127.002 97.8423 125.685 96.5249 125.685 95.0428V85.3268C125.685 83.8447 127.002 82.5273 128.484 82.5273V79.7278H117.286C115.804 79.7278 114.487 78.4104 114.487 76.9283V67.2123C114.487 65.7302 115.804 64.4127 117.286 64.4127V61.6132C115.804 61.6132 114.487 60.2958 114.487 58.8137V49.0977C114.487 47.6156 115.804 46.2982 117.286 46.2982V43.4986H56.8496C55.3675 43.4986 54.0501 42.1812 54.0501 40.6991V30.4891C54.0501 29.6657 54.3795 29.007 54.8735 28.3483L55.3676 28.0189V24.8901H21.2792C23.0907 22.7493 25.0668 20.9378 27.043 19.291H58.1671C59.6492 19.291 60.9666 20.6084 60.9666 22.0905V30.4891C60.9666 31.3125 60.6372 31.9712 60.1432 32.6299L59.6492 32.9593V37.7349H120.086C121.568 37.7349 122.885 39.0524 122.885 40.5345V48.933C122.885 50.4151 121.568 51.7325 120.086 51.7325V55.8495C121.568 55.8495 122.885 57.1669 122.885 58.649V67.0476C122.885 68.5297 121.568 69.8471 120.086 69.8471V73.964H131.284C132.766 73.964 134.084 75.2815 134.084 76.7636V85.1621C134.084 86.6442 132.766 87.9617 131.284 87.9617V92.0786C132.766 92.0786 134.084 93.396 134.084 94.8781V103.277C134.084 104.759 132.766 106.076 131.284 106.076V110.193C132.766 110.193 134.084 111.511 134.084 112.993V121.391C134.084 122.873 132.766 124.191 131.284 124.191H28.5251C26.3843 122.873 24.2434 120.897 22.432 119.086ZM3 71.1645C3 68.859 3.16467 66.8829 3.32935 64.7421C4.15274 65.2361 4.48209 66.0595 4.48209 67.0476V76.7636C4.48209 77.587 4.15275 78.4103 3.49404 78.9044C3.16468 76.2695 3 73.7994 3 71.1645ZM4.31743 57.3316V58.4843C4.31743 58.9784 4.15274 59.6371 3.82339 60.1311C3.98807 59.1431 4.15275 58.155 4.31743 57.3316Z" fill="white"/>
<path fill-rule="evenodd" clip-rule="evenodd" d="M3 71.1646C3 51.8973 10.9045 34.2767 23.5847 21.7612H57.8377V30.1598H56.3556V40.0405H119.757V48.439H116.957V58.155H119.757V66.5536H116.957V76.2696H131.119V84.6681H128.32V94.3841H131.119V102.783H128.32V112.499H131.119V120.897H25.2315C11.5632 109.04 3 91.0906 3 71.1646Z" fill="#85DBF6"/>
<path fill-rule="evenodd" clip-rule="evenodd" d="M12.8804 106.735V35.7589C14.0331 33.9475 15.1859 32.136 16.5033 30.4893H28.5248V122.215H25.3959C20.2909 117.439 16.1739 112.334 12.8804 106.735Z" fill="#00A2E5"/>
<path fill-rule="evenodd" clip-rule="evenodd" d="M11.563 104.265V37.8999C11.8923 37.0765 12.5511 36.2531 13.0451 35.4297V106.406C12.3864 105.747 11.8923 104.924 11.563 104.265Z" fill="#0587D6"/>
<path fill-rule="evenodd" clip-rule="evenodd" d="M28.3599 121.062V30.9835C28.3599 30.6542 28.6892 30.1602 29.1833 30.1602C29.5126 30.1602 30.0066 30.4895 30.0066 30.9835V121.062C30.0066 121.392 29.6773 121.886 29.1833 121.886C28.5245 121.886 28.3599 121.556 28.3599 121.062Z" fill="#0587D6"/>
<path fill-rule="evenodd" clip-rule="evenodd" d="M49.439 121.886V30.1602H56.5201V40.0408H64.9187V121.721C65.0834 121.886 49.439 121.886 49.439 121.886Z" fill="#00A2E5"/>
<path fill-rule="evenodd" clip-rule="evenodd" d="M48.1216 121.062V30.9835C48.1216 30.6542 48.4509 30.1602 48.945 30.1602C49.439 30.1602 49.7684 30.4895 49.7684 30.9835V121.062C49.7684 121.392 49.439 121.886 48.945 121.886C48.2863 121.886 48.1216 121.556 48.1216 121.062Z" fill="#0587D6"/>
<path fill-rule="evenodd" clip-rule="evenodd" d="M55.0381 40.5349V30.1602C55.0381 30.1602 55.3674 30.1602 55.8615 30.1602C56.1908 30.1602 56.6849 30.1602 56.6849 30.1602V40.6995C56.6849 40.6995 56.3555 40.6995 55.8615 40.6995C55.3674 40.6995 55.0381 40.6995 55.0381 40.5349Z" fill="#0587D6"/>
<path fill-rule="evenodd" clip-rule="evenodd" d="M65.0835 121.062V40.2052C65.0835 39.8759 65.4129 39.3818 65.9069 39.3818C66.2362 39.3818 66.7303 39.7112 66.7303 40.2052V121.227C66.7303 121.556 66.4009 122.05 65.9069 122.05C65.2482 121.885 65.0835 121.556 65.0835 121.062Z" fill="#0587D6"/>
<path fill-rule="evenodd" clip-rule="evenodd" d="M90.4438 121.886V44.3223H106.088V121.886C105.924 121.886 90.4438 121.886 90.4438 121.886Z" fill="#00A2E5"/>
<path fill-rule="evenodd" clip-rule="evenodd" d="M88.7974 121.062V45.1457C88.7974 44.8163 89.1267 44.3223 89.6208 44.3223C90.1148 44.3223 90.4441 44.6516 90.4441 45.1457V121.227C90.4441 121.556 90.1148 122.05 89.6208 122.05C89.1267 122.05 88.7974 121.556 88.7974 121.062Z" fill="#0587D6"/>
<path fill-rule="evenodd" clip-rule="evenodd" d="M105.759 121.062V45.1457C105.759 44.8163 106.088 44.3223 106.582 44.3223C106.912 44.3223 107.406 44.6516 107.406 45.1457V121.227C107.406 121.556 107.076 122.05 106.582 122.05C106.088 121.886 105.759 121.556 105.759 121.062Z" fill="#0587D6"/>
<path fill-rule="evenodd" clip-rule="evenodd" d="M23.7494 21.7612H58.0023V30.1598H16.3389C18.6444 27.1956 21.1145 24.3961 23.7494 21.7612Z" fill="white"/>
<path fill-rule="evenodd" clip-rule="evenodd" d="M10.41 40.2051H119.921V48.6037H6.78711C7.77518 45.6395 9.09259 42.8399 10.41 40.2051Z" fill="white"/>
<path fill-rule="evenodd" clip-rule="evenodd" d="M4.1526 58.4844H119.921V66.8829H3.16455C3.16455 64.0834 3.65857 61.2839 4.1526 58.4844Z" fill="white"/>
<path fill-rule="evenodd" clip-rule="evenodd" d="M3.16455 76.7632H131.119V85.1618H4.31729C3.82326 82.5269 3.32923 79.5627 3.16455 76.7632Z" fill="white"/>
<path fill-rule="evenodd" clip-rule="evenodd" d="M7.28174 95.043H131.284V103.442H11.234C9.58722 100.807 8.26981 98.0072 7.28174 95.043Z" fill="white"/>
<path fill-rule="evenodd" clip-rule="evenodd" d="M17.4917 113.487H131.119V121.885H25.2316C22.432 119.251 19.7972 116.451 17.4917 113.487Z" fill="white"/>
<path fill-rule="evenodd" clip-rule="evenodd" d="M17.4911 28.8424H56.5197V23.2434H22.2667C23.2548 22.2553 24.0781 21.4319 25.0662 20.4438H57.6724C58.4958 20.4438 59.1545 20.9379 59.1545 21.9259V30.1598C59.1545 30.9832 58.6605 31.6419 57.6724 31.6419H15.1855C16.0089 30.6539 16.6677 29.6658 17.4911 28.8424Z" fill="#0587D6"/>
<path fill-rule="evenodd" clip-rule="evenodd" d="M7.28118 47.1217H118.439V41.5227H9.58666C9.91602 40.5346 10.5747 39.7112 11.0688 38.7231H119.756C120.58 38.7231 121.238 39.2172 121.238 40.2052V48.6038C121.238 49.4272 120.744 50.0859 119.756 50.0859H6.12842C6.62245 49.0978 6.95183 48.1098 7.28118 47.1217Z" fill="#0587D6"/>
<path fill-rule="evenodd" clip-rule="evenodd" d="M3.16499 65.4005H118.439V59.8015H3.82369C3.98837 58.8134 4.15305 57.99 4.31773 57.002H120.086C120.91 57.002 121.568 57.496 121.568 58.4841V66.8826C121.568 67.706 121.074 68.3647 120.086 68.3647H3.16499C3.00031 67.212 3.16499 66.2239 3.16499 65.4005Z" fill="#0587D6"/>
<path fill-rule="evenodd" clip-rule="evenodd" d="M4.1526 83.845H129.802V78.0813H3.32921C3.32921 77.0932 3.16455 76.2698 3.16455 75.2817H131.284C132.107 75.2817 132.766 75.7758 132.766 76.7638V85.1624C132.766 85.9858 132.272 86.6445 131.284 86.6445H4.81133C4.48197 85.6564 4.31728 84.6684 4.1526 83.845Z" fill="#0587D6"/>
<path fill-rule="evenodd" clip-rule="evenodd" d="M10.41 102.124H129.801V96.5249H7.93985C7.61049 95.5368 7.11647 94.7134 6.78711 93.7253H131.119C131.942 93.7253 132.601 94.2194 132.601 95.2074V103.606C132.601 104.429 132.107 105.088 131.119 105.088H11.8921C11.2334 104.1 10.7394 103.112 10.41 102.124Z" fill="#0587D6"/>
<path fill-rule="evenodd" clip-rule="evenodd" d="M23.7494 120.403H129.802V114.804H18.6443C17.821 113.816 17.1623 112.993 16.3389 112.005H131.119C131.943 112.005 132.601 112.499 132.601 113.487V121.885C132.601 122.709 132.107 123.367 131.119 123.367H26.7135C25.7255 122.215 24.5728 121.391 23.7494 120.403Z" fill="#0587D6"/>
<path fill-rule="evenodd" clip-rule="evenodd" d="M115.805 57.1672V50.0861C115.805 49.2627 116.299 48.604 117.287 48.604C118.11 48.604 118.769 49.098 118.769 50.0861V57.1672C118.769 57.9906 118.275 58.6493 117.287 58.6493C116.299 58.4847 115.805 57.826 115.805 57.1672Z" fill="#0587D6"/>
<path fill-rule="evenodd" clip-rule="evenodd" d="M115.805 75.2815V68.2004C115.805 67.377 116.299 66.7183 117.287 66.7183C118.11 66.7183 118.769 67.2123 118.769 68.2004V75.2815C118.769 76.1049 118.275 76.7636 117.287 76.7636C116.299 76.7636 115.805 76.1049 115.805 75.2815Z" fill="#0587D6"/>
<path fill-rule="evenodd" clip-rule="evenodd" d="M127.002 93.7254V86.6442C127.002 85.8208 127.496 85.1621 128.485 85.1621C129.308 85.1621 129.967 85.6561 129.967 86.6442V93.7254C129.967 94.5487 129.473 95.2075 128.485 95.2075C127.496 95.0428 127.002 94.5487 127.002 93.7254Z" fill="#0587D6"/>
<path fill-rule="evenodd" clip-rule="evenodd" d="M127.002 112.005V104.924C127.002 104.1 127.496 103.441 128.485 103.441C129.308 103.441 129.967 103.935 129.967 104.924V112.005C129.967 112.828 129.473 113.487 128.485 113.487C127.496 113.487 127.002 112.663 127.002 112.005Z" fill="#0587D6"/>
<path d="M35.1122 129.461C15.8449 117.275 3 95.7017 3 71.0001C3.32936 38.8879 25.8902 11.0573 54.2148 3.81152" stroke="white" stroke-width="5.63445" stroke-miterlimit="79.8403" stroke-linecap="round" stroke-linejoin="round"/>
<path d="M72 140.165C33.7947 140.165 3 109.205 3 71.1647C3 33.1241 33.7947 2 72 2" stroke="#0587D6" stroke-width="2.81714" stroke-miterlimit="79.8403" stroke-linecap="round" stroke-linejoin="round"/>
<path d="M132.766 57.002H15.6802V86.644H132.766V57.002Z" fill="white"/>
<path d="M132.766 56.8379H15.6802V86.4799H132.766V56.8379Z" stroke="white" stroke-width="5.63445" stroke-miterlimit="79.8403" stroke-linecap="round" stroke-linejoin="round"/>
<path d="M132.766 56.8379H15.6802V86.4799H132.766V56.8379Z" stroke="#0587D6" stroke-width="2.81714" stroke-miterlimit="79.8403" stroke-linecap="round" stroke-linejoin="round"/>
<path d="M33.6294 77.2576C32.312 77.2576 31.1592 76.9282 30.5005 75.9401C29.6771 74.9521 29.3478 73.7993 29.1831 72.4819C29.1831 71.4938 29.3478 70.8351 29.5125 70.0117C29.6772 69.1884 30.0065 68.6943 30.6652 68.2003C30.9946 67.7062 31.6533 67.2122 32.312 66.8829C32.806 66.5535 33.4647 66.5535 34.1234 66.5535C34.7822 66.5535 35.4409 66.7182 35.9349 66.8829C36.4289 67.2122 37.0876 67.7062 37.417 68.2003C37.7464 68.6943 38.2404 69.353 38.5698 70.0117C38.7344 70.8351 38.8991 71.4938 38.8991 72.3172C38.8991 73.47 38.7344 74.458 38.4051 75.1167C38.0757 75.9401 37.417 76.4342 36.7583 76.7635C36.0996 77.0929 35.2762 77.2576 34.4528 77.2576H33.6294ZM33.7941 73.964H34.6175C35.4409 73.964 35.7702 73.7993 36.0996 73.47C36.4289 73.1406 36.5936 72.6466 36.5936 71.9879C36.5936 70.9998 36.4289 70.5058 35.7702 69.8471C35.4409 69.353 34.7822 69.0237 34.1234 69.0237C33.7941 69.0237 33.1354 69.1883 32.806 69.353C32.4767 69.5177 31.9826 70.1764 31.818 70.5058C31.6533 70.8351 31.4886 71.4938 31.4886 71.8232C31.4886 72.3172 31.6533 72.9759 31.9826 73.3053C32.4767 73.7993 33.1354 73.964 33.7941 73.964ZM45.6509 77.2576C44.3335 77.2576 43.1807 76.9282 42.6867 76.1048C41.8633 75.2814 41.6986 74.2934 41.6986 72.9759V72.1525C41.6986 71.9879 41.6986 71.8232 41.8633 71.6585C42.028 71.4938 42.1927 71.4938 42.3573 71.4938H43.6748C43.8394 71.4938 44.0041 71.4938 44.0041 71.6585C44.1688 71.8232 44.1688 71.8232 44.1688 72.1525V72.6466C44.1688 72.9759 44.3335 73.47 44.4981 73.6346C44.6628 73.7993 44.9922 73.7993 45.4862 73.7993H47.7917C48.6151 73.7993 49.1091 73.7993 49.4385 73.47C49.7678 73.3053 49.9325 72.9759 49.9325 72.3172C49.9325 72.1525 49.9325 71.9879 49.9325 71.8232C49.9325 71.6585 49.7678 71.4938 49.7678 70.9998L47.9564 66.0595C47.9564 65.8948 47.7917 65.5654 47.7917 65.2361C47.7917 65.0714 47.9564 64.9067 48.1211 64.9067L49.4385 64.4127C49.6032 64.4127 49.7678 64.248 49.9325 64.4127C50.0972 64.5774 50.0972 64.5774 50.2619 64.742L52.5674 70.6704C52.8967 71.4938 53.0614 72.1526 53.3908 72.4819C53.5554 72.8113 53.8848 73.3053 54.3788 73.3053C54.7082 73.47 55.0375 73.6346 55.3669 73.6346C55.5316 73.6346 55.6963 73.6346 55.8609 73.6346V75.7755C55.8609 76.2695 56.0256 76.9282 55.3669 76.9282C54.5435 76.9282 53.7201 76.4342 52.8967 76.1048C52.0733 75.7755 51.5793 75.1167 51.0853 74.2934C50.9206 75.1167 50.2619 75.6108 49.7678 76.1048C48.9444 76.4342 48.1211 76.9282 46.9683 76.9282L45.8156 77.0929L45.6509 77.2576ZM62.9421 77.2576C62.1187 77.2576 61.6246 77.0929 60.9659 76.9282C60.1425 76.7635 59.8132 76.1048 59.4838 75.2814C59.1545 76.1048 58.4958 76.5989 57.8371 76.7635C57.0137 76.9282 56.3549 77.0929 55.5316 77.0929C55.3669 77.0929 55.2022 76.9282 55.2022 76.7635V74.6227C55.2022 74.1287 55.3669 73.7993 56.0256 73.7993C57.0137 73.7993 57.5077 73.6346 57.8371 73.47C58.1664 73.1406 58.3311 72.4819 58.3311 71.8232V69.8471C58.3311 69.6824 58.3311 69.5177 58.4958 69.5177C58.6604 69.353 58.6604 69.353 58.8251 69.353H60.3072C60.6366 69.353 60.8013 69.5177 60.8013 69.8471V71.6585C60.8013 72.4819 60.9659 72.9759 61.2953 73.3053C61.6246 73.6347 62.2833 73.7993 62.9421 73.7993C63.6008 73.7993 64.2595 73.6347 64.5888 73.3053C64.7535 72.9759 64.9182 72.3172 64.9182 71.6585V69.8471C64.9182 69.6824 64.9182 69.5177 65.0829 69.353C65.0829 69.1883 65.2475 69.1884 65.4122 69.1884H66.8943C67.059 69.1884 67.2237 69.1883 67.2237 69.353C67.2237 69.5177 67.3884 69.6824 67.3884 69.8471V71.6585C67.3884 72.4819 67.553 72.9759 67.8824 73.3053C68.2118 73.6347 68.8705 73.7993 69.5292 73.7993C70.1879 73.7993 70.6819 73.6347 71.0113 73.3053C71.3406 72.9759 71.3406 72.3172 71.3406 71.8232C71.3406 71.6585 71.3406 71.4938 71.3406 71.3292C71.3406 71.1645 71.3406 70.9998 71.1759 70.8351L70.6819 69.0237C70.6819 68.859 70.6819 68.6943 70.6819 68.5296C70.6819 68.365 70.8466 68.365 71.0113 68.365L72.4934 68.0356C72.6581 68.0356 72.8227 68.0356 72.9874 68.0356C73.1521 68.0356 73.1521 68.2003 73.1521 68.365L73.4815 70.0117C73.4815 70.3411 73.6461 70.9998 73.6461 71.3292C73.6461 71.6585 73.6461 72.1526 73.6461 72.4819C73.6461 73.47 73.4815 74.2934 73.1521 75.1167C72.8228 75.9401 72.164 76.4342 71.67 76.7635C70.8466 77.0929 70.1879 77.2576 69.0352 77.2576C68.2118 77.2576 67.5531 77.0929 66.8943 76.9282C66.071 76.7635 65.7416 76.1048 65.4122 75.6108C65.2475 75.9401 65.0829 76.4342 64.5888 76.5989C64.2595 76.7635 63.7655 76.9282 63.4361 77.0929C63.4361 77.0929 63.2714 77.0929 63.1067 77.2576H62.9421ZM66.8943 63.2599C66.7297 63.4246 66.7297 63.4246 66.565 63.4246C66.4003 63.4246 66.4003 63.4246 66.2356 63.2599L65.2476 62.1072C65.0829 61.9425 65.0829 61.7778 65.2476 61.6132L66.2356 60.4604C66.4003 60.2957 66.565 60.2957 66.7297 60.4604L67.7177 61.6132C67.8824 61.7778 67.8824 61.9425 67.7177 62.4366L66.8943 63.2599ZM65.0829 66.5535C65.0829 66.7182 64.9182 66.7182 64.7535 66.7182C64.5888 66.7182 64.5889 66.7182 64.4242 66.5535L63.2714 65.4008C63.2714 65.2361 63.1067 65.2361 63.1067 65.0714C63.1067 64.9067 63.1068 64.9067 63.2714 64.742L64.4242 63.5893C64.5889 63.4246 64.7535 63.4246 65.2476 63.5893L66.4003 64.742C66.565 64.9067 66.565 64.9067 66.565 65.0714C66.565 65.2361 66.565 65.2361 66.4003 65.4008L65.0829 66.5535ZM69.0352 66.5535C68.8705 66.7182 68.8705 66.7182 68.7058 66.7182C68.5411 66.7182 68.5411 66.7182 68.3764 66.5535L67.2237 65.4008C67.2237 65.2361 67.059 65.2361 67.059 65.0714C67.059 64.9067 67.059 64.9067 67.2237 64.742L68.3764 63.5893C68.5411 63.4246 68.7058 63.4246 69.1998 63.5893L70.3526 64.742C70.5172 64.9067 70.5173 64.9067 70.5173 65.0714C70.5173 65.2361 70.5172 65.2361 70.3526 65.4008L69.0352 66.5535ZM83.8562 83.186C83.6915 83.186 83.3621 83.186 83.0328 83.0213C82.8681 82.8566 82.8681 82.6919 82.8681 82.1979V80.8805C82.8681 80.7158 82.8681 80.5511 83.0328 80.3864C83.1975 80.2218 83.3621 80.2218 83.8562 80.2218H85.6676C86.985 80.2218 88.1378 80.0571 88.7965 79.3984C89.4552 78.7397 90.1139 78.0809 90.4433 77.0929C90.7726 76.1048 90.7726 74.7874 90.7726 73.3053H93.0781C93.0781 75.6108 92.9134 77.4222 92.2547 78.7397C91.7607 80.2218 90.9373 81.3745 89.6199 81.8685C88.4671 82.6919 86.985 83.0213 85.1736 83.0213L84.5149 83.186H83.8562ZM90.9373 73.3053C90.9373 72.3172 90.6079 71.6585 89.9492 70.9998C89.4552 70.5058 88.7965 70.0117 88.1378 70.0117C87.8084 70.0117 87.1497 70.0117 86.985 70.1764C86.6557 70.3411 86.491 70.5058 86.1616 70.9998C85.997 71.3292 85.997 71.4938 85.997 71.9879C85.997 72.4819 86.1616 72.9759 86.491 73.1406C86.8203 73.3053 87.4791 73.47 87.9731 73.47C88.7965 73.47 89.2905 73.3053 90.1139 73.1406C90.6079 72.9759 91.2667 72.6466 91.4313 72.3172L91.596 74.7874C91.2667 75.1167 90.6079 75.7755 90.1139 75.9401C89.2905 76.1048 88.6318 76.2695 87.8084 76.2695C86.985 76.2695 86.1617 76.1048 85.5029 75.7755C85.0089 75.4461 84.3502 74.7874 84.1855 74.2934C83.8562 73.7993 83.6915 72.9759 83.6915 72.1525C83.6915 71.3292 83.8561 70.8351 84.0208 70.3411C84.1855 69.8471 84.5149 69.1883 85.0089 68.6943C85.3383 68.365 85.997 67.7063 86.491 67.5416C86.985 67.3769 87.8084 67.2122 88.6318 67.2122C89.6199 67.2122 90.4433 67.3769 91.2667 68.0356C92.0901 68.365 92.5841 69.1883 92.9134 70.1764C93.2428 71.1645 93.0781 72.4819 93.0781 73.47L90.9373 73.3053ZM94.0662 83.186C93.9015 83.186 93.7368 83.186 93.5721 83.0213C93.5721 82.8566 93.4075 82.8566 93.4075 82.5273V81.0451C93.4075 80.8805 93.4075 80.7158 93.5721 80.5511C93.7368 80.3864 93.9015 80.3864 94.0662 80.3864H94.8896C96.0423 80.3864 96.701 80.2218 97.5244 79.8924C98.3478 79.5631 98.6772 78.7397 98.8418 78.0809C99.1712 77.2576 99.1712 76.4342 99.1712 75.4461C99.1712 74.6227 99.1712 73.7993 99.0065 72.9759C98.8418 72.1525 98.6772 71.3292 98.5125 70.3411C98.5125 70.0117 98.5125 69.8471 98.5125 69.5177C98.5125 69.353 98.6772 69.353 99.0065 69.1884L100.324 68.859C100.489 68.859 100.653 68.859 100.818 68.859C100.983 69.0237 100.983 69.1883 101.147 69.6824C101.312 70.6704 101.477 71.4938 101.971 72.6466C102.135 73.7993 102.3 74.7874 102.3 75.6108C102.3 77.0929 102.135 78.4103 101.477 79.563C100.983 80.7158 100.159 81.7039 99.1712 82.3626C98.1831 83.186 96.8657 83.5153 95.2189 83.5153L94.0662 83.186ZM102.629 83.186C102.465 83.186 102.3 83.186 102.135 83.0213C101.971 82.8566 101.971 82.8566 101.971 82.5273V81.0451C101.971 80.8805 101.971 80.7158 102.135 80.5511C102.3 80.3864 102.465 80.3864 102.629 80.3864H103.453C104.606 80.3864 105.264 80.2218 106.088 79.8924C106.911 79.5631 107.24 78.7397 107.405 78.0809C107.57 77.2576 107.734 76.4342 107.734 75.4461C107.734 74.6227 107.57 73.7993 107.57 72.9759C107.405 72.1525 107.24 71.3292 107.076 70.3411C107.076 70.0117 107.076 69.8471 107.076 69.5177C107.076 69.353 107.24 69.353 107.405 69.1884L108.887 68.859C109.052 68.859 109.217 68.859 109.381 68.859C109.546 69.0237 109.546 69.1883 109.711 69.6824C109.875 70.6704 110.04 71.4938 110.534 72.6466C110.863 73.7993 110.699 74.7874 110.699 75.6108C110.699 77.0929 110.534 78.4103 109.875 79.563C109.381 80.7158 108.558 81.7039 107.57 82.3626C106.417 83.186 105.264 83.5153 103.618 83.5153L102.629 83.186ZM108.064 66.7182C108.064 66.8829 107.899 66.8829 107.734 66.8829C107.57 66.8829 107.57 66.8829 107.405 66.7182L106.252 65.5654C106.252 65.4008 106.088 65.4008 106.088 65.2361C106.088 65.0714 106.088 65.0714 106.252 64.9067L107.405 63.754C107.405 63.754 107.57 63.5893 107.734 63.5893C107.899 63.5893 107.899 63.5893 108.064 63.754L109.217 64.9067C109.381 65.0714 109.381 65.4008 109.217 65.7301L108.064 66.7182ZM111.193 83.186C111.028 83.186 110.863 83.186 110.699 83.0213C110.534 82.8566 110.534 82.8566 110.534 82.5273V81.0451C110.534 80.8805 110.534 80.7158 110.699 80.5511C110.863 80.3864 111.028 80.3864 111.193 80.3864H112.016C113.169 80.3864 114.157 80.2218 114.651 79.8924C115.474 79.5631 115.804 78.7397 115.968 78.0809C116.133 77.2576 116.298 76.4342 116.298 75.4461C116.298 74.6227 116.298 73.7993 116.133 72.9759C115.968 72.1525 115.804 71.3292 115.639 70.3411C115.639 70.0117 115.639 69.8471 115.639 69.5177C115.639 69.353 115.804 69.353 116.133 69.1884L117.45 68.859C117.615 68.859 117.78 68.859 117.944 68.859C118.109 69.0237 118.109 69.1883 118.274 69.6824C118.438 70.6704 118.603 71.4938 119.097 72.6466C119.262 73.7993 119.262 74.7874 119.262 75.6108C119.262 77.0929 119.097 78.4103 118.439 79.563C117.78 80.7158 117.121 81.7039 116.133 82.3626C115.145 83.186 113.828 83.5153 112.181 83.5153L111.193 83.186Z" fill="#0587D6"/>
<path d="M75.2936 36.747C74.3055 36.747 73.4821 36.5823 72.6587 36.2529C71.8354 35.9236 71.3413 35.1002 71.1766 34.4415C70.8473 33.6181 70.6826 32.9594 70.6826 31.9713C70.6826 31.642 70.6826 30.9833 70.8473 30.6539C71.012 30.3245 71.012 29.6658 71.1766 29.3365C71.1766 29.1718 71.3413 29.0071 71.3413 29.0071C71.3413 29.0071 71.506 29.0071 71.6707 29.0071L72.4941 29.1718C72.6587 29.1718 72.8234 29.3365 72.8234 29.3365C72.8234 29.3365 72.8234 29.5011 72.8234 29.6658C72.6587 29.9952 72.6587 30.4892 72.4941 30.8186C72.4941 31.1479 72.3294 31.3126 72.3294 31.8066C72.3294 32.3007 72.4941 32.9594 72.6587 33.2887C72.8234 33.6181 73.1528 34.1121 73.6468 34.4415C73.9762 34.6062 74.6349 34.7708 75.2936 34.7708H75.623C76.117 34.7708 76.7757 34.6062 77.2697 34.4415C77.7638 34.2768 78.2578 33.6181 78.4225 33.1241C78.5871 32.63 78.7518 31.9713 78.7518 30.9832V20.2792C78.7518 20.1145 78.7518 20.1145 78.9165 19.9498C78.9165 19.9498 79.0812 19.7852 79.2459 19.7852H80.3986C80.5633 19.7852 80.5633 19.7852 80.728 19.9498C80.728 19.9498 80.8926 20.1145 80.8926 20.2792V28.8424C80.8926 29.3365 80.8926 29.8305 81.0573 29.9952C81.222 30.1599 81.3867 30.3245 81.8807 30.4892C82.21 30.4892 82.7041 30.6539 83.0335 30.6539C83.1981 30.6539 83.1981 30.6539 83.1981 30.8186V32.3007C83.1981 32.63 83.0334 32.7947 82.7041 32.7947C82.21 32.7947 81.716 32.7947 81.3867 32.63C81.0573 32.4653 80.5633 32.3007 80.3986 32.136C80.2339 33.1241 80.0692 33.7828 79.4105 34.6062C79.0812 35.4295 78.2578 35.7589 77.7637 36.0883C76.9404 36.4176 76.2816 36.5823 75.2936 36.747ZM82.7041 32.7947C82.5394 32.7947 82.5394 32.63 82.5394 32.4654L82.7041 31.4773C82.7041 31.1479 82.8688 30.6539 83.1981 30.6539H83.5275C84.0215 30.6539 84.3509 30.6539 84.5155 30.4892C84.6802 30.3245 84.8449 29.6658 84.8449 29.0071V27.3603C84.8449 27.031 85.0096 27.031 85.1742 27.031H86.327C86.6564 27.031 86.6564 27.1957 86.6564 27.3603V29.0071C86.6564 29.8305 86.821 30.1599 86.9857 30.4892C87.1504 30.8186 87.9738 30.6539 88.4678 30.6539H88.7972C88.9619 30.6539 88.7972 30.8186 88.7972 30.9832V32.4654C88.7972 32.7947 88.7972 32.7947 88.4678 32.7947C87.9738 32.7947 87.1504 32.7947 86.6564 32.63C86.1623 32.4653 85.6683 32.136 85.3389 31.4773C85.1743 31.9713 84.8449 32.4653 84.1862 32.63C83.6922 32.9594 83.3628 32.7947 82.7041 32.7947ZM84.6802 25.2195L84.5155 25.3842C84.3509 25.3842 84.3509 25.3842 84.3509 25.2195L83.5275 24.3961L83.3628 24.2315C83.3628 24.2315 83.3628 24.0668 83.5275 24.0668L84.3509 23.2434L84.5155 23.0787C84.5155 23.0787 84.6802 23.0787 84.6802 23.2434L85.5036 24.0668L85.6683 24.2315C85.6683 24.3961 85.6683 24.3961 85.5036 24.3961L84.6802 25.2195ZM87.3151 25.2195L87.1504 25.3842C86.9857 25.3842 86.9857 25.3842 86.9857 25.2195L86.1623 24.3961L85.9976 24.2315C85.9976 24.2315 85.9976 24.0668 86.1623 24.0668L86.9857 23.2434L87.1504 23.0787C87.1504 23.0787 87.3151 23.0787 87.3151 23.2434L88.1385 24.0668L88.3031 24.2315C88.3031 24.2315 88.3031 24.3961 88.1385 24.3961L87.3151 25.2195ZM96.7017 33.2887C96.2077 33.2887 95.549 33.2887 94.8903 33.1241C94.3962 32.9594 93.5728 32.7947 93.0788 32.3007C92.7494 32.4654 92.2554 32.63 91.926 32.7947C91.5967 32.9594 91.1027 32.9594 90.6086 32.9594C90.1146 32.9594 89.2912 32.9594 88.4678 32.9594C88.3031 32.9594 88.3031 32.9594 88.3031 32.7947V31.3126C88.3031 30.9832 88.4678 30.8186 88.7972 30.8186C89.2912 30.8186 89.9499 30.8186 90.2793 30.8186C90.6086 30.8186 91.1027 30.8186 91.432 30.6539C91.2673 30.4892 91.1026 30.3245 90.938 30.1599C90.7733 29.9952 90.6086 29.6658 90.444 29.3365C90.2793 29.0071 90.2793 28.8424 90.2793 28.3484C90.2793 27.8544 90.4439 27.1957 90.6086 26.8663C90.938 26.5369 91.432 26.0429 91.7614 25.8782C92.2554 25.7136 92.9141 25.5489 93.4081 25.5489C93.5728 25.5489 93.7375 25.5489 93.7375 25.5489C93.9022 25.5489 93.9022 25.5489 94.0669 25.7136V26.2076L92.4201 25.0548C92.2554 25.0548 92.2554 24.8902 92.2554 24.8902C92.2554 24.7255 92.2554 24.7255 92.2554 24.7255L93.0788 23.7374C93.2435 23.5727 93.2435 23.5727 93.4081 23.5727C93.5728 23.5727 93.5728 23.5727 93.7375 23.7374L97.8545 26.7016C98.6778 27.1957 99.1719 27.8544 99.5012 28.1837C99.8306 28.6778 99.9953 29.3365 99.9953 29.8305C99.9953 30.3245 99.8306 31.1479 99.6659 31.4773C99.3365 31.9713 98.8425 32.4654 98.3485 32.7947C98.0191 33.1241 97.3604 33.2887 96.7017 33.2887ZM93.2435 29.9952C93.5728 29.8305 94.0669 29.5012 94.3962 29.0071C94.5609 28.6778 94.7256 28.5131 94.7256 28.019C94.7256 27.525 94.5609 27.1957 94.3962 27.031C94.2315 26.8663 93.9022 26.7016 93.4081 26.7016C93.0788 26.7016 92.5848 26.8663 92.4201 27.031C92.0907 27.1957 92.0907 27.525 92.0907 28.019C92.0907 28.5131 92.0907 28.8424 92.2554 29.0071C92.5848 29.5012 92.7494 29.8305 93.2435 29.9952ZM96.7017 31.1479C97.1957 31.1479 97.5251 30.9832 97.8545 30.8186C98.1838 30.6539 98.1838 30.3245 98.1838 29.8305C98.1838 29.3365 98.0191 29.3365 97.8545 28.8424C97.6898 28.6778 97.3604 28.3484 96.8664 28.019L95.0549 26.7016L95.3843 26.537C95.549 26.8663 95.7136 27.031 95.8783 27.3603C96.043 27.525 96.043 27.8544 96.043 28.1837C96.043 28.6778 95.8783 29.1718 95.7136 29.5012C95.549 29.8305 95.2196 30.3245 94.5609 30.6539C94.7256 30.8186 94.8902 30.8186 95.0549 30.8186C95.2196 30.8186 95.3843 30.9832 95.549 30.9832C96.2077 31.1479 96.537 31.1479 96.7017 31.1479Z" fill="#0587D6"/>
</svg>
