<svg width="150" height="150" viewBox="0 0 150 150" fill="none" xmlns="http://www.w3.org/2000/svg">
<path d="M69.9519 138.003C107.419 138.003 137.791 107.558 137.791 70.0015C137.791 32.4453 107.419 2 69.9519 2C32.4851 2 2.1123 32.4453 2.1123 70.0015C2.1123 107.558 32.4851 138.003 69.9519 138.003Z" stroke="#0587D6" stroke-width="2.76977" stroke-miterlimit="79.8403" stroke-linecap="round" stroke-linejoin="round"/>
<path d="M81.2857 93.8023C77.7237 93.8023 73.0284 94.9357 70.7617 96.7167C68.0092 98.9834 63.4758 93.8023 59.7519 93.8023C59.4281 93.8023 57.9709 93.8023 56.6757 92.507C55.8661 91.6975 55.3804 90.5641 55.3804 89.4308V62.3921H85.4953V89.5927C85.6572 91.8594 83.5524 93.8023 81.2857 93.8023Z" fill="white" stroke="white" stroke-width="1.61908" stroke-miterlimit="10"/>
<path d="M70.4382 129.422C70.1144 129.26 69.9525 128.937 69.6287 128.775C66.2286 126.832 65.581 125.698 66.2286 121.813C66.8762 118.574 67.6858 115.336 68.4953 112.098C68.6572 111.289 68.8191 110.317 68.8191 109.346C66.5524 111.289 65.419 113.879 64.2857 116.632C63.1523 119.384 62.5047 122.136 62.3428 125.213C60.3999 124.565 58.9427 123.756 57.9713 121.975C57.3236 120.841 57.6474 119.708 57.9713 118.574C59.5903 113.879 62.6666 110.317 67.2001 107.727C67.362 107.565 67.6858 107.565 67.8477 107.241C68.0096 107.079 68.0096 106.917 68.0096 106.755C68.0096 106.593 67.6858 106.431 67.5238 106.431C67.2 106.431 66.8762 106.431 66.5524 106.593C60.238 109.184 55.7045 113.555 53.5997 120.194C53.4378 120.679 53.2759 120.841 52.7902 120.679C51.333 120.194 50.1997 119.384 49.2282 117.927C48.5806 116.793 48.7425 115.66 49.3901 114.527C50.3616 112.908 51.8188 111.451 53.2759 110.317C56.9998 107.565 61.2094 105.622 65.7428 104.327C66.8762 104.003 66.8762 104.003 66.3905 103.031C65.4191 100.603 64.1238 98.3359 61.8571 96.7169C60.3999 95.5835 58.9427 95.2597 57.1617 95.5835C55.3807 96.0692 54.2474 97.6883 54.4093 99.6312C54.4093 100.279 54.5712 100.765 54.7331 101.412C55.0569 102.707 54.895 102.707 53.5997 103.031C51.0092 103.517 48.4187 103.841 45.8281 104.488C44.371 104.812 43.0757 105.622 41.9424 106.108C43.0757 107.403 44.0472 108.536 45.1805 109.67C45.8281 110.317 45.8282 110.803 45.3424 111.451C44.8567 112.098 44.0471 112.26 43.3995 111.612C42.4281 110.803 41.2947 109.831 40.3233 108.86C39.8375 108.536 39.6756 108.374 39.028 108.698C36.5993 109.831 33.685 108.698 32.7136 106.269C32.2278 105.136 32.3897 104.003 32.8755 103.031C33.0374 102.546 33.0374 102.384 32.7136 102.06C28.6658 98.3359 24.7801 94.4501 20.7323 90.7263C20.4085 90.4024 20.0847 90.4024 19.599 90.5643C18.4656 91.212 17.818 91.0501 17.0085 90.2405C16.8466 90.0786 16.3608 89.9167 16.037 90.0786C13.6084 90.8882 10.8559 89.431 10.0464 86.6785C10.8559 86.6785 11.6655 86.6785 12.475 86.6785C12.1512 85.7071 11.8274 84.8975 11.5036 83.9261C10.8559 81.8213 11.9893 80.526 14.256 80.6879C15.2275 80.8498 16.1989 81.1737 17.1703 81.3356C17.1703 80.526 17.1703 79.8784 17.1703 79.0688C19.599 79.2308 21.5419 81.8213 21.0562 84.4118C20.8943 84.8976 20.8942 85.3833 21.38 85.7071C22.1895 86.3547 22.1895 87.0024 22.0276 87.9738C22.0276 88.2976 22.1895 88.7833 22.3514 88.9453C26.3991 92.8311 30.2849 96.5549 34.3326 100.279C34.6565 100.603 35.1422 100.765 35.6279 100.765C37.247 100.603 38.7042 100.926 39.9994 101.898C40.1613 102.06 40.4852 102.222 40.809 102.222C43.8852 102.222 46.9615 101.898 49.7139 100.603C49.8758 100.603 50.0378 100.441 50.1997 100.279C50.0378 99.955 49.8758 99.6312 49.7139 99.3074C48.2568 97.0407 47.1234 94.6121 46.6377 91.8596C45.99 87.1643 49.2282 83.7642 53.7616 83.4404C54.2474 83.4404 54.7331 83.4404 55.2188 83.4404C55.2188 83.7642 55.2188 84.088 55.2188 84.4118C55.2188 86.3547 55.2188 88.4595 55.2188 90.4024C55.2188 92.6691 56.676 94.2882 58.9427 94.612C60.3999 94.774 61.857 94.774 63.3142 94.612C65.9048 94.4501 68.0096 95.4216 69.4668 97.5264C69.9525 98.0121 70.1144 98.0121 70.6001 97.5264C72.0573 95.5835 74.1621 94.6121 76.5907 94.774C78.0479 94.774 79.5051 94.774 80.9623 94.774C83.3909 94.6121 84.8481 92.993 85.01 90.5643C85.01 88.4595 85.01 86.5166 85.01 84.4118C85.01 83.7642 85.1719 83.4404 85.8195 83.6023C86.9529 83.7642 87.9243 83.9261 89.0577 84.2499C92.7816 85.5452 94.0768 89.2691 93.5911 92.6692C93.2673 95.0978 91.972 97.3645 90.6768 99.4693C89.8672 100.603 89.8672 100.765 91.3244 101.25C93.5911 102.222 96.0197 102.384 98.4483 102.546C98.7722 102.546 99.096 102.06 99.2579 101.736C99.7436 100.279 100.553 99.1455 101.848 98.3359C102.334 98.0121 102.496 98.0121 102.982 98.3359C103.953 99.1455 104.925 99.7931 105.896 100.603C106.382 101.088 106.868 101.088 107.353 100.603C108.325 99.7931 109.296 99.1455 110.106 98.3359C110.591 97.8502 110.915 98.0121 111.401 98.3359C113.668 100.279 114.801 102.546 114.153 105.622C113.506 108.536 110.915 110.641 108.001 111.127C105.248 111.612 102.658 110.803 100.877 108.698C99.096 106.755 96.9912 105.46 94.5626 104.974C92.1339 104.327 89.5434 104.003 87.1148 103.679C86.1433 103.517 85.9814 103.355 86.1433 102.222C86.3052 101.25 86.4671 100.279 86.4671 99.4693C85.9814 96.5549 83.0671 95.2597 80.1527 96.7169C78.8575 97.3645 77.7241 98.4979 76.7526 99.6312C75.7812 100.926 75.1336 102.546 74.324 104.003C74.0002 104.65 74.4859 104.812 74.9716 104.974C77.5622 105.946 79.9908 106.755 82.4194 107.889C85.3338 109.184 88.0862 111.127 90.3529 113.717C90.5148 113.879 90.5149 113.879 90.6768 114.041C93.1054 116.955 91.8101 120.517 88.0862 121.489C87.4386 121.651 87.4386 121.327 87.2767 120.841C86.3052 117.603 84.5242 114.689 82.0956 112.26C79.8289 109.993 77.2384 108.212 74.1621 107.241C73.8383 107.079 73.1906 107.241 73.0287 107.403C72.7049 107.889 73.1907 108.212 73.6764 108.536C78.2098 110.965 81.448 114.527 83.0671 119.546C83.8766 121.651 83.3909 123.108 81.6099 124.565C80.9623 125.051 80.3146 125.537 79.5051 125.86C78.6955 126.346 78.5336 126.184 78.5336 125.213C78.3717 122.298 77.7241 119.546 76.4288 116.955C75.4574 115.013 74.4859 113.232 73.3526 111.451C73.0287 110.965 72.543 110.641 72.2192 110.317C72.0573 110.317 72.0573 110.479 71.8954 110.479C72.0573 111.289 72.0573 112.098 72.2192 112.746C73.0287 115.984 73.6764 119.06 74.4859 122.298C74.6478 122.946 74.6478 123.594 74.8097 124.241C75.1335 126.184 74.324 127.641 72.8669 128.775C72.0573 129.422 72.543 129.099 71.5716 129.584C69.7906 129.584 70.6001 129.422 70.4382 129.422Z" fill="white" stroke="white" stroke-width="6.47633" stroke-miterlimit="10"/>
<path d="M6.64568 40.8576C6.80759 40.0481 6.80761 39.5623 6.96952 38.9147C6.96952 38.5909 7.13145 38.429 7.29336 38.1052C7.61717 38.2671 7.94099 38.2671 8.1029 38.5909C10.5315 40.6957 12.7982 42.8005 15.2269 44.7434C19.4365 47.6577 23.9699 49.9245 28.9891 51.0578C29.3129 51.2197 29.6367 51.2197 29.9605 51.2197C30.6082 49.9245 30.4462 49.2768 29.3129 48.4673C26.5604 46.6863 23.6461 45.0672 21.0556 43.2862C17.6555 40.8576 14.5792 38.1052 12.9601 34.0574C11.0172 29.3621 11.503 24.9906 15.0649 20.9429C15.2268 21.2667 15.5507 21.4286 15.7126 21.7524C19.1126 26.9335 22.5127 31.9526 26.5604 36.648C31.5796 42.4767 36.5987 48.1435 43.0751 52.3531C43.5608 52.6769 44.0465 53.0007 43.3989 53.8103C41.1322 56.077 40.3226 58.9913 41.6179 62.0676C42.9132 65.3058 45.5037 66.9248 48.9038 67.2487C51.0086 67.5725 53.1134 67.2487 55.2182 66.7629C55.8658 66.601 56.0277 66.7629 56.0277 67.4106C56.0277 68.5439 56.0277 69.6773 56.0277 70.8106C56.0277 73.4012 56.0277 75.9917 56.0277 78.5822C56.0277 78.7442 56.0277 78.9061 56.0277 79.2299C55.7039 78.7441 55.542 78.5822 55.3801 78.2584C53.9229 75.3441 51.3324 74.0488 48.2561 73.5631C46.6371 73.2393 46.637 73.2393 46.3132 74.8583C45.8275 77.4489 45.018 80.0394 43.8846 82.3061C42.5893 84.7348 40.6465 86.3538 37.894 86.8396C35.9511 87.1634 34.1701 86.6777 32.551 85.2205C33.0367 84.8967 33.3606 84.5729 33.8463 84.249C37.0845 82.1442 39.675 79.5537 41.456 76.1536C41.9417 75.3441 42.1036 74.3726 42.4274 73.4012C42.5893 72.7535 42.4274 72.5916 41.7798 72.2678C41.2941 72.1059 40.8084 71.7821 40.4846 72.4297C39.0274 74.6964 37.4083 76.6393 35.4654 78.4203C33.3606 80.2013 31.0939 81.4966 28.3414 81.6585C25.7509 81.6585 23.6461 80.8489 22.027 78.4203C22.3508 78.2584 22.6746 78.0965 22.9984 78.0965C27.5319 77.1251 31.7415 75.506 35.1416 72.1059C35.7892 71.6202 36.2749 70.8106 36.7606 70.3249C37.0845 69.8392 37.2464 69.5154 36.7606 68.8677C36.2749 68.382 35.7892 68.382 35.1416 68.7058C33.1987 69.8392 31.4177 70.9725 29.4748 71.944C26.3985 73.5631 23.3223 74.6964 19.7603 74.2107C18.465 74.0488 17.1698 73.725 16.0364 73.0774C14.0935 72.2678 13.284 70.4868 12.9601 68.5439C12.7982 68.0582 13.122 67.8963 13.6078 67.8963C14.4173 67.8963 15.2269 67.8963 16.0364 67.8963C21.5413 67.8963 27.0462 66.9248 32.0653 64.6581C33.0368 64.1724 33.1987 64.0105 32.551 63.039C32.2272 62.5533 31.9034 62.5533 31.4177 62.5533C28.1795 63.039 25.1033 63.6867 21.8651 64.1724C19.1127 64.4962 16.5221 64.6581 13.7697 63.8486C9.88389 62.7152 7.61717 59.9628 7.29336 55.9151C7.29336 55.4294 7.29336 54.9436 7.29336 54.296C7.61717 54.4579 7.94099 54.4579 8.1029 54.6198C15.065 57.6961 22.3508 58.6675 29.7986 58.0199C30.1224 58.0199 30.7701 58.0199 30.6082 57.3722C30.4462 56.8865 30.7701 56.077 29.7986 55.9151C26.8843 55.4294 23.9699 55.1055 21.2174 54.6198C17.9793 53.9722 14.7411 53.1626 11.8268 51.5435C8.91242 49.9245 6.96954 47.3339 6.48382 43.9339C6.32191 44.0958 6.64568 40.0481 6.64568 40.21" fill="white"/>
<path d="M6.64568 40.8576C6.80759 40.0481 6.80761 39.5623 6.96952 38.9147C6.96952 38.5909 7.13145 38.429 7.29336 38.1052C7.61717 38.2671 7.94099 38.2671 8.1029 38.5909C10.5315 40.6957 12.7982 42.8005 15.2269 44.7434C19.4365 47.6577 23.9699 49.9245 28.9891 51.0578C29.3129 51.2197 29.6367 51.2197 29.9605 51.2197C30.6082 49.9245 30.4462 49.2768 29.3129 48.4673C26.5604 46.6863 23.6461 45.0672 21.0556 43.2862C17.6555 40.8576 14.5792 38.1052 12.9601 34.0574C11.0172 29.3621 11.503 24.9906 15.0649 20.9429C15.2268 21.2667 15.5507 21.4286 15.7126 21.7524C19.1126 26.9335 22.5127 31.9526 26.5604 36.648C31.5796 42.4767 36.5987 48.1435 43.0751 52.3531C43.5608 52.6769 44.0465 53.0007 43.3989 53.8103C41.1322 56.077 40.3226 58.9913 41.6179 62.0676C42.9132 65.3058 45.5037 66.9248 48.9038 67.2487C51.0086 67.5725 53.1134 67.2487 55.2182 66.7629C55.8658 66.601 56.0277 66.7629 56.0277 67.4106C56.0277 68.5439 56.0277 69.6773 56.0277 70.8106C56.0277 73.4012 56.0277 75.9917 56.0277 78.5822C56.0277 78.7442 56.0277 78.9061 56.0277 79.2299C55.7039 78.7441 55.542 78.5822 55.3801 78.2584C53.9229 75.3441 51.3324 74.0488 48.2561 73.5631C46.6371 73.2393 46.637 73.2393 46.3132 74.8583C45.8275 77.4489 45.018 80.0394 43.8846 82.3061C42.5893 84.7348 40.6465 86.3538 37.894 86.8396C35.9511 87.1634 34.1701 86.6777 32.551 85.2205C33.0367 84.8967 33.3606 84.5729 33.8463 84.249C37.0845 82.1442 39.675 79.5537 41.456 76.1536C41.9417 75.3441 42.1036 74.3726 42.4274 73.4012C42.5893 72.7535 42.4274 72.5916 41.7798 72.2678C41.2941 72.1059 40.8084 71.7821 40.4846 72.4297C39.0274 74.6964 37.4083 76.6393 35.4654 78.4203C33.3606 80.2013 31.0939 81.4966 28.3414 81.6585C25.7509 81.6585 23.6461 80.849 22.027 78.4203C22.3508 78.2584 22.6746 78.0965 22.9984 78.0965C27.5319 77.1251 31.7415 75.506 35.1416 72.1059C35.7892 71.6202 36.2749 70.8106 36.7606 70.3249C37.0845 69.8392 37.2464 69.5154 36.7606 68.8677C36.2749 68.382 35.7892 68.382 35.1416 68.7058C33.1987 69.8392 31.4177 70.9725 29.4748 71.944C26.3985 73.5631 23.3223 74.6964 19.7603 74.2107C18.465 74.0488 17.1698 73.725 16.0364 73.0774C14.0935 72.2678 13.284 70.4868 12.9601 68.5439C12.7982 68.0582 13.122 67.8963 13.6078 67.8963C14.4173 67.8963 15.2269 67.8963 16.0364 67.8963C21.5413 67.8963 27.0462 66.9248 32.0653 64.6581C33.0368 64.1724 33.1987 64.0105 32.551 63.039C32.2272 62.5533 31.9034 62.5533 31.4177 62.5533C28.1795 63.039 25.1033 63.6867 21.8651 64.1724C19.1127 64.4962 16.5221 64.6581 13.7697 63.8486C9.88389 62.7152 7.61717 59.9628 7.29336 55.9151C7.29336 55.4294 7.29336 54.9436 7.29336 54.296C7.61717 54.4579 7.94099 54.4579 8.1029 54.6198C15.065 57.6961 22.3508 58.6675 29.7986 58.0199C30.1224 58.0199 30.7701 58.0199 30.6081 57.3722C30.4462 56.8865 30.7701 56.077 29.7986 55.9151C26.8843 55.4294 23.9699 55.1055 21.2174 54.6198C17.9793 53.9722 14.7411 53.1626 11.8268 51.5435C8.91242 49.9245 6.96954 47.3339 6.48382 43.9339C6.32191 44.0958 6.64568 40.0481 6.64568 40.21" stroke="white" stroke-width="6.47633" stroke-miterlimit="10"/>
<path d="M111.4 51.2207C119.657 49.2778 126.619 45.2301 132.61 39.2395C132.772 39.0776 132.934 38.9157 133.096 38.5919C133.905 37.7823 134.067 37.7823 134.391 38.9157C136.01 43.7729 133.905 49.1159 129.372 51.5445C126.134 53.3255 122.733 54.297 119.01 54.7827C116.581 55.1065 114.314 55.5922 111.886 55.9161C111.4 56.078 110.752 55.9161 110.59 56.7256C110.428 57.697 110.428 58.0209 111.562 58.0209C119.01 58.6685 126.133 57.697 132.934 54.7827C133.257 54.6208 133.419 54.6208 133.905 54.297C133.905 54.9446 133.905 55.4303 133.905 55.9161C133.743 59.8019 131.638 62.5543 127.915 63.8496C125.972 64.4972 123.867 64.6591 121.762 64.4972C117.714 64.3353 113.667 63.6876 109.781 62.7162C108.809 62.5543 108.647 62.8781 108.486 63.5257C108.162 64.3353 108.647 64.4972 109.133 64.6591C112.857 66.2782 116.743 67.4115 120.791 67.7354C122.895 67.8973 125.162 67.8973 127.429 68.0592C127.753 68.0592 128.076 68.0592 128.4 68.2211C128.238 71.4593 126.457 73.5641 123.057 74.2117C120.143 74.8593 117.229 74.5355 114.476 73.2402C111.724 71.945 108.971 70.3259 106.381 68.8687C105.733 68.5449 105.247 68.383 104.762 69.0306C104.114 69.6783 104.6 70.164 104.924 70.6497C106.705 73.2402 109.133 75.0212 112.047 76.1546C114.152 77.126 116.581 77.6118 118.686 78.4213C118.848 78.4213 119.171 78.5832 119.495 78.7451C118.362 80.688 116.743 81.6595 114.638 81.8214C112.047 82.1452 109.619 81.3357 107.514 79.7166C104.924 77.9356 102.981 75.507 101.362 73.0783C100.876 72.2688 99.7425 72.2688 99.2567 72.9164C99.0948 73.0783 99.0948 73.4022 99.2567 73.726C100.228 77.4499 102.657 80.5261 105.571 82.7928C106.381 83.4405 107.352 84.0881 108.324 84.8976C108.486 85.0595 108.647 85.2215 108.971 85.3834C107.352 87.1644 104.438 87.6501 102.009 86.5167C99.9044 85.5453 98.4472 84.0881 97.6376 81.8214C96.6662 79.3928 96.0186 76.9641 95.3709 74.5355C95.209 73.726 94.8852 73.5641 94.0756 73.5641C90.6756 74.0498 87.9231 75.1831 86.3041 78.4213C86.3041 78.5832 86.1421 78.7451 85.9802 78.907C85.9802 78.7451 85.8184 78.5832 85.8184 78.4213C85.8184 74.6974 85.8184 70.9735 85.8184 67.4115C85.8184 66.602 86.1421 66.602 86.7898 66.7639C89.2184 67.4115 91.647 67.5734 94.0756 67.0877C99.5805 66.1163 103.143 59.1542 98.771 54.1351C98.4472 53.8112 98.2853 53.4874 97.9615 53.0017C109.943 44.5825 118.686 33.2489 126.619 20.9438C128.562 22.7248 129.695 24.8296 129.857 27.4202C130.343 32.2774 128.562 36.1632 125.162 39.4014C121.438 42.9634 117.067 45.7158 112.533 48.3064C110.914 49.1159 110.752 49.9254 111.4 51.2207Z" fill="white" stroke="white" stroke-width="6.47633" stroke-miterlimit="10"/>
<path d="M80.1523 37.2959C78.2094 36.1625 76.5903 34.8672 75.6189 33.0863C75.295 32.4386 75.1331 31.791 74.8093 30.9814C75.295 30.9814 75.6189 30.9814 75.7808 30.9814C77.7237 31.3053 79.6666 31.6291 81.6095 31.791C85.3334 31.9529 89.0573 31.791 92.7811 32.1148C94.5621 32.2767 96.3431 32.6005 98.1241 33.0863C101.2 34.0577 102.01 37.9435 99.9051 40.3721C99.7432 40.0483 99.5813 39.8864 99.4194 39.5626C98.6099 38.4292 97.4765 38.1054 96.1812 38.1054C90.5144 37.7816 86.6286 40.6959 83.7143 45.0675C82.2571 47.3342 81.1238 49.9247 80.9619 52.6772C80.638 56.0772 81.4476 59.1535 84.0381 61.4202C84.0381 61.4202 84.2 61.5821 84.2 61.744C75.2951 61.744 66.552 61.744 57.4851 61.744C57.9709 61.2583 58.4566 60.9345 58.7804 60.4488C60.7233 58.344 61.3709 55.5915 61.0471 52.8391C60.2376 46.2008 56.9994 41.5055 50.8469 38.753C49.0659 37.9435 47.2849 37.9435 45.342 38.1054C44.0468 38.2673 42.9134 38.753 42.2657 39.8864C42.2657 40.0483 42.1038 40.0483 41.9419 40.2102H41.78C39.5133 36.8101 40.9705 33.4101 44.5325 32.7624C46.7992 32.2767 49.0659 32.1148 51.3326 31.9529C53.9231 31.791 56.6756 31.791 59.2661 31.791C61.6947 31.791 63.9615 31.6291 66.2282 30.9814C66.3901 30.9814 66.552 30.9814 66.7139 30.9814C66.0663 34.0577 63.9615 35.8387 61.5329 37.4578C67.1996 43.1246 69.7902 50.0866 70.7616 57.8582C71.895 49.9247 74.3236 42.8008 80.1523 37.2959Z" fill="white" stroke="white" stroke-width="6.47633" stroke-miterlimit="10"/>
<path d="M84.039 27.0957C83.7152 25.9623 83.2294 24.829 83.0675 23.6956C82.7437 21.9146 84.039 20.4575 85.82 20.4575C86.1438 20.4575 86.6295 20.6194 86.9533 20.9432C87.7629 21.7527 88.7343 22.5623 89.5439 23.3718C90.3534 22.5623 91.1629 21.9146 91.9725 21.267C93.1059 20.2956 94.563 20.4575 95.5345 21.5908C96.1821 22.5623 96.344 23.6956 95.8583 24.6671C95.3726 25.8004 94.725 26.9338 93.9154 28.0672C93.7535 28.2291 93.4297 28.391 93.1059 28.391C89.7058 28.391 86.1438 28.391 82.7437 28.0672C78.5341 27.5814 75.7817 25.1528 74.4864 21.1051C74.3245 20.4575 74.0007 20.2956 73.353 20.2956C71.572 20.2956 69.6292 20.2956 67.8482 20.2956C67.3624 20.2956 67.0386 20.4575 66.8767 20.9432C65.2576 25.6385 61.8576 27.7433 57.486 28.0672C54.5717 28.2291 51.6573 28.2291 48.9049 28.2291C48.2572 28.2291 47.7715 28.0672 47.2858 27.4195C46.4762 26.1243 45.6667 24.829 45.5048 23.3718C45.3429 22.0765 45.9905 21.1051 46.962 20.4575C48.0953 19.9717 48.4192 19.9717 49.3906 20.7813C50.0382 21.4289 50.6858 21.9146 51.1716 22.5623C51.6573 23.048 51.9811 22.8861 52.3049 22.5623C52.9526 22.0765 53.4383 21.4289 54.0859 20.9432C55.3812 19.8098 57.3241 20.2956 57.9717 21.9146C58.4575 23.3718 57.9717 24.6671 57.3241 25.9623C57.1622 26.2862 57.0003 26.4481 56.8384 26.9338C57.3241 26.9338 57.6479 26.9338 58.1337 26.9338C61.048 25.9624 63.3147 24.1814 64.2862 21.267C64.4481 20.6194 64.4481 20.2956 64.1242 19.6479C62.829 17.5431 61.5337 15.4383 61.2099 13.0097C60.8861 10.4191 62.9909 8.15243 65.5815 8.47625C65.9053 8.47625 66.2291 8.80006 66.391 8.96197C67.6863 10.4191 68.8196 11.8763 70.1149 13.3335C70.6006 13.9811 70.9244 13.9811 71.4101 13.3335C72.5435 11.8763 73.8388 10.4191 75.134 8.96197C75.2959 8.80006 75.6198 8.47625 75.9436 8.47625C79.0198 8.47625 80.8008 10.4191 80.3151 13.3335C79.8293 15.7621 78.696 17.705 77.4007 19.6479C77.2388 19.9717 77.0769 20.4575 77.0769 20.7813C77.5626 24.0194 81.1246 27.0957 84.039 27.0957Z" fill="white" stroke="white" stroke-width="6.47633" stroke-miterlimit="10"/>
<path d="M33.1989 32.7629C33.1989 32.1152 33.1989 31.6295 33.1989 31.1438C33.1989 30.3342 32.875 29.8485 31.9036 30.0104C30.9321 30.3342 29.7988 30.658 28.8273 30.9819C28.8273 30.658 28.9893 30.1723 28.9893 29.6866C29.3131 28.0675 28.9892 26.6103 27.8559 25.477C27.3702 24.9913 26.8845 24.3436 26.5606 23.8579C25.7511 22.5626 26.0749 21.4293 27.5321 20.9435C28.5035 20.6197 29.6369 20.4578 30.6083 20.2959C32.0655 20.134 33.1988 19.4864 34.1703 18.5149C34.8179 17.7054 35.6275 17.0577 36.4371 16.2482C36.9228 15.7625 37.4085 15.4387 38.0561 15.1148C39.0276 14.6291 39.8371 14.791 40.4848 15.7625C40.6467 16.0863 40.8086 16.2482 40.9705 16.572C41.4562 17.3816 41.4562 18.0292 40.8085 18.8387C39.5133 20.4578 39.0275 22.2388 39.8371 24.1817C40.6466 26.1246 42.1038 27.258 44.2086 27.5818C44.3705 27.5818 44.5324 27.5818 44.6943 27.7437C44.8562 27.9056 45.0182 28.0675 45.1801 28.2294C45.0182 28.3913 44.8563 28.5532 44.5325 28.3913C41.1324 28.0675 37.8942 26.1246 37.4085 22.2388C37.4085 21.4293 37.5704 20.7816 37.4085 19.9721C37.4085 19.8102 37.0847 19.3245 36.9228 19.3245C35.3037 19.3245 33.8465 19.3245 32.3893 20.2959C30.7703 21.4293 30.2845 23.2103 31.4179 24.9913C31.7417 25.477 32.0655 25.9627 32.5512 26.4484C33.0369 27.0961 33.6846 27.7437 34.1703 28.3913C35.4656 30.1723 35.1418 31.4676 33.1989 32.7629Z" fill="white" stroke="white" stroke-width="6.47633" stroke-miterlimit="10"/>
<path d="M112.534 31.1437C111.886 30.8199 111.076 30.4961 110.429 30.1723C108.648 29.5246 108 30.1723 108.162 32.1152C108.162 32.2771 108.162 32.439 108.162 32.6009C107.029 32.2771 106.219 30.9818 106.543 29.6865C106.867 28.877 107.353 28.2294 107.838 27.5817C108.324 26.9341 109.134 26.2865 109.619 25.4769C111.076 23.534 110.753 21.2673 108.486 20.1339C107.191 19.4863 105.733 19.4863 104.438 19.1625C103.952 19.0006 103.791 19.4863 103.952 19.8101C103.952 20.6197 104.114 21.4292 104.114 22.2387C103.791 24.6674 102.495 26.4484 100.229 27.4198C99.2571 27.9055 98.1238 28.0675 96.9904 28.2294C96.8285 28.2294 96.6666 28.0674 96.3428 28.0674C96.5047 27.9055 96.5047 27.5817 96.8285 27.5817C97.1523 27.4198 97.638 27.4198 97.9619 27.4198C102.01 26.4484 103.305 22.0768 100.876 18.6768C100.552 18.191 100.067 17.5434 100.229 17.2196C100.552 16.4101 101.2 15.6005 101.848 14.9529C102.171 14.6291 102.981 14.791 103.467 15.1148C104.276 15.6005 104.924 16.2481 105.572 16.8958C106.057 17.2196 106.381 17.7053 106.705 18.191C108 19.6482 109.457 20.2959 111.4 20.4578C112.21 20.6197 113.019 20.6197 113.667 20.9435C115.124 21.4292 115.448 22.5626 114.638 23.6959C114.476 23.8578 114.315 24.0197 114.153 24.3436C111.886 27.2579 111.724 27.5817 112.534 31.1437Z" fill="white" stroke="white" stroke-width="6.47633" stroke-miterlimit="10"/>
<path d="M81.2857 93.8023C77.7237 93.8023 73.0284 94.9357 70.7617 96.7167C68.0092 98.9834 63.4758 93.8023 59.7519 93.8023C59.4281 93.8023 57.9709 93.8023 56.6757 92.507C55.8661 91.6975 55.3804 90.5641 55.3804 89.4308V62.3921H85.4953V89.5927C85.6572 91.8594 83.5524 93.8023 81.2857 93.8023Z" fill="#00A2E5"/>
<path d="M70.4382 129.422C70.1144 129.26 69.4667 128.613 69.1429 128.451C65.7429 126.508 65.581 125.698 66.2286 121.813C66.8762 118.574 67.6858 115.336 68.4953 112.098C68.6572 111.289 69.4668 108.86 68.8191 109.346C66.5524 111.289 65.419 113.879 64.2857 116.632C63.1523 119.384 62.5047 122.136 62.3428 125.213C60.3999 124.565 58.9427 123.756 57.9713 121.975C57.3236 120.841 57.6474 119.708 57.9713 118.574C59.5903 113.879 62.6666 110.317 67.2001 107.727C67.362 107.565 67.6858 107.565 67.8477 107.241C68.0096 107.079 68.0096 106.917 68.0096 106.755C68.0096 106.593 67.6858 106.431 67.5238 106.431C67.2 106.431 66.8762 106.431 66.5524 106.593C60.238 109.184 55.7045 113.555 53.5997 120.194C53.4378 120.679 53.2759 120.841 52.7902 120.679C51.333 120.194 50.1997 119.384 49.2282 117.927C48.5806 116.793 48.7425 115.66 49.3901 114.527C50.3616 112.908 51.8188 111.451 53.2759 110.317C56.9998 107.565 61.2094 105.622 65.7428 104.327C66.8762 104.003 66.8762 104.003 66.3905 103.031C65.4191 100.603 64.1238 98.3359 61.8571 96.7169C60.3999 95.5835 58.9427 95.2597 57.1617 95.5835C55.3807 96.0692 54.2474 97.6883 54.4093 99.6312C54.4093 100.279 54.5712 100.765 54.7331 101.412C55.0569 102.707 54.895 102.707 53.5997 103.031C51.0092 103.517 48.4187 103.841 45.8281 104.488C44.371 104.812 43.0757 105.622 41.9424 106.108C43.0757 107.403 44.0472 108.536 45.1805 109.67C45.8281 110.317 45.8282 110.803 45.3424 111.451C44.8567 112.098 44.0471 112.26 43.3995 111.612C42.4281 110.803 41.2947 109.831 40.3233 108.86C39.8375 108.536 39.6756 108.374 39.028 108.698C36.5993 109.831 33.685 108.698 32.7136 106.269C32.2278 105.136 32.3897 104.003 32.8755 103.031C33.0374 102.546 33.0374 102.384 32.7136 102.06C28.6658 98.3359 24.7801 94.4501 20.7323 90.7263C20.4085 90.4024 20.0847 90.4024 19.599 90.5643C18.4656 91.212 17.818 91.0501 17.0085 90.2405C16.8466 90.0786 16.3608 89.9167 16.037 90.0786C13.6084 90.8882 10.8559 89.431 10.0464 86.6785C10.8559 86.6785 11.6655 86.6785 12.475 86.6785C12.1512 85.7071 11.8274 84.8975 11.5036 83.9261C10.8559 81.8213 11.9893 80.526 14.256 80.6879C15.2275 80.8498 16.1989 81.1737 17.1703 81.3356C17.1703 80.526 17.1703 79.8784 17.1703 79.0688C19.599 79.2308 21.5419 81.8213 21.0562 84.4118C20.8943 84.8976 20.8942 85.3833 21.38 85.7071C22.1895 86.3547 22.1895 87.0024 22.0276 87.9738C22.0276 88.2976 22.1895 88.7833 22.3514 88.9453C26.3991 92.8311 30.2849 96.5549 34.3326 100.279C34.6565 100.603 35.1422 100.765 35.6279 100.765C37.247 100.603 38.7042 100.926 39.9994 101.898C40.1613 102.06 40.4852 102.222 40.809 102.222C43.8852 102.222 46.9615 101.898 49.7139 100.603C49.8758 100.603 50.0378 100.441 50.1997 100.279C50.0378 99.955 49.8758 99.6312 49.7139 99.3074C48.2568 97.0407 47.1234 94.6121 46.6377 91.8596C45.99 87.1643 49.2282 83.7642 53.7616 83.4404C54.2474 83.4404 54.7331 83.4404 55.2188 83.4404C55.2188 83.7642 55.2188 84.088 55.2188 84.4118C55.2188 86.3547 55.2188 88.4595 55.2188 90.4024C55.2188 92.6691 56.676 94.2882 58.9427 94.612C60.3999 94.774 61.857 94.774 63.3142 94.612C65.9048 94.4501 68.0096 95.4216 69.4668 97.5264C69.9525 98.0121 70.1144 98.0121 70.6001 97.5264C72.0573 95.5835 74.1621 94.6121 76.5907 94.774C78.0479 94.774 79.5051 94.774 80.9623 94.774C83.3909 94.6121 84.8481 92.993 85.01 90.5643C85.01 88.4595 85.01 86.5166 85.01 84.4118C85.01 83.7642 85.1719 83.4404 85.8195 83.6023C86.9529 83.7642 87.9243 83.9261 89.0577 84.2499C92.7816 85.5452 94.0768 89.2691 93.5911 92.6692C93.2673 95.0978 91.972 97.3645 90.6768 99.4693C89.8672 100.603 89.8672 100.765 91.3244 101.25C93.5911 102.222 96.0197 102.384 98.4483 102.546C98.7722 102.546 99.096 102.06 99.2579 101.736C99.7436 100.279 100.553 99.1455 101.848 98.3359C102.334 98.0121 102.496 98.0121 102.982 98.3359C103.953 99.1455 104.925 99.7931 105.896 100.603C106.382 101.088 106.868 101.088 107.353 100.603C108.325 99.7931 109.296 99.1455 110.106 98.3359C110.591 97.8502 110.915 98.0121 111.401 98.3359C113.668 100.279 114.801 102.546 114.153 105.622C113.506 108.536 110.915 110.641 108.001 111.127C105.248 111.612 102.658 110.803 100.877 108.698C99.096 106.755 96.9912 105.46 94.5626 104.974C92.1339 104.327 89.5434 104.003 87.1148 103.679C86.1433 103.517 85.9814 103.355 86.1433 102.222C86.3052 101.25 86.4671 100.279 86.4671 99.4693C85.9814 96.5549 83.0671 95.2597 80.1527 96.7169C78.8575 97.3645 77.7241 98.4979 76.7526 99.6312C75.7812 100.926 75.1336 102.546 74.324 104.003C74.0002 104.65 74.4859 104.812 74.9716 104.974C77.5622 105.946 79.9908 106.755 82.4194 107.889C85.3338 109.184 88.0862 111.127 90.3529 113.717C90.5148 113.879 90.5149 113.879 90.6768 114.041C93.1054 116.955 91.8101 120.517 88.0862 121.489C87.4386 121.651 87.4386 121.327 87.2767 120.841C86.3052 117.603 84.5242 114.689 82.0956 112.26C79.8289 109.993 77.2384 108.212 74.1621 107.241C73.8383 107.079 73.1906 107.241 73.0287 107.403C72.7049 107.889 73.1907 108.212 73.6764 108.536C78.2098 110.965 81.448 114.527 83.0671 119.546C83.8766 121.651 83.3909 123.108 81.6099 124.565C80.9623 125.051 80.3146 125.537 79.5051 125.86C78.6955 126.346 78.5336 126.184 78.5336 125.213C78.3717 122.298 77.7241 119.546 76.4288 116.955C75.4574 115.013 74.4859 113.232 73.3526 111.451C73.0287 110.965 72.543 110.641 72.2192 110.317C72.0573 110.317 72.0573 110.479 71.8954 110.479C71.7335 109.831 71.8954 111.289 72.2192 112.746C73.0287 115.984 74.0002 119.06 74.8097 122.298C74.9716 122.946 75.1336 123.756 75.2955 124.403C75.6193 126.346 74.324 127.803 72.8669 128.937C72.0573 129.584 72.2192 130.07 71.2478 130.07C70.6001 129.746 70.6001 129.422 70.4382 129.422Z" fill="#84DAF5" stroke="#0587D6" stroke-width="2.42863" stroke-miterlimit="10"/>
<path d="M6.64568 40.8576C6.80759 40.0481 6.80761 39.5623 6.96952 38.9147C6.96952 38.5909 7.13145 38.429 7.29336 38.1052C7.61717 38.2671 7.94099 38.2671 8.1029 38.5909C10.5315 40.6957 12.7982 42.8005 15.2269 44.7434C19.4365 47.6577 23.9699 49.9245 28.9891 51.0578C29.3129 51.2197 29.6367 51.2197 29.9605 51.2197C30.6082 49.9245 30.4462 49.2768 29.3129 48.4673C26.5604 46.6863 23.6461 45.0672 21.0556 43.2862C17.6555 40.8576 14.5792 38.1052 12.9601 34.0574C11.0172 29.3621 11.503 24.9906 15.0649 20.9429C15.2268 21.2667 15.5507 21.4286 15.7126 21.7524C19.1126 26.9335 22.5127 31.9526 26.5604 36.648C31.5796 42.4767 36.5987 48.1435 43.0751 52.3531C43.5608 52.6769 44.0465 53.0007 43.3989 53.8103C41.1322 56.077 40.3226 58.9913 41.6179 62.0676C42.9132 65.3058 45.5037 66.9248 48.9038 67.2487C51.0086 67.5725 53.1134 67.2487 55.2182 66.7629C55.8658 66.601 56.0277 66.7629 56.0277 67.4106C56.0277 68.5439 56.0277 69.6773 56.0277 70.8106C56.0277 73.4012 56.0277 75.9917 56.0277 78.5822C56.0277 78.7442 56.0277 78.9061 56.0277 79.2299C55.7039 78.7441 55.542 78.5822 55.3801 78.2584C53.9229 75.3441 51.3324 74.0488 48.2561 73.5631C46.6371 73.2393 46.637 73.2393 46.3132 74.8583C45.8275 77.4489 45.018 80.0394 43.8846 82.3061C42.5893 84.7348 40.6465 86.3538 37.894 86.8396C35.9511 87.1634 34.1701 86.6777 32.551 85.2205C33.0367 84.8967 33.3606 84.5729 33.8463 84.249C37.0845 82.1442 39.675 79.5537 41.456 76.1536C41.9417 75.3441 42.1036 74.3726 42.4274 73.4012C42.5893 72.7535 42.4274 72.5916 41.7798 72.2678C41.2941 72.1059 40.8084 71.7821 40.4846 72.4297C39.0274 74.6964 37.4083 76.6393 35.4654 78.4203C33.3606 80.2013 31.0939 81.4966 28.3414 81.6585C25.7509 81.6585 23.6461 80.8489 22.027 78.4203C22.3508 78.2584 22.6746 78.0965 22.9984 78.0965C27.5319 77.1251 31.7415 75.506 35.1416 72.1059C35.7892 71.6202 36.2749 70.8106 36.7606 70.3249C37.0845 69.8392 37.2464 69.5154 36.7606 68.8677C36.2749 68.382 35.7892 68.382 35.1416 68.7058C33.1987 69.8392 31.4177 70.9725 29.4748 71.944C26.3985 73.5631 23.3223 74.6964 19.7603 74.2107C18.465 74.0488 17.1698 73.725 16.0364 73.0774C14.0935 72.2678 13.284 70.4868 12.9601 68.5439C12.7982 68.0582 13.122 67.8963 13.6078 67.8963C14.4173 67.8963 15.2269 67.8963 16.0364 67.8963C21.5413 67.8963 27.0462 66.9248 32.0653 64.6581C33.0368 64.1724 33.1987 64.0105 32.551 63.039C32.2272 62.5533 31.9034 62.5533 31.4177 62.5533C28.1795 63.039 25.1033 63.6867 21.8651 64.1724C19.1127 64.4962 16.5221 64.6581 13.7697 63.8486C9.88389 62.7152 7.61717 59.9628 7.29336 55.9151C7.29336 55.4294 7.29336 54.9436 7.29336 54.296C7.61717 54.4579 7.94099 54.4579 8.1029 54.6198C15.065 57.6961 22.3508 58.6675 29.7986 58.0199C30.1224 58.0199 30.7701 58.0199 30.6082 57.3722C30.4462 56.8865 30.7701 56.077 29.7986 55.9151C26.8843 55.4294 23.9699 55.1055 21.2174 54.6198C17.9793 53.9722 14.7411 53.1626 11.8268 51.5435C8.91242 49.9245 6.96954 47.3339 6.48382 43.9339C6.32191 44.0958 6.64568 40.0481 6.64568 40.21" fill="#84DAF5"/>
<path d="M6.64568 40.8576C6.80759 40.0481 6.80761 39.5623 6.96952 38.9147C6.96952 38.5909 7.13145 38.429 7.29336 38.1052C7.61717 38.2671 7.94099 38.2671 8.1029 38.5909C10.5315 40.6957 12.7982 42.8005 15.2269 44.7434C19.4365 47.6577 23.9699 49.9245 28.9891 51.0578C29.3129 51.2197 29.6367 51.2197 29.9605 51.2197C30.6082 49.9245 30.4462 49.2768 29.3129 48.4673C26.5604 46.6863 23.6461 45.0672 21.0556 43.2862C17.6555 40.8576 14.5792 38.1052 12.9601 34.0574C11.0172 29.3621 11.503 24.9906 15.0649 20.9429C15.2268 21.2667 15.5507 21.4286 15.7126 21.7524C19.1126 26.9335 22.5127 31.9526 26.5604 36.648C31.5796 42.4767 36.5987 48.1435 43.0751 52.3531C43.5608 52.6769 44.0465 53.0007 43.3989 53.8103C41.1322 56.077 40.3226 58.9913 41.6179 62.0676C42.9132 65.3058 45.5037 66.9248 48.9038 67.2487C51.0086 67.5725 53.1134 67.2487 55.2182 66.7629C55.8658 66.601 56.0277 66.7629 56.0277 67.4106C56.0277 68.5439 56.0277 69.6773 56.0277 70.8106C56.0277 73.4012 56.0277 75.9917 56.0277 78.5822C56.0277 78.7442 56.0277 78.9061 56.0277 79.2299C55.7039 78.7441 55.542 78.5822 55.3801 78.2584C53.9229 75.3441 51.3324 74.0488 48.2561 73.5631C46.6371 73.2393 46.637 73.2393 46.3132 74.8583C45.8275 77.4489 45.018 80.0394 43.8846 82.3061C42.5893 84.7348 40.6465 86.3538 37.894 86.8396C35.9511 87.1634 34.1701 86.6777 32.551 85.2205C33.0367 84.8967 33.3606 84.5729 33.8463 84.249C37.0845 82.1442 39.675 79.5537 41.456 76.1536C41.9417 75.3441 42.1036 74.3726 42.4274 73.4012C42.5893 72.7535 42.4274 72.5916 41.7798 72.2678C41.2941 72.1059 40.8084 71.7821 40.4846 72.4297C39.0274 74.6964 37.4083 76.6393 35.4654 78.4203C33.3606 80.2013 31.0939 81.4966 28.3414 81.6585C25.7509 81.6585 23.6461 80.849 22.027 78.4203C22.3508 78.2584 22.6746 78.0965 22.9984 78.0965C27.5319 77.1251 31.7415 75.506 35.1416 72.1059C35.7892 71.6202 36.2749 70.8106 36.7606 70.3249C37.0845 69.8392 37.2464 69.5154 36.7606 68.8677C36.2749 68.382 35.7892 68.382 35.1416 68.7058C33.1987 69.8392 31.4177 70.9725 29.4748 71.944C26.3985 73.5631 23.3223 74.6964 19.7603 74.2107C18.465 74.0488 17.1698 73.725 16.0364 73.0774C14.0935 72.2678 13.284 70.4868 12.9601 68.5439C12.7982 68.0582 13.122 67.8963 13.6078 67.8963C14.4173 67.8963 15.2269 67.8963 16.0364 67.8963C21.5413 67.8963 27.0462 66.9248 32.0653 64.6581C33.0368 64.1724 33.1987 64.0105 32.551 63.039C32.2272 62.5533 31.9034 62.5533 31.4177 62.5533C28.1795 63.039 25.1033 63.6867 21.8651 64.1724C19.1127 64.4962 16.5221 64.6581 13.7697 63.8486C9.88389 62.7152 7.61717 59.9628 7.29336 55.9151C7.29336 55.4294 7.29336 54.9436 7.29336 54.296C7.61717 54.4579 7.94099 54.4579 8.1029 54.6198C15.065 57.6961 22.3508 58.6675 29.7986 58.0199C30.1224 58.0199 30.7701 58.0199 30.6081 57.3722C30.4462 56.8865 30.7701 56.077 29.7986 55.9151C26.8843 55.4294 23.9699 55.1055 21.2174 54.6198C17.9793 53.9722 14.7411 53.1626 11.8268 51.5435C8.91242 49.9245 6.96954 47.3339 6.48382 43.9339C6.32191 44.0958 6.64568 40.0481 6.64568 40.21" stroke="#0587D6" stroke-width="2.42863" stroke-miterlimit="10"/>
<path d="M111.4 51.2207C119.657 49.2778 126.619 45.2301 132.61 39.2395C132.772 39.0776 132.934 38.9157 133.096 38.5919C133.905 37.7823 134.067 37.7823 134.391 38.9157C136.01 43.7729 133.905 49.1159 129.372 51.5445C126.134 53.3255 122.733 54.297 119.01 54.7827C116.581 55.1065 114.314 55.5922 111.886 55.9161C111.4 56.078 110.752 55.9161 110.59 56.7256C110.428 57.697 110.428 58.0209 111.562 58.0209C119.01 58.6685 126.133 57.697 132.934 54.7827C133.257 54.6208 133.419 54.6208 133.905 54.297C133.905 54.9446 133.905 55.4303 133.905 55.9161C133.743 59.8019 131.638 62.5543 127.915 63.8496C125.972 64.4972 123.867 64.6591 121.762 64.4972C117.714 64.3353 113.667 63.6876 109.781 62.7162C108.809 62.5543 108.647 62.8781 108.486 63.5257C108.162 64.3353 108.647 64.4972 109.133 64.6591C112.857 66.2782 116.743 67.4115 120.791 67.7354C122.895 67.8973 125.162 67.8973 127.429 68.0592C127.753 68.0592 128.076 68.0592 128.4 68.2211C128.238 71.4593 126.457 73.5641 123.057 74.2117C120.143 74.8593 117.229 74.5355 114.476 73.2402C111.724 71.945 108.971 70.3259 106.381 68.8687C105.733 68.5449 105.247 68.383 104.762 69.0306C104.114 69.6783 104.6 70.164 104.924 70.6497C106.705 73.2402 109.133 75.0212 112.047 76.1546C114.152 77.126 116.581 77.6118 118.686 78.4213C118.848 78.4213 119.171 78.5832 119.495 78.7451C118.362 80.688 116.743 81.6595 114.638 81.8214C112.047 82.1452 109.619 81.3357 107.514 79.7166C104.924 77.9356 102.981 75.507 101.362 73.0783C100.876 72.2688 99.7425 72.2688 99.2567 72.9164C99.0948 73.0783 99.0948 73.4022 99.2567 73.726C100.228 77.4499 102.657 80.5261 105.571 82.7928C106.381 83.4405 107.352 84.0881 108.324 84.8976C108.486 85.0595 108.647 85.2215 108.971 85.3834C107.352 87.1644 104.438 87.6501 102.009 86.5167C99.9044 85.5453 98.4472 84.0881 97.6376 81.8214C96.6662 79.3928 96.0186 76.9641 95.3709 74.5355C95.209 73.726 94.8852 73.5641 94.0756 73.5641C90.6756 74.0498 87.9231 75.1831 86.3041 78.4213C86.3041 78.5832 86.1421 78.7451 85.9802 78.907C85.9802 78.7451 85.8184 78.5832 85.8184 78.4213C85.8184 74.6974 85.8184 70.9735 85.8184 67.4115C85.8184 66.602 86.1421 66.602 86.7898 66.7639C89.2184 67.4115 91.647 67.5734 94.0756 67.0877C99.5805 66.1163 103.143 59.1542 98.771 54.1351C98.4472 53.8112 98.2853 53.4874 97.9615 53.0017C109.943 44.5825 118.686 33.2489 126.619 20.9438C128.562 22.7248 129.695 24.8296 129.857 27.4202C130.343 32.2774 128.562 36.1632 125.162 39.4014C121.438 42.9634 117.067 45.7158 112.533 48.3064C110.914 49.1159 110.752 49.9254 111.4 51.2207Z" fill="#84DAF5" stroke="#0587D6" stroke-width="2.42863" stroke-miterlimit="10"/>
<path d="M80.1523 37.2959C78.2094 36.1625 76.5903 34.8672 75.6189 33.0863C75.295 32.4386 75.1331 31.791 74.8093 30.9814C75.295 30.9814 75.6189 30.9814 75.9427 31.1434C77.7237 31.4672 79.6666 31.791 81.4476 31.9529C85.1715 32.1148 89.0573 31.9529 92.7811 32.2767C94.5621 32.4386 96.3431 32.7624 98.1241 33.2482C101.2 34.2196 102.01 38.1054 99.9051 40.534C99.7432 40.2102 99.5813 40.0483 99.4194 39.7245C98.6099 38.5911 97.4765 38.2673 96.1812 38.2673C90.5144 37.9435 86.6286 40.8578 83.7143 45.2294C82.2571 47.4961 81.1238 50.0866 80.9619 52.8391C80.638 56.2391 81.4476 59.3154 84.0381 61.5821C84.0381 61.5821 84.2 61.744 84.2 61.9059C75.2951 61.9059 66.552 61.9059 57.4851 61.9059C57.9709 61.4202 58.4566 61.0964 58.7804 60.6107C60.7233 58.5059 61.3709 55.7534 61.0471 53.001C60.2376 46.3627 56.9994 41.6674 50.8469 38.915C49.0659 38.1054 47.2849 38.1054 45.342 38.2673C44.0468 38.4292 42.9134 38.915 42.2657 40.0483C42.2657 40.2102 42.1038 40.2102 41.9419 40.3721H41.78C39.5133 36.9721 40.9705 33.572 44.5325 32.9243C46.9611 32.4386 49.5516 32.2767 52.1421 32.1148C54.085 31.9529 56.1899 31.9529 58.2947 32.1148C61.0471 32.1148 63.7996 32.1148 66.3901 31.3053C66.552 31.3053 66.7139 31.3053 66.8758 31.3053C66.2282 34.3815 64.1234 36.1625 61.6947 37.7816C67.1996 43.2865 69.7902 49.9247 70.7616 57.5344C70.7616 57.6963 70.9235 57.6963 70.9235 57.5344C72.0569 49.6009 74.4855 42.6388 80.1523 37.2959Z" fill="#84DAF5" stroke="#0587D6" stroke-width="2.42863" stroke-miterlimit="10"/>
<path d="M84.039 27.0957C83.7152 25.9623 83.2294 24.829 83.0675 23.6956C82.7437 21.9146 84.039 20.4575 85.82 20.4575C86.1438 20.4575 86.6295 20.6194 86.9533 20.9432C87.7629 21.7527 88.7343 22.5623 89.5439 23.3718C90.3534 22.5623 91.1629 21.9146 91.9725 21.267C93.1059 20.2956 94.563 20.4575 95.5345 21.5908C96.1821 22.5623 96.344 23.6956 95.8583 24.6671C95.3726 25.8004 94.725 26.9338 93.9154 28.0672C93.7535 28.2291 93.4297 28.391 93.1059 28.391C89.7058 28.391 86.1438 28.391 82.7437 28.0672C78.5341 27.5814 75.7817 25.1528 74.4864 21.1051C74.3245 20.4575 74.0007 20.2956 73.353 20.2956C71.572 20.2956 69.6292 20.2956 67.8482 20.2956C67.3624 20.2956 67.0386 20.4575 66.8767 20.9432C65.2576 25.6385 61.8576 27.7433 57.486 28.0672C54.5717 28.2291 51.6573 28.2291 48.9049 28.2291C48.2572 28.2291 47.7715 28.0672 47.2858 27.4195C46.4762 26.1243 45.6667 24.829 45.5048 23.3718C45.3429 22.0765 45.9905 21.1051 46.962 20.4575C48.0953 19.9717 48.4192 19.9717 49.3906 20.7813C50.0382 21.4289 50.6858 21.9146 51.1716 22.5623C51.6573 23.048 51.9811 22.8861 52.3049 22.5623C52.9526 22.0765 53.4383 21.4289 54.0859 20.9432C55.3812 19.8098 57.3241 20.2956 57.9717 21.9146C58.4575 23.3718 57.9717 24.6671 57.3241 25.9623C57.1622 26.2862 57.0003 26.4481 56.8384 26.9338C57.3241 26.9338 57.6479 26.9338 58.1337 26.9338C61.048 25.9624 63.3147 24.1814 64.2862 21.267C64.4481 20.6194 64.4481 20.2956 64.1242 19.6479C62.829 17.5431 61.5337 15.4383 61.2099 13.0097C60.8861 10.4191 62.9909 8.15243 65.5815 8.47625C65.9053 8.47625 66.2291 8.80006 66.391 8.96197C67.6863 10.4191 68.8196 11.8763 70.1149 13.3335C70.6006 13.9811 70.9244 13.9811 71.4101 13.3335C72.5435 11.8763 73.8388 10.4191 75.134 8.96197C75.2959 8.80006 75.6198 8.47625 75.9436 8.47625C79.0198 8.47625 80.8008 10.4191 80.3151 13.3335C79.8293 15.7621 78.696 17.705 77.4007 19.6479C77.2388 19.9717 77.0769 20.4575 77.0769 20.7813C77.5626 24.0194 81.1246 27.0957 84.039 27.0957Z" fill="#84DAF5" stroke="#0587D6" stroke-width="2.42863" stroke-miterlimit="10"/>
<path d="M33.1989 32.7629C33.1989 32.1152 33.1989 31.6295 33.1989 31.1438C33.1989 30.3342 32.875 29.8485 31.9036 30.0104C30.9321 30.3342 29.7988 30.658 28.8273 30.9819C28.8273 30.658 28.9893 30.1723 28.9893 29.6866C29.3131 28.0675 28.9892 26.6103 27.8559 25.477C27.3702 24.9913 26.8845 24.3436 26.5606 23.8579C25.7511 22.5626 26.0749 21.4293 27.5321 20.9435C28.5035 20.6197 29.6369 20.4578 30.6083 20.2959C32.0655 20.134 33.1988 19.4864 34.1703 18.5149C34.8179 17.7054 35.6275 17.0577 36.4371 16.2482C36.9228 15.7625 37.4085 15.4387 38.0561 15.1148C39.0276 14.6291 39.8371 14.791 40.4848 15.7625C40.6467 16.0863 40.8086 16.2482 40.9705 16.572C41.4562 17.3816 41.4562 18.0292 40.8085 18.8387C39.5133 20.4578 39.0275 22.2388 39.8371 24.1817C40.6466 26.1246 42.1038 27.258 44.2086 27.5818C44.3705 27.5818 44.5324 27.5818 44.6943 27.7437C44.8562 27.9056 45.0182 28.0675 45.1801 28.2294C45.0182 28.3913 44.8563 28.5532 44.5325 28.3913C41.1324 28.0675 37.8942 26.1246 37.4085 22.2388C37.4085 21.4293 37.5704 20.7816 37.4085 19.9721C37.4085 19.8102 37.0847 19.3245 36.9228 19.3245C35.3037 19.3245 33.8465 19.3245 32.3893 20.2959C30.7703 21.4293 30.2845 23.2103 31.4179 24.9913C31.7417 25.477 32.0655 25.9627 32.5512 26.4484C33.0369 27.0961 33.6846 27.7437 34.1703 28.3913C35.4656 30.1723 35.1418 31.4676 33.1989 32.7629Z" fill="#0587D6" stroke="#0587D6" stroke-width="2.42863" stroke-miterlimit="10"/>
<path d="M112.534 31.1437C111.886 30.8199 111.076 30.4961 110.429 30.1723C108.648 29.5246 108 30.1723 108.162 32.1152C108.162 32.2771 108.162 32.439 108.162 32.6009C107.029 32.2771 106.219 30.9818 106.543 29.6865C106.867 28.877 107.353 28.2294 107.838 27.5817C108.324 26.9341 109.134 26.2865 109.619 25.4769C111.076 23.534 110.753 21.2673 108.486 20.1339C107.191 19.4863 105.733 19.4863 104.438 19.1625C103.952 19.0006 103.791 19.4863 103.952 19.8101C103.952 20.6197 104.114 21.4292 104.114 22.2387C103.791 24.6674 102.495 26.4484 100.229 27.4198C99.2571 27.9055 98.1238 28.0675 96.9904 28.2294C96.8285 28.2294 96.6666 28.0674 96.3428 28.0674C96.5047 27.9055 96.5047 27.5817 96.8285 27.5817C97.1523 27.4198 97.638 27.4198 97.9619 27.4198C102.01 26.4484 103.305 22.0768 100.876 18.6768C100.552 18.191 100.067 17.5434 100.229 17.2196C100.552 16.4101 101.2 15.6005 101.848 14.9529C102.171 14.6291 102.981 14.791 103.467 15.1148C104.276 15.6005 104.924 16.2481 105.572 16.8958C106.057 17.2196 106.381 17.7053 106.705 18.191C108 19.6482 109.457 20.2959 111.4 20.4578C112.21 20.6197 113.019 20.6197 113.667 20.9435C115.124 21.4292 115.448 22.5626 114.638 23.6959C114.476 23.8578 114.315 24.0197 114.153 24.3436C111.886 27.2579 111.724 27.5817 112.534 31.1437Z" fill="#0587D6" stroke="#0587D6" stroke-width="2.42863" stroke-miterlimit="10"/>
<path d="M132.773 86.0305H125.811V92.9926H132.773V86.0305Z" fill="#85DBF6"/>
<path d="M132.773 86.0305H125.811V92.9926H132.773V86.0305Z" stroke="#0587D6" stroke-width="1.38496" stroke-miterlimit="79.8403" stroke-linecap="round" stroke-linejoin="round"/>
<path d="M120.467 86.0305H113.505V92.9926H120.467V86.0305Z" fill="#85DBF6"/>
<path d="M120.467 86.0305H113.505V92.9926H120.467V86.0305Z" stroke="#0587D6" stroke-width="1.38496" stroke-miterlimit="79.8403" stroke-linecap="round" stroke-linejoin="round"/>
<path d="M132.773 98.3357H125.811V105.298H132.773V98.3357Z" fill="#85DBF6"/>
<path d="M132.773 98.3357H125.811V105.298H132.773V98.3357Z" stroke="#0587D6" stroke-width="1.38496" stroke-miterlimit="79.8403" stroke-linecap="round" stroke-linejoin="round"/>
<path d="M145.887 144.156V87.1638C145.887 86.0304 144.916 85.3828 144.106 85.3828H102.172C101.039 85.3828 100.391 86.3543 100.391 87.1638V144.156C100.391 145.289 101.363 145.937 102.172 145.937H144.106C145.078 146.26 145.887 145.289 145.887 144.156Z" stroke="white" stroke-width="6.47633" stroke-miterlimit="79.8403" stroke-linecap="round" stroke-linejoin="round"/>
<path fill-rule="evenodd" clip-rule="evenodd" d="M145.563 144.156V87.1638C145.563 86.0304 144.592 85.3828 143.782 85.3828H101.848C100.715 85.3828 100.067 86.3543 100.067 87.1638V144.156C100.067 145.289 101.038 145.937 101.848 145.937H143.782C144.754 146.26 145.563 145.289 145.563 144.156Z" fill="white"/>
<path d="M145.887 144.156V87.1638C145.887 86.0304 144.916 85.3828 144.106 85.3828H102.172C101.039 85.3828 100.391 86.3543 100.391 87.1638V144.156C100.391 145.289 101.363 145.937 102.172 145.937H144.106C145.078 146.26 145.887 145.289 145.887 144.156Z" stroke="#0587D6" stroke-width="2.76977" stroke-miterlimit="79.8403" stroke-linecap="round" stroke-linejoin="round"/>
<path d="M123.544 118.412C130.34 118.412 135.849 112.903 135.849 106.107C135.849 99.3109 130.34 93.8018 123.544 93.8018C116.748 93.8018 111.239 99.3109 111.239 106.107C111.239 112.903 116.748 118.412 123.544 118.412Z" fill="white"/>
<path d="M123.382 116.793C129.373 116.793 134.23 111.936 134.23 105.945C134.23 99.9539 129.373 95.0972 123.382 95.0972C117.391 95.0972 112.534 99.9539 112.534 105.945C112.534 111.936 117.391 116.793 123.382 116.793Z" stroke="#0587D6" stroke-width="1.22257" stroke-miterlimit="79.8403" stroke-linecap="round" stroke-linejoin="round"/>
<path d="M123.382 116.631C126.69 116.631 129.372 111.847 129.372 105.945C129.372 100.044 126.69 95.2595 123.382 95.2595C120.073 95.2595 117.391 100.044 117.391 105.945C117.391 111.847 120.073 116.631 123.382 116.631Z" stroke="#0587D6" stroke-width="1.22257" stroke-miterlimit="79.8403" stroke-linecap="round" stroke-linejoin="round"/>
<path d="M115.449 98.3357C117.392 99.631 120.144 100.441 123.382 100.441C126.62 100.441 129.373 99.631 131.316 98.3357" stroke="#0587D6" stroke-width="1.22257" stroke-miterlimit="79.8403" stroke-linecap="round" stroke-linejoin="round"/>
<path d="M115.449 113.393C117.392 112.097 120.144 111.288 123.382 111.288C126.62 111.288 129.373 112.097 131.316 113.393" stroke="#0587D6" stroke-width="1.22257" stroke-miterlimit="79.8403" stroke-linecap="round" stroke-linejoin="round"/>
<path d="M113.02 105.945H133.906" stroke="#0587D6" stroke-width="1.22257" stroke-miterlimit="79.8403" stroke-linecap="round" stroke-linejoin="round"/>
<path d="M142.487 105.46V88.7832H135.687" stroke="white" stroke-width="1.38496" stroke-miterlimit="79.8403" stroke-linecap="round" stroke-linejoin="round"/>
<path d="M111.077 132.822C110.915 132.822 110.915 132.822 110.753 132.66C110.753 132.498 110.591 132.498 110.591 132.336V118.412C110.591 118.25 110.591 118.25 110.753 118.088C110.915 118.088 110.915 117.926 111.077 117.926H112.372C112.534 117.926 112.696 117.926 112.696 118.088C112.696 118.25 112.858 118.25 112.858 118.412V132.336C112.858 132.498 112.858 132.498 112.696 132.66C112.696 132.66 112.534 132.822 112.372 132.822H111.077ZM114.153 137.679C113.991 137.679 113.829 137.679 113.829 137.517C113.829 137.355 113.668 137.355 113.668 137.193V135.898C113.668 135.736 113.668 135.574 113.829 135.574C113.991 135.574 114.153 135.412 114.315 135.412H114.801C116.096 135.412 117.068 135.088 117.553 134.441C118.039 133.793 118.363 132.822 118.363 131.688C118.363 131.203 118.363 130.717 118.201 130.393C118.201 129.907 118.039 129.422 117.877 128.936L117.553 127.317C117.553 127.155 117.553 126.993 117.553 126.831C117.553 126.669 117.715 126.669 117.877 126.507L119.011 126.183C119.172 126.183 119.334 126.183 119.334 126.183L119.496 126.345C119.496 126.507 119.496 126.507 119.658 126.669L120.144 128.936C120.306 129.26 120.468 129.583 120.63 129.745C120.792 129.907 121.115 130.069 121.439 130.231C121.763 130.393 122.087 130.393 122.411 130.393H122.734C122.896 130.393 123.058 130.555 123.058 130.717V132.498C123.058 132.822 122.896 133.145 122.411 133.145C121.925 133.145 121.439 133.145 120.953 132.984C120.63 132.822 120.306 132.66 120.144 132.498C120.144 133.145 119.982 133.955 119.82 134.603C119.658 135.25 119.334 135.898 118.849 136.384C118.363 136.869 117.877 137.355 117.23 137.517C116.582 137.679 115.772 138.003 114.801 138.003H114.153V137.679ZM118.039 124.402C118.039 124.402 117.877 124.564 117.715 124.564C117.553 124.564 117.553 124.564 117.391 124.402L116.582 123.593C116.582 123.431 116.42 123.431 116.42 123.269C116.42 123.107 116.42 123.107 116.582 122.945L117.391 121.974C117.391 121.974 117.553 121.812 117.715 121.812C117.877 121.812 117.877 121.812 118.039 121.974L119.011 122.945C119.172 123.107 119.172 123.269 119.011 123.593L118.039 124.402ZM122.573 132.822C122.411 132.822 122.411 132.822 122.411 132.66V132.498V130.717C122.411 130.393 122.573 130.231 123.058 130.231H123.22C124.03 130.231 124.515 130.069 124.677 129.583C125.001 129.26 125.001 128.612 125.001 127.964C125.001 127.641 125.001 127.317 124.839 126.831C124.677 126.345 124.677 126.183 124.677 125.86C124.677 125.698 124.677 125.536 124.677 125.374C124.677 125.212 124.839 125.212 125.001 125.212L126.135 124.888C126.296 124.888 126.458 124.888 126.62 125.05C126.782 125.212 126.782 125.374 126.782 125.536C126.782 125.698 126.944 126.021 126.944 126.183C126.944 126.507 127.106 126.831 127.106 126.993C127.106 127.317 127.106 127.641 127.106 127.802C127.106 128.774 127.106 129.745 126.782 130.393C126.458 131.041 126.135 131.688 125.325 132.012C124.677 132.66 123.706 132.822 122.573 132.822ZM123.706 136.545C123.706 136.545 123.544 136.707 123.382 136.707C123.22 136.707 123.22 136.707 123.058 136.545L122.249 135.736C122.249 135.736 122.087 135.574 122.087 135.412C122.087 135.25 122.087 135.25 122.249 135.088L123.058 134.279C123.058 134.279 123.22 134.117 123.382 134.117C123.544 134.117 123.544 134.117 123.706 134.279L124.515 135.088C124.515 135.088 124.677 135.25 124.677 135.412C124.677 135.574 124.677 135.574 124.515 135.736L123.706 136.545ZM126.458 136.545C126.458 136.545 126.296 136.707 126.135 136.707C125.973 136.707 125.973 136.707 125.811 136.545L125.001 135.736C125.001 135.736 124.839 135.574 124.839 135.412C124.839 135.25 124.839 135.25 125.001 135.088L125.811 134.279C125.811 134.279 125.973 134.117 126.135 134.117C126.296 134.117 126.296 134.117 126.458 134.279L127.268 135.088C127.268 135.088 127.43 135.25 127.43 135.412C127.43 135.574 127.43 135.574 127.268 135.736L126.458 136.545ZM129.535 137.679C129.373 137.679 129.211 137.679 129.049 137.517C128.887 137.355 128.887 137.193 128.887 137.031V135.736C128.887 135.574 128.887 135.412 129.049 135.25C129.211 135.088 129.373 135.088 129.696 135.088H131.154C132.287 135.088 133.097 134.926 133.744 134.441C134.392 134.117 134.878 133.469 135.039 132.66C135.363 131.85 135.363 130.879 135.363 129.583H137.306C137.306 131.364 137.144 132.822 136.659 133.955C136.173 135.088 135.525 136.06 134.716 136.545C133.744 137.193 132.611 137.355 131.154 137.355H129.535V137.679ZM135.201 129.745C135.201 128.936 134.878 128.288 134.554 127.964C134.068 127.479 133.582 127.317 133.097 127.317C132.773 127.317 132.449 127.317 132.125 127.479C131.801 127.641 131.639 127.802 131.477 128.126C131.316 128.288 131.316 128.612 131.316 128.936C131.316 129.422 131.477 129.745 131.801 129.907C132.125 130.069 132.449 130.231 132.935 130.231C133.42 130.231 134.068 130.069 134.554 129.907C135.039 129.745 135.363 129.583 135.525 129.26L135.687 131.203C135.363 131.526 135.039 131.85 134.392 132.174C133.906 132.336 133.258 132.498 132.611 132.498C131.963 132.498 131.316 132.336 130.83 132.012C130.344 131.688 130.02 131.364 129.696 130.717C129.373 130.231 129.373 129.745 129.373 129.098C129.373 128.612 129.373 128.126 129.696 127.641C129.858 127.155 130.182 126.669 130.506 126.345C130.83 126.021 131.154 125.698 131.639 125.536C132.125 125.374 132.611 125.212 133.258 125.212C134.068 125.212 134.716 125.374 135.363 125.86C136.011 126.183 136.335 126.831 136.82 127.479C137.144 128.126 137.306 129.098 137.306 130.069L135.201 129.745Z" fill="#0587D6"/>
</svg>
