<svg width="145" height="145" viewBox="0 0 145 145" fill="none" xmlns="http://www.w3.org/2000/svg">
<path d="M72.5 143C111.436 143 143 111.436 143 72.5C143 33.5639 111.436 2 72.5 2C33.564 2 2 33.5639 2 72.5C2 111.436 33.564 143 72.5 143Z" stroke="#0587D6" stroke-width="2.83489" stroke-miterlimit="9.9999" stroke-linecap="round" stroke-linejoin="round"/>
<path d="M27.4268 9.52979V127.611H117.529V9.52979H27.4268Z" fill="white" stroke="white" stroke-width="6.65236" stroke-miterlimit="10" stroke-linecap="round" stroke-linejoin="round"/>
<path d="M27.4268 10.478V128.559H117.529V10.478H27.4268Z" fill="#85DBF6" stroke="#0587D6" stroke-width="2.98237" stroke-miterlimit="10" stroke-linecap="round" stroke-linejoin="round"/>
<path d="M114.683 125.555H30.2715V13.165H114.683V125.555Z" fill="white"/>
<path d="M98.7179 117.651C104.567 117.651 109.309 112.91 109.309 107.06C109.309 101.211 104.567 96.4695 98.7179 96.4695C92.8687 96.4695 88.127 101.211 88.127 107.06C88.127 112.91 92.8687 117.651 98.7179 117.651Z" stroke="#0587D6" stroke-width="1.53631" stroke-miterlimit="10" stroke-linecap="round" stroke-linejoin="round"/>
<path d="M98.7183 114.015C102.56 114.015 105.674 110.901 105.674 107.06C105.674 103.218 102.56 100.104 98.7183 100.104C94.8771 100.104 91.7632 103.218 91.7632 107.06C91.7632 110.901 94.8771 114.015 98.7183 114.015Z" fill="#0587D6"/>
<path d="M109.309 52.5259H35.6465" stroke="#0587D6" stroke-width="1.53631" stroke-miterlimit="10" stroke-linecap="round" stroke-linejoin="round"/>
<path d="M109.309 60.271H35.6465" stroke="#0587D6" stroke-width="1.53631" stroke-miterlimit="10" stroke-linecap="round" stroke-linejoin="round"/>
<path d="M109.309 68.0166H35.6465" stroke="#0587D6" stroke-width="1.53631" stroke-miterlimit="10" stroke-linecap="round" stroke-linejoin="round"/>
<path d="M74.5325 85.0884H35.6465" stroke="#0587D6" stroke-width="1.53631" stroke-miterlimit="10" stroke-linecap="round" stroke-linejoin="round"/>
<path d="M74.5325 92.6758H35.6465" stroke="#0587D6" stroke-width="1.53631" stroke-miterlimit="10" stroke-linecap="round" stroke-linejoin="round"/>
<path d="M74.5325 100.264H35.6465" stroke="#0587D6" stroke-width="1.53631" stroke-miterlimit="10" stroke-linecap="round" stroke-linejoin="round"/>
<path d="M74.5324 115.122H59.3574" stroke="#0587D6" stroke-width="1.53631" stroke-miterlimit="10" stroke-linecap="round" stroke-linejoin="round"/>
<path d="M50.8215 115.122H35.6465" stroke="#0587D6" stroke-width="1.53631" stroke-miterlimit="10" stroke-linecap="round" stroke-linejoin="round"/>
<path d="M93.6592 132.353C73.742 123.817 64.8899 105.954 63.9415 94.7313C62.993 84.6146 62.6769 72.601 62.9931 57.9002C73.4259 57.426 83.5425 55.0549 93.6592 51.7354C103.618 55.0549 113.735 57.426 124.325 57.9002C124.642 72.443 124.326 84.4565 123.377 94.7313C122.271 105.796 113.418 123.817 93.6592 132.353Z" stroke="white" stroke-width="5.46934" stroke-miterlimit="10" stroke-linecap="round" stroke-linejoin="round"/>
<path fill-rule="evenodd" clip-rule="evenodd" d="M93.6592 132.353C73.742 123.817 64.8899 105.954 63.9415 94.7313C62.993 84.6146 62.6769 72.601 62.9931 57.9002C73.4259 57.426 83.5425 55.0549 93.6592 51.7354C103.618 55.0549 113.735 57.426 124.325 57.9002C124.642 72.443 124.326 84.4565 123.377 94.7313C122.271 105.796 113.418 123.817 93.6592 132.353Z" fill="#00A2E5"/>
<path fill-rule="evenodd" clip-rule="evenodd" d="M64.0996 96.9444C64.0996 96.3121 63.9415 95.5218 63.9415 94.8895C62.993 84.7728 62.6769 72.7592 62.9931 58.0584C73.4259 57.5842 83.5425 55.2131 93.6592 51.8936C103.618 55.2131 113.735 57.5842 124.325 58.0584C124.642 72.6012 124.326 84.6147 123.377 94.8895C123.377 95.5218 123.219 96.1541 123.219 96.9444C115.79 99.4736 105.357 100.896 93.8174 100.896C82.1199 100.738 71.529 99.3155 64.0996 96.9444Z" fill="#85DBF6"/>
<path fill-rule="evenodd" clip-rule="evenodd" d="M114.684 100.738C115.79 98.0503 116.422 95.5211 116.422 93.15C117.371 83.1914 117.371 73.5489 117.371 66.1195C107.412 65.6453 104.567 65.3291 93.8179 63.5903C83.0689 65.3291 80.0655 65.6453 70.1069 66.1195C70.1069 73.5489 70.1069 83.1914 71.0553 93.15C71.2134 95.5211 72.0038 98.2084 72.7942 100.738C77.8525 103.583 85.282 105.322 93.8179 105.322C102.196 105.322 109.625 103.741 114.684 100.738Z" fill="#85DBF6"/>
<path d="M106.147 84.1406H97.295V75.7627H90.1818V84.1406H81.3296V90.9377H90.1818V99.1575H97.295V90.9377H106.147V84.1406Z" fill="#0587D6"/>
<path d="M93.6592 132.353C73.742 123.817 64.8899 105.954 63.9415 94.7313C62.993 84.6146 62.6769 72.601 62.9931 57.9002C73.4259 57.426 83.5425 55.0549 93.6592 51.7354C103.618 55.0549 113.735 57.426 124.325 57.9002C124.642 72.443 124.326 84.4565 123.377 94.7313C122.271 105.796 113.418 123.817 93.6592 132.353Z" stroke="#0587D6" stroke-width="2.69388" stroke-miterlimit="10" stroke-linecap="round" stroke-linejoin="round"/>
<path d="M93.6595 125.397C105.041 120.971 115.474 104.374 116.58 93.4665C117.529 83.5078 117.529 73.8654 117.529 66.4359C107.57 65.9617 104.725 65.1713 93.9756 61.5356C83.2267 65.0133 80.2233 65.8036 70.2646 66.4359C70.2646 73.8654 70.2647 83.5078 71.2131 93.4665C71.8454 104.057 82.4363 120.813 93.6595 125.397Z" stroke="white" stroke-width="1.38773" stroke-miterlimit="10" stroke-linecap="round" stroke-linejoin="round"/>
<path d="M58.7253 39.2483C56.8284 39.2483 55.4058 38.774 54.2993 37.9837C53.3508 37.0352 52.5605 35.6126 52.2443 33.7157C51.612 34.6641 50.8217 35.2964 49.8732 35.7706C48.9248 36.2449 47.8182 36.561 46.5536 36.561C44.6568 36.561 43.2341 36.0868 42.1276 34.9803C41.1792 34.0318 40.5469 32.6092 40.5469 30.8704C40.5469 29.9219 40.8631 28.8154 41.1792 27.867C41.6534 26.9185 42.4437 26.1282 43.3922 25.1797C44.3406 24.3894 45.7633 23.599 47.5021 22.9667L51.612 21.386V19.6472C51.612 19.331 51.7701 19.173 51.9282 19.0149C52.0862 18.8568 52.2443 18.6987 52.5604 18.6987H54.9315C55.2477 18.6987 55.4058 18.8568 55.5638 19.0149C55.7219 19.173 55.7219 19.331 55.7219 19.6472V30.3962C55.7219 31.8188 55.88 32.7673 56.3542 33.2415C56.8284 33.7157 57.6187 34.0318 58.8833 34.0318H60.148C60.3061 34.0318 60.4641 34.0318 60.4641 34.1899C60.6221 34.348 60.6222 34.5061 60.6222 34.6641V37.9837C60.6222 38.616 60.306 38.9321 59.5157 38.9321H58.7253V39.2483ZM47.6602 32.293C48.4505 32.293 49.2409 32.135 49.8732 31.8188C50.5055 31.5027 50.9797 31.0284 51.2958 30.3962C51.612 29.7639 51.77 29.1316 51.77 28.4993V25.654L48.6086 26.7605C47.344 27.2347 46.3956 27.7089 45.9214 28.3412C45.2891 28.9735 44.9729 29.6058 44.9729 30.2381C44.9729 30.8704 45.2891 31.5027 45.7633 31.9769C46.2375 31.9769 46.8698 32.293 47.6602 32.293ZM72.6357 39.4063C72.0034 39.4063 71.5293 39.4063 70.897 39.2483C70.2647 39.0902 69.7904 38.9321 69.1581 38.774C68.5258 38.4579 67.8936 38.2998 67.2613 37.8256C66.4709 37.5094 65.6806 37.0352 64.8902 36.4029C64.416 37.1933 63.9418 37.6675 63.3095 38.1417C62.6772 38.4579 62.2029 38.774 61.5706 38.9321C60.9383 39.0902 60.4641 39.0902 59.8318 39.0902C59.5157 39.0902 59.1995 38.9321 59.1995 38.4579V35.1384C59.1995 34.348 59.5157 34.0318 60.306 34.0318C60.7803 34.0318 61.0964 33.8738 61.4126 33.7157C61.7287 33.5576 62.0448 33.2415 62.361 32.7673C62.6771 32.293 63.1513 31.6607 63.6255 30.7123C64.574 28.9735 65.3644 27.7089 66.3128 26.7605C67.2612 25.812 68.0516 25.1797 69.0001 24.8636C69.9485 24.5474 70.7389 24.3894 71.6873 24.3894C72.6358 24.3894 73.5842 24.5474 74.5326 24.8636C75.4811 25.1797 76.2714 25.812 76.9037 26.7605C77.6941 27.5508 78.3264 28.8154 78.8006 30.3962C79.1168 31.3446 79.591 32.135 79.9072 32.6092C80.2233 33.0834 80.6975 33.5576 81.1717 33.7157C81.6459 33.8738 82.2782 34.0318 82.9105 34.0318C83.2266 34.0318 83.5428 34.1899 83.5428 34.6641V37.9837C83.5428 38.774 83.2267 39.0902 82.4363 39.0902C81.4879 39.0902 80.5395 38.9321 79.9072 38.4579C79.1168 37.9837 78.4844 37.3514 77.8521 36.4029C77.3779 37.3514 76.5876 38.1417 75.6392 38.616C74.6907 39.2483 73.5842 39.4063 72.6357 39.4063ZM72.6357 34.9803C73.268 34.9803 73.9003 34.8222 74.2165 34.5061C74.6907 34.1899 74.8488 33.5576 75.0068 32.7673C75.0068 32.135 74.8488 31.3446 74.5326 30.8704C74.2165 30.2381 73.7423 29.7639 73.2681 29.2896C72.7938 28.9735 72.1615 28.6573 71.5292 28.6573C71.055 28.6573 70.5808 28.8154 70.1066 28.9735C69.6324 29.1316 69.1581 29.6058 68.6839 30.2381C68.2097 30.8704 67.5774 31.6607 66.9451 32.7673C68.0516 33.3995 69.0001 33.8738 69.6324 34.1899C70.2647 34.5061 70.8969 34.6641 71.3712 34.8222C71.6873 34.8222 72.1615 34.9803 72.6357 34.9803ZM82.4363 39.2483C82.1201 39.2483 81.804 39.0902 81.804 38.616V35.2964C81.804 34.5061 82.1201 34.1899 82.9105 34.1899C84.3332 34.1899 85.2816 33.8738 85.9139 33.2415C86.5462 32.6092 86.7043 31.6607 86.7043 30.08V26.6024C86.7043 25.9701 87.0204 25.654 87.6527 25.654H90.0238C90.6561 25.654 90.9723 25.9701 90.9723 26.6024V30.08C90.9723 31.0284 91.1303 31.8188 91.2884 32.4511C91.6045 33.0834 92.0788 33.3995 92.7111 33.7157C93.3433 34.0318 94.2918 34.0318 95.3983 34.0318C95.7145 34.0318 96.0306 34.1899 96.0306 34.6641V37.9837C96.0306 38.774 95.7145 39.0902 94.9241 39.0902C93.3434 39.0902 91.9207 38.774 90.6561 38.2998C89.3915 37.8256 88.6012 36.8772 87.9689 35.6126C87.4946 36.8772 86.7042 37.8256 85.7558 38.2998C84.8074 38.9321 83.7009 39.2483 82.4363 39.2483ZM86.8623 46.3616C86.7043 46.5196 86.5462 46.5196 86.3881 46.5196C86.23 46.5196 86.072 46.3616 85.9139 46.3616L84.3332 44.7808C84.1751 44.6227 84.1751 44.4647 84.1751 44.3066C84.1751 44.1485 84.1751 43.9905 84.3332 43.8324L85.9139 42.2516C86.072 42.0936 86.23 42.0936 86.3881 42.0936C86.5462 42.0936 86.7043 42.0936 86.8623 42.2516L88.4431 43.8324C88.6011 43.9905 88.7592 44.1485 88.7592 44.3066C88.7592 44.4647 88.7592 44.6227 88.4431 44.7808L86.8623 46.3616ZM92.2369 46.3616C92.0788 46.5196 91.9207 46.5196 91.7627 46.5196C91.6046 46.5196 91.4464 46.3616 91.2884 46.3616L89.5496 44.7808C89.3915 44.6227 89.3916 44.4647 89.3916 44.3066C89.3916 44.1485 89.3915 43.9905 89.5496 43.8324L91.2884 42.2516C91.4464 42.0936 91.6046 42.0936 91.7627 42.0936C91.9207 42.0936 92.0788 42.0936 92.2369 42.2516L93.8176 43.8324C93.9757 43.9905 94.1338 44.1485 94.1338 44.3066C94.1338 44.4647 94.1337 44.6227 93.8176 44.7808L92.2369 46.3616ZM95.2402 39.2483C95.0821 39.2483 94.9241 39.2483 94.766 39.0902C94.6079 38.9321 94.608 38.774 94.608 38.616V35.1384C94.608 34.8222 94.766 34.5061 94.9241 34.348C95.0822 34.1899 95.3983 34.1899 95.7145 34.1899H96.0306C97.1371 34.1899 97.9274 33.8738 98.4017 33.2415C98.8759 32.6092 99.192 31.8188 99.192 30.5542C99.192 30.08 99.192 29.7639 99.192 29.4477C99.192 29.1316 99.034 28.6573 99.034 28.3412L98.4017 25.3378C98.2436 25.0217 98.4017 24.7055 98.5598 24.5474C98.7179 24.3894 98.8759 24.2313 99.192 24.2313L101.405 23.7571C102.037 23.599 102.512 23.9151 102.67 24.5474L103.46 28.1831C103.618 28.6573 103.618 29.2896 103.776 29.9219C103.934 30.5542 103.934 31.0284 103.934 31.5027C103.934 33.7157 103.302 35.6126 102.195 37.0352C101.089 38.4579 99.3502 39.0902 97.2952 39.0902H95.2402V39.2483ZM99.192 46.5196C99.0339 46.6777 98.8759 46.6777 98.7178 46.6777C98.5597 46.6777 98.2437 46.5196 98.0856 46.5196L96.5049 44.7808C96.3468 44.6227 96.1887 44.4647 96.1887 44.3066C96.1887 44.1485 96.3468 43.9905 96.5049 43.8324L98.0856 42.0936C98.2437 41.9355 98.4017 41.7774 98.7178 41.7774C99.034 41.7774 99.0339 41.9355 99.192 42.0936L100.773 43.8324C100.931 43.9905 101.089 44.1485 101.089 44.3066C101.089 44.4647 101.089 44.7808 100.773 44.9389L99.192 46.5196Z" fill="#0587D6"/>
</svg>
