<svg width="28" height="20" viewBox="0 0 28 20" fill="none" xmlns="http://www.w3.org/2000/svg">
<path d="M25.5 1.50001H22.28C22.0575 1.49887 21.8412 1.57375 21.6667 1.71238C21.4922 1.85099 21.37 2.04508 21.32 2.2627L20.3 6.27687L10.3 4.26979C9.23594 4.06037 8.13898 4.08883 7.0872 4.35314C6.0352 4.61746 5.0544 5.11114 4.2142 5.79907C3.374 6.48698 2.6952 7.35223 2.2262 8.33329C1.757 9.31436 1.5092 10.3871 1.5 11.4752C1.5 12.0075 1.7108 12.518 2.0858 12.8944C2.4608 13.2708 2.9696 13.4823 3.5 13.4823H12.3L14.3 16.6535C14.6614 17.2189 15.1584 17.6841 15.7454 18.0067C16.3324 18.3292 16.9907 18.4988 17.66 18.5H19.86C20.031 18.4986 20.1988 18.4532 20.3474 18.3683C20.4959 18.2832 20.6203 18.1616 20.7086 18.0145C20.7968 17.8676 20.8461 17.7004 20.8516 17.5288C20.8571 17.3574 20.8187 17.1872 20.74 17.0348L18.98 13.5425H24.5C25.0304 13.5425 25.5391 13.3311 25.9142 12.9546C26.2893 12.5783 26.5 12.0677 26.5 11.5354V2.50356C26.5 2.2374 26.3946 1.98213 26.2071 1.79393C26.0196 1.60573 25.7652 1.50001 25.5 1.50001Z" stroke="url(#paint0_linear_511_5080)" stroke-width="2" stroke-linecap="round" stroke-linejoin="round"/>
<defs>
<linearGradient id="paint0_linear_511_5080" x1="-9.61111" y1="29.3611" x2="19.1829" y2="-10.5366" gradientUnits="userSpaceOnUse">
<stop stop-color="#017AC3"/>
<stop offset="1" stop-color="#65CFF0"/>
</linearGradient>
</defs>
</svg>
