<svg width="26" height="24" viewBox="0 0 26 24" fill="none" xmlns="http://www.w3.org/2000/svg">
<path d="M23.4998 5C23.4998 4.20435 23.1837 3.44129 22.6211 2.87868C22.0585 2.31607 21.2954 2 20.4998 2H20.3288C20.1212 1.41549 19.7379 0.909511 19.2314 0.551443C18.7249 0.193376 18.12 0.000756748 17.4998 0L7.49977 0C6.87949 0.000756748 6.27464 0.193376 5.76815 0.551443C5.26167 0.909511 4.87835 1.41549 4.67077 2H4.49977C3.89363 2.00399 3.30293 2.1915 2.80546 2.53783C2.308 2.88415 1.92711 3.37305 1.71297 3.94011C1.49884 4.50717 1.4615 5.1258 1.60587 5.7145C1.75025 6.3032 2.06957 6.83435 2.52177 7.238L4.06977 19.62C4.22232 20.8286 4.81027 21.9402 5.72349 22.7464C6.63671 23.5527 7.81255 23.9984 9.03077 24H15.9688C17.1869 23.9982 18.3626 23.5524 19.2758 22.7462C20.189 21.94 20.777 20.8285 20.9298 19.62L22.4778 7.238C22.7976 6.95918 23.0542 6.6153 23.2304 6.22935C23.4067 5.84341 23.4985 5.42428 23.4998 5ZM19.6168 14H16.4168C15.5248 8.713 9.46977 8.716 8.57877 14H5.37877L4.62877 8H20.3668L19.6168 14ZM14.4998 15C14.3948 18.954 10.6048 18.953 10.4998 15C10.6048 11.046 14.3998 11.047 14.4998 15ZM4.49977 4H5.49977C5.76498 4 6.01934 3.89464 6.20687 3.70711C6.39441 3.51957 6.49977 3.26522 6.49977 3C6.49977 2.73478 6.60512 2.48043 6.79266 2.29289C6.9802 2.10536 7.23455 2 7.49977 2H17.4998C17.765 2 18.0193 2.10536 18.2069 2.29289C18.3944 2.48043 18.4998 2.73478 18.4998 3C18.4998 3.26522 18.6051 3.51957 18.7927 3.70711C18.9802 3.89464 19.2346 4 19.4998 4H20.4998C20.765 4 21.0193 4.10536 21.2069 4.29289C21.3944 4.48043 21.4998 4.73478 21.4998 5C21.4998 5.26522 21.3944 5.51957 21.2069 5.70711C21.0193 5.89464 20.765 6 20.4998 6H4.49977C4.23455 6 3.9802 5.89464 3.79266 5.70711C3.60512 5.51957 3.49977 5.26522 3.49977 5C3.49977 4.73478 3.60512 4.48043 3.79266 4.29289C3.9802 4.10536 4.23455 4 4.49977 4ZM18.9448 19.372C18.8541 20.0974 18.5017 20.7648 17.9537 21.2487C17.4057 21.7326 16.6998 21.9998 15.9688 22H9.03077C8.29952 22 7.59343 21.733 7.04522 21.2491C6.49702 20.7651 6.14444 20.0976 6.05377 19.372L5.63277 16H8.58077C9.47277 21.287 15.5288 21.284 16.4188 16H19.3668L18.9448 19.372Z" fill="url(#paint0_linear_548_17180)"/>
<defs>
<linearGradient id="paint0_linear_548_17180" x1="33.2688" y1="39.3333" x2="-9.10168" y2="2.77058" gradientUnits="userSpaceOnUse">
<stop stop-color="#017AC3"/>
<stop offset="1" stop-color="#65CFF0"/>
</linearGradient>
</defs>
</svg>
