<svg width="24" height="23" viewBox="0 0 24 23" fill="none" xmlns="http://www.w3.org/2000/svg">
<path d="M21.3077 1H2.69231C1.75767 1 1 1.76751 1 2.71429V11.2857C1 12.2325 1.75767 13 2.69231 13H21.3077C22.2424 13 23 12.2325 23 11.2857V2.71429C23 1.76751 22.2424 1 21.3077 1Z" stroke="white" stroke-width="2" stroke-linecap="round" stroke-linejoin="round"/>
<path d="M19 12V8.66667C19 8.22463 18.8155 7.80072 18.4874 7.48815C18.1593 7.1756 17.7141 7 17.25 7H6.75C6.28587 7 5.84075 7.1756 5.51256 7.48815C5.18438 7.80072 5 8.22463 5 8.66667V12" stroke="white" stroke-width="2" stroke-linecap="round" stroke-linejoin="round"/>
<path d="M4 20H4.2C5.7464 20 7 18.9971 7 17.76V16" stroke="white" stroke-width="2" stroke-linecap="round" stroke-linejoin="round"/>
<path d="M20 20H19.8C18.2536 20 17 18.9971 17 17.76V16" stroke="white" stroke-width="2" stroke-linecap="round" stroke-linejoin="round"/>
<path d="M12 22V16" stroke="white" stroke-width="2" stroke-linecap="round" stroke-linejoin="round"/>
</svg>
