<svg width="15" height="16" viewBox="0 0 15 16" fill="none" xmlns="http://www.w3.org/2000/svg">
<path d="M6 0.27781C6.09761 0.396423 6.15741 0.541582 6.17168 0.694533C6.18594 0.847483 6.154 1.0012 6.08 1.13581C5.50186 2.19728 5.19993 3.3871 5.202 4.59581C5.202 8.61681 8.48 11.8728 12.52 11.8728C13.047 11.8728 13.56 11.8178 14.053 11.7128C14.2041 11.6801 14.3615 11.6926 14.5056 11.7488C14.6497 11.805 14.774 11.9024 14.863 12.0288C14.957 12.1603 15.0049 12.3191 14.9993 12.4806C14.9937 12.6421 14.9349 12.7972 14.832 12.9218C14.0477 13.8852 13.0582 14.6615 11.9358 15.194C10.8134 15.7265 9.58632 16.0018 8.344 15.9998C3.734 15.9998 0 12.2858 0 7.70981C0 4.26581 2.114 1.31181 5.124 0.0598102C5.27394 -0.00355793 5.44039 -0.016564 5.59835 0.0227459C5.75631 0.0620557 5.89725 0.151559 6 0.27781Z" fill="url(#paint0_linear_541_18911)"/>
<defs>
<linearGradient id="paint0_linear_541_18911" x1="21.6663" y1="26.2216" x2="-6.66877" y2="1.19161" gradientUnits="userSpaceOnUse">
<stop stop-color="#017AC3"/>
<stop offset="1" stop-color="#65CFF0"/>
</linearGradient>
</defs>
</svg>
