<svg width="26" height="26" viewBox="0 0 26 26" fill="none" xmlns="http://www.w3.org/2000/svg">
<path d="M10.5248 5.83679C11.5736 3.22213 12.098 1.91479 12.9998 1.91479C13.9016 1.91479 14.426 3.22213 15.4748 5.83679L15.5236 5.95855C16.1161 7.4357 16.4124 8.17428 17.0162 8.6232C17.62 9.07212 18.4126 9.1431 19.9978 9.28507L20.2844 9.31074C22.8788 9.54309 24.176 9.65927 24.4536 10.4846C24.7312 11.3099 23.7678 12.1863 21.8411 13.9393L21.1981 14.5243C20.2227 15.4117 19.735 15.8553 19.5077 16.4368C19.4653 16.5453 19.4301 16.6564 19.4022 16.7695C19.2528 17.3757 19.3956 18.0194 19.6812 19.3067L19.7701 19.7074C20.295 22.0731 20.5575 23.256 20.0992 23.7663C19.928 23.9569 19.7055 24.0942 19.4582 24.1616C18.7966 24.3422 17.8573 23.5768 15.9787 22.046C14.7452 21.0408 14.1284 20.5382 13.4203 20.4252C13.1417 20.3807 12.8579 20.3807 12.5793 20.4252C11.8712 20.5382 11.2544 21.0408 10.0209 22.046C8.14226 23.5768 7.20295 24.3422 6.54135 24.1616C6.29413 24.0942 6.07158 23.9569 5.90035 23.7663C5.44211 23.256 5.70456 22.0731 6.22946 19.7074L6.31836 19.3067C6.60397 18.0194 6.74678 17.3757 6.59737 16.7695C6.5695 16.6564 6.53425 16.5453 6.49185 16.4368C6.26455 15.8553 5.77688 15.4117 4.80154 14.5243L4.1585 13.9393C2.23178 12.1863 1.26841 11.3099 1.54598 10.4846C1.82356 9.65927 3.12076 9.54309 5.71518 9.31074L6.00177 9.28507C7.58699 9.1431 8.3796 9.07212 8.9834 8.6232C9.5872 8.17428 9.88346 7.4357 10.476 5.95855L10.5248 5.83679Z" stroke="#C2C2C2" stroke-width="2"/>
</svg>
