<svg width="28" height="20" viewBox="0 0 28 20" fill="none" xmlns="http://www.w3.org/2000/svg">
<path d="M2.5 1.50001H5.72C5.94252 1.49887 6.15882 1.57375 6.3333 1.71238C6.50778 1.85099 6.63004 2.04508 6.68 2.2627L7.7 6.27687L17.7 4.26979C18.7641 4.06037 19.861 4.08883 20.9128 4.35314C21.9648 4.61746 22.9456 5.11114 23.7858 5.79907C24.626 6.48698 25.3048 7.35223 25.7738 8.33329C26.243 9.31436 26.4908 10.3871 26.5 11.4752C26.5 12.0075 26.2892 12.518 25.9142 12.8944C25.5392 13.2708 25.0304 13.4823 24.5 13.4823H15.7L13.7 16.6535C13.3386 17.2189 12.8416 17.6841 12.2546 18.0067C11.6676 18.3292 11.0093 18.4988 10.34 18.5H8.14C7.969 18.4986 7.8012 18.4532 7.65264 18.3683C7.50408 18.2832 7.37972 18.1616 7.29144 18.0145C7.20318 17.8676 7.15392 17.7004 7.14842 17.5288C7.14292 17.3574 7.18134 17.1872 7.26 17.0348L9.02 13.5425H3.5C2.96956 13.5425 2.46086 13.3311 2.08578 12.9546C1.71071 12.5783 1.5 12.0677 1.5 11.5354V2.50356C1.5 2.2374 1.60536 1.98213 1.79289 1.79393C1.98043 1.60573 2.23478 1.50001 2.5 1.50001Z" stroke="url(#paint0_linear_553_17192)" stroke-width="2" stroke-linecap="round" stroke-linejoin="round"/>
<defs>
<linearGradient id="paint0_linear_553_17192" x1="37.6111" y1="29.3611" x2="8.8171" y2="-10.5366" gradientUnits="userSpaceOnUse">
<stop stop-color="#017AC3"/>
<stop offset="1" stop-color="#65CFF0"/>
</linearGradient>
</defs>
</svg>
