<svg width="28" height="28" viewBox="0 0 28 28" fill="none" xmlns="http://www.w3.org/2000/svg">
<circle cx="13.999" cy="9.50024" r="3.375" stroke="url(#paint0_linear_643_11372)" stroke-width="2.25" stroke-linecap="round"/>
<path d="M17.6755 9.5C17.9738 8.98321 18.4653 8.60611 19.0417 8.45167C19.6181 8.29722 20.2322 8.37807 20.749 8.67644C21.2658 8.97481 21.6429 9.46625 21.7974 10.0427C21.9518 10.6191 21.8709 11.2332 21.5726 11.75C21.2742 12.2668 20.7828 12.6439 20.2064 12.7983C19.63 12.9528 19.0158 12.8719 18.499 12.5736C17.9822 12.2752 17.6051 11.7837 17.4507 11.2073C17.2962 10.6309 17.3771 10.0168 17.6755 9.5L17.6755 9.5Z" stroke="url(#paint1_linear_643_11372)" stroke-width="2.25"/>
<path d="M6.42742 9.5C6.72579 8.98321 7.21723 8.60611 7.79363 8.45167C8.37004 8.29722 8.98419 8.37807 9.50098 8.67644C10.0178 8.97481 10.3949 9.46625 10.5493 10.0427C10.7038 10.6191 10.6229 11.2332 10.3245 11.75C10.0262 12.2668 9.53472 12.6439 8.95832 12.7983C8.38192 12.9528 7.76777 12.8719 7.25098 12.5736C6.73419 12.2752 6.35709 11.7837 6.20264 11.2073C6.0482 10.6309 6.12905 10.0168 6.42742 9.5L6.42742 9.5Z" stroke="url(#paint2_linear_643_11372)" stroke-width="2.25"/>
<path d="M19.4943 20.7498L18.3914 20.9719L18.5732 21.8748H19.4943V20.7498ZM23.8127 19.5169L22.7524 19.893L22.7524 19.893L23.8127 19.5169ZM17.1309 17.0491L16.4504 16.1532L15.1493 17.1415L16.5367 18.0044L17.1309 17.0491ZM22.8531 19.6248H19.4943V21.8748H22.8531V19.6248ZM22.7524 19.893C22.7445 19.8707 22.7372 19.8284 22.7465 19.777C22.7554 19.7284 22.7755 19.6915 22.7945 19.6678C22.8307 19.6227 22.8607 19.6248 22.8531 19.6248V21.8748C24.1423 21.8748 25.4115 20.6591 24.8729 19.1409L22.7524 19.893ZM19.6274 17.3748C21.4742 17.3748 22.3305 18.7035 22.7524 19.893L24.8729 19.1409C24.3498 17.6659 22.9445 15.1248 19.6274 15.1248V17.3748ZM17.8113 17.945C18.2439 17.6165 18.8197 17.3748 19.6274 17.3748V15.1248C18.3203 15.1248 17.2681 15.5322 16.4504 16.1532L17.8113 17.945ZM16.5367 18.0044C17.7058 18.7315 18.1954 19.9987 18.3914 20.9719L20.5971 20.5276C20.3519 19.3102 19.6695 17.3032 17.725 16.0938L16.5367 18.0044Z" fill="url(#paint3_linear_643_11372)"/>
<path d="M10.8705 17.0502L11.4648 18.0054L12.8517 17.1426L11.5511 16.1544L10.8705 17.0502ZM4.18826 19.5177L3.12798 19.1416L4.18826 19.5177ZM8.50763 20.7505V21.8755H9.42864L9.61048 20.9726L8.50763 20.7505ZM8.3735 17.3755C9.18145 17.3755 9.75735 17.6173 10.1899 17.9459L11.5511 16.1544C10.7334 15.5331 9.68094 15.1255 8.3735 15.1255V17.3755ZM5.24853 19.8937C5.67046 18.7042 6.52671 17.3755 8.3735 17.3755V15.1255C5.05642 15.1255 3.65116 17.6666 3.12798 19.1416L5.24853 19.8937ZM5.14786 19.6255C5.14024 19.6255 5.1702 19.6235 5.20645 19.6686C5.22546 19.6922 5.24554 19.7291 5.2544 19.7778C5.26375 19.8291 5.25646 19.8714 5.24853 19.8937L3.12798 19.1416C2.58945 20.6598 3.8586 21.8755 5.14786 21.8755V19.6255ZM8.50763 19.6255H5.14786V21.8755H8.50763V19.6255ZM9.61048 20.9726C9.80646 19.9996 10.296 18.7325 11.4648 18.0054L10.2762 16.0949C8.33221 17.3044 7.64995 19.311 7.40477 20.5284L9.61048 20.9726Z" fill="url(#paint4_linear_643_11372)"/>
<path d="M14.001 16.2498C18.019 16.2498 19.1669 19.1198 19.4948 20.7597C19.6167 21.369 19.1223 21.8748 18.501 21.8748H9.50098C8.87966 21.8748 8.3853 21.369 8.50714 20.7597C8.83509 19.1198 9.983 16.2498 14.001 16.2498Z" stroke="url(#paint5_linear_643_11372)" stroke-width="2.25" stroke-linecap="round"/>
<defs>
<linearGradient id="paint0_linear_643_11372" x1="22.499" y1="19.7502" x2="6.46554" y2="4.64309" gradientUnits="userSpaceOnUse">
<stop stop-color="#017AC3"/>
<stop offset="1" stop-color="#65CFF0"/>
</linearGradient>
<linearGradient id="paint1_linear_643_11372" x1="25.999" y1="18.3125" x2="13.9739" y2="6.98213" gradientUnits="userSpaceOnUse">
<stop stop-color="#017AC3"/>
<stop offset="1" stop-color="#65CFF0"/>
</linearGradient>
<linearGradient id="paint2_linear_643_11372" x1="14.751" y1="18.3125" x2="2.72586" y2="6.98213" gradientUnits="userSpaceOnUse">
<stop stop-color="#017AC3"/>
<stop offset="1" stop-color="#65CFF0"/>
</linearGradient>
<linearGradient id="paint3_linear_643_11372" x1="26.861" y1="23.6248" x2="19.2827" y2="12.9358" gradientUnits="userSpaceOnUse">
<stop stop-color="#017AC3"/>
<stop offset="1" stop-color="#65CFF0"/>
</linearGradient>
<linearGradient id="paint4_linear_643_11372" x1="13.8644" y1="23.6255" x2="6.2862" y2="12.9362" gradientUnits="userSpaceOnUse">
<stop stop-color="#017AC3"/>
<stop offset="1" stop-color="#65CFF0"/>
</linearGradient>
<linearGradient id="paint5_linear_643_11372" x1="24.626" y1="25.4685" x2="16.3127" y2="9.80264" gradientUnits="userSpaceOnUse">
<stop stop-color="#017AC3"/>
<stop offset="1" stop-color="#65CFF0"/>
</linearGradient>
</defs>
</svg>
