<?xml version="1.0" encoding="utf-8"?><svg viewBox="0 0 12 18" xmlns="http://www.w3.org/2000/svg" xmlns:xlink="http://www.w3.org/1999/xlink"><style>:root>svg{display:none}:root>svg:target{display:block}</style><svg viewBox="0 0 12 18" id="arrow-left" xmlns="http://www.w3.org/2000/svg"><path fill-rule="evenodd" clip-rule="evenodd" d="M4.571 8.999l6.857-6.058c.357-.315.57-.755.57-1.228 0-.233-.053-.462-.151-.673a1.713 1.713 0 00-.418-.555A1.986 1.986 0 0010.114 0c-.241 0-.481.042-.706.125a1.907 1.907 0 00-.608.36L.572 7.77a1.71 1.71 0 00-.42.555 1.58 1.58 0 000 1.348c.099.21.243.399.42.554l8.227 7.285c.176.157.383.28.608.363a2.047 2.047 0 001.414 0c.225-.083.432-.206.607-.363.177-.155.321-.343.42-.554a1.582 1.582 0 000-1.347 1.708 1.708 0 00-.42-.555m0 0L4.571 8.999l6.857 6.057z"/></svg><svg viewBox="0 0 12 18" id="arrow-right" xmlns="http://www.w3.org/2000/svg"><path fill-rule="evenodd" clip-rule="evenodd" d="M7.429 9.001L.572 15.06a1.642 1.642 0 00-.57 1.228c0 .233.053.462.152.673.098.21.241.399.417.555.356.314.829.485 1.315.485.241 0 .481-.042.706-.125.225-.082.432-.204.608-.36l8.228-7.285a1.71 1.71 0 00.42-.555 1.582 1.582 0 000-1.348 1.708 1.708 0 00-.42-.554L3.201.488a1.901 1.901 0 00-.608-.363 2.046 2.046 0 00-1.414 0A1.899 1.899 0 00.57.487C.393.643.25.831.15 1.042a1.58 1.58 0 000 1.347c.1.212.244.4.42.555m0 0l6.86 6.057L.572 2.944z"/></svg></svg>