<svg width="24" height="25" viewBox="0 0 24 25" fill="none" xmlns="http://www.w3.org/2000/svg">
<path fill-rule="evenodd" clip-rule="evenodd" d="M11.9574 0.913086C18.1483 0.913086 23.2366 6.00142 23.2366 12.1922C23.2366 18.383 18.1483 23.4714 11.9574 23.4714C5.76662 23.4714 0.678291 18.383 0.678291 12.1922C0.593485 6.00142 5.68182 0.913086 11.9574 0.913086Z" fill="#0587D6"/>
<path fill-rule="evenodd" clip-rule="evenodd" d="M11.9574 2.35498C17.385 2.35498 21.8797 6.76486 21.8797 12.2772C21.8797 17.7048 17.4698 22.1995 11.9574 22.1995C6.52987 22.1995 2.03516 17.7896 2.03516 12.2772C2.03516 6.76486 6.44506 2.35498 11.9574 2.35498Z" fill="#00A2E5"/>
<path fill-rule="evenodd" clip-rule="evenodd" d="M13.5687 17.8745L10.5157 15.8391C10.2613 15.6695 9.92207 15.3303 9.83726 14.9063C9.75246 14.5671 9.83727 14.143 10.0069 13.9734L10.1765 13.8038L9.15883 14.4823C8.48038 14.8215 7.71712 14.7367 7.29309 14.6519L4.91854 13.8038C4.2401 13.6342 3.98567 12.7861 4.32489 12.1925C4.57931 11.6837 5.17296 11.5141 5.34257 11.5141L16.1129 6.93453C16.4521 6.76492 17.1305 6.68014 17.7242 7.01936C18.3178 7.5282 18.233 8.2066 18.233 8.46102L16.8761 17.2808C16.7913 17.7897 16.5369 18.6377 15.6888 18.7225C14.756 18.6377 13.9079 18.1289 13.5687 17.8745Z" fill="#0587D6"/>
<path fill-rule="evenodd" clip-rule="evenodd" d="M8.81971 13.6343L13.8233 10.4117C14.0777 10.2421 14.6713 9.81804 14.8409 10.0725C14.9257 10.1573 14.7561 10.6661 14.5865 10.7509L10.8551 14.0583C10.6855 14.1431 10.6006 14.3976 10.6854 14.652C10.6854 14.8216 10.855 14.9912 11.0247 15.1608L14.0777 17.1962C14.5865 17.4506 15.0953 17.8746 15.689 17.7898C16.0282 17.705 16.3674 17.2809 16.3674 16.9417L17.7243 8.12194C17.7243 7.86752 17.7243 7.52828 17.5547 7.35867C17.3851 7.18906 16.9611 7.27386 16.7067 7.35867L5.93632 11.9382C5.6819 12.023 5.34269 12.1078 5.25788 12.447C5.17308 12.6166 5.25787 12.9559 5.42748 13.0407L7.80205 13.8887C7.88686 13.8887 8.48048 13.8887 8.81971 13.6343Z" fill="white"/>
</svg>
