<svg width="152" height="142" viewBox="0 0 152 142" fill="none" xmlns="http://www.w3.org/2000/svg">
<path fill-rule="evenodd" clip-rule="evenodd" d="M11.4668 38.6587H24.2892C63.2496 38.6587 91.8535 47.8645 91.8535 58.3855C91.8535 63.3172 84.9491 72.1942 80.8393 78.1123C74.5925 86.9893 65.7155 92.2498 60.9482 102.113C57.496 109.018 50.756 116.251 42.5365 116.251H20.0151C0.94582 93.5649 -2.17759 67.9201 11.4668 38.6587Z" fill="#00A2E5" stroke="#0587D6" stroke-width="1.40619" stroke-miterlimit="79.8403" stroke-linecap="round" stroke-linejoin="round"/>
<path fill-rule="evenodd" clip-rule="evenodd" d="M52.8934 95.7015V92.7425C52.8934 85.8381 67.3597 64.303 69.8255 60.5221V57.7274C69.8255 54.7684 73.6065 52.1382 76.8943 52.1382C79.0314 52.1382 81.0041 53.4533 82.4836 54.9328C83.9631 54.9328 85.2782 55.2616 85.2782 56.4123C85.2782 56.7411 85.2782 57.2343 85.1138 57.5631L59.9621 105.565H41.7148L47.3041 94.3864C48.948 94.5508 50.9207 95.2084 52.5646 95.7015C54.2085 96.1947 53.3865 95.8659 52.8934 95.7015Z" fill="white"/>
<path d="M52.8934 95.7015V92.7425C52.8934 85.8381 67.3597 64.303 69.8255 60.5221V57.7274C69.8255 54.7684 73.6065 52.1382 76.8943 52.1382C79.0314 52.1382 81.0041 53.4533 82.4836 54.9328C83.9631 54.9328 85.2782 55.2616 85.2782 56.4123C85.2782 56.7411 85.2782 57.2343 85.1138 57.5631L59.9621 105.565H41.7148L47.3041 94.3864C50.2631 94.7152 52.8934 95.8659 55.688 97.181" stroke="#0587D6" stroke-width="1.40619" stroke-miterlimit="79.8403" stroke-linecap="round" stroke-linejoin="round"/>
<path d="M82.6483 54.769L67.6888 83.2085C61.2776 86.6607 56.6747 92.7431 54.5376 102.442" stroke="#0587D6" stroke-width="1.40619" stroke-miterlimit="79.8403" stroke-linecap="round" stroke-linejoin="round"/>
<path d="M43.1938 102.606H61.6055" stroke="#0587D6" stroke-width="1.40619" stroke-miterlimit="79.8403" stroke-linecap="round" stroke-linejoin="round"/>
<path d="M71.9629 2C106.156 2 134.595 26.9873 140.02 59.5365" stroke="#0587D6" stroke-width="2.81222" stroke-miterlimit="79.8403" stroke-linecap="round" stroke-linejoin="round"/>
<path d="M125.882 113.785C113.389 129.567 93.8264 139.923 72.1269 139.923C63.9074 139.923 56.0167 138.444 48.6191 135.813" stroke="#0587D6" stroke-width="2.81222" stroke-miterlimit="79.8403" stroke-linecap="round" stroke-linejoin="round"/>
<path d="M91.5249 137.128C103.963 137.128 114.046 127.045 114.046 114.607C114.046 102.169 103.963 92.0854 91.5249 92.0854C79.0866 92.0854 69.0034 102.169 69.0034 114.607C69.0034 127.045 79.0866 137.128 91.5249 137.128Z" stroke="white" stroke-width="5.6246" stroke-miterlimit="79.8403" stroke-linecap="round" stroke-linejoin="round"/>
<path fill-rule="evenodd" clip-rule="evenodd" d="M63.4142 121.676L119.636 110.497L111.252 80.9072C93.0044 82.3867 78.3737 89.2911 62.0991 99.3189L63.4142 121.676Z" fill="#00A2E5"/>
<path d="M63.4136 121.676L119.635 110.497" stroke="#0587D6" stroke-width="1.40619" stroke-miterlimit="79.8403" stroke-linecap="round" stroke-linejoin="round"/>
<path fill-rule="evenodd" clip-rule="evenodd" d="M69.0034 114.607C69.0034 102.278 79.1956 92.0854 91.5249 92.0854C103.854 92.0854 114.046 102.278 114.046 114.607C114.046 126.936 103.854 137.128 91.5249 137.128C79.1956 137.128 69.0034 126.936 69.0034 114.607ZM109.279 114.607C109.279 104.908 101.388 97.0171 91.6892 97.0171C81.9902 97.0171 74.0995 104.908 74.0995 114.607C74.0995 124.306 81.9902 132.197 91.6892 132.197C101.388 132.197 109.279 124.306 109.279 114.607Z" fill="#00A2E5"/>
<path d="M91.5249 137.128C103.963 137.128 114.046 127.045 114.046 114.607C114.046 102.169 103.963 92.0854 91.5249 92.0854C79.0866 92.0854 69.0034 102.169 69.0034 114.607C69.0034 127.045 79.0866 137.128 91.5249 137.128Z" stroke="#0587D6" stroke-width="2.81222" stroke-miterlimit="79.8403" stroke-linecap="round" stroke-linejoin="round"/>
<path d="M91.5253 132.197C101.24 132.197 109.115 124.322 109.115 114.607C109.115 104.893 101.24 97.0173 91.5253 97.0173C81.8107 97.0173 73.9355 104.893 73.9355 114.607C73.9355 124.322 81.8107 132.197 91.5253 132.197Z" fill="white"/>
<path d="M91.5248 116.744C92.705 116.744 93.6618 115.787 93.6618 114.607C93.6618 113.427 92.705 112.47 91.5248 112.47C90.3445 112.47 89.3877 113.427 89.3877 114.607C89.3877 115.787 90.3445 116.744 91.5248 116.744Z" stroke="#0587D6" stroke-width="1.40619" stroke-miterlimit="79.8403" stroke-linecap="round" stroke-linejoin="round"/>
<path fill-rule="evenodd" clip-rule="evenodd" d="M91.5251 108.853C90.7031 108.853 89.8812 108.524 89.388 107.867L87.0865 104.743C86.2646 103.757 85.607 101.784 87.0865 101.127C88.4017 100.798 89.8812 100.305 91.3607 100.305C92.8402 100.305 94.3197 100.469 95.6348 101.127C97.1143 101.62 96.128 103.757 95.6348 104.743L93.3334 107.867C93.3334 108.524 92.347 108.853 91.5251 108.853Z" fill="#00A2E5"/>
<path fill-rule="evenodd" clip-rule="evenodd" d="M86.2643 112.798C86.0999 113.62 85.2779 114.113 84.6204 114.442L80.8394 115.592C79.6887 115.921 77.3872 116.086 77.3872 114.442C77.3872 112.962 77.5516 111.647 78.2092 110.168C78.5379 108.688 79.3599 107.537 80.0175 106.222C81.0038 104.907 82.6477 106.387 83.4696 107.373L85.9355 110.332C86.2643 111.154 86.593 112.14 86.2643 112.798Z" fill="#00A2E5"/>
<path fill-rule="evenodd" clip-rule="evenodd" d="M88.4014 119.045C88.8946 119.374 89.5521 120.36 89.5521 121.182L89.3877 125.127C89.3877 126.278 88.8946 128.58 87.2507 128.086C85.9356 127.758 84.6204 126.936 83.3053 125.949C82.1546 124.963 81.0039 124.141 80.3463 122.99C79.36 121.675 81.3326 120.525 82.4834 120.196L86.0999 118.881C86.9219 118.552 87.9082 118.716 88.4014 119.045Z" fill="#00A2E5"/>
<path fill-rule="evenodd" clip-rule="evenodd" d="M96.9494 112.798C97.1138 113.62 97.9357 114.113 98.5933 114.442L102.374 115.592C103.525 115.921 105.826 116.086 105.826 114.442C105.826 112.962 105.662 111.647 105.005 110.168C104.676 108.688 103.854 107.537 103.196 106.222C102.21 104.907 100.566 106.387 99.744 107.373L97.2782 110.332C96.785 111.154 96.785 112.14 96.9494 112.798Z" fill="#00A2E5"/>
<path fill-rule="evenodd" clip-rule="evenodd" d="M94.9769 119.045C94.4837 119.374 93.8262 120.36 93.8262 121.182L93.9906 125.127C93.9906 126.278 94.4837 128.58 96.1276 128.086C97.4428 127.758 98.7579 126.936 100.073 125.949C101.224 124.963 102.374 124.141 103.032 122.99C104.018 121.675 102.046 120.525 100.895 120.196L97.2784 118.881C96.4564 118.552 95.4701 118.716 94.9769 119.045Z" fill="#00A2E5"/>
<path d="M91.5251 108.853C90.7031 108.853 89.8812 108.524 89.388 107.867L87.0865 104.743C86.2646 103.757 85.607 101.784 87.0865 101.127C88.4017 100.798 89.8812 100.305 91.3607 100.305C92.8402 100.305 94.3197 100.469 95.6348 101.127C97.1143 101.62 96.128 103.757 95.6348 104.743L93.3334 107.867C93.3334 108.524 92.347 108.853 91.5251 108.853Z" stroke="#0587D6" stroke-width="1.40619" stroke-miterlimit="79.8403" stroke-linecap="round" stroke-linejoin="round"/>
<path d="M86.2643 112.798C86.0999 113.62 85.2779 114.113 84.6204 114.442L80.8394 115.592C79.6887 115.921 77.3872 116.086 77.3872 114.442C77.3872 112.962 77.5516 111.647 78.2092 110.168C78.5379 108.688 79.3599 107.537 80.0175 106.222C81.0038 104.907 82.6477 106.387 83.4696 107.373L85.9355 110.332C86.2643 111.154 86.593 112.14 86.2643 112.798Z" stroke="#0587D6" stroke-width="1.40619" stroke-miterlimit="79.8403" stroke-linecap="round" stroke-linejoin="round"/>
<path d="M88.4014 119.045C88.8946 119.374 89.5521 120.36 89.5521 121.182L89.3877 125.127C89.3877 126.278 88.8946 128.58 87.2507 128.086C85.9356 127.758 84.6204 126.936 83.3053 125.949C82.1546 124.963 81.0039 124.141 80.3463 122.99C79.36 121.675 81.3326 120.525 82.4834 120.196L86.0999 118.881C86.9219 118.552 87.9082 118.716 88.4014 119.045Z" stroke="#0587D6" stroke-width="1.40619" stroke-miterlimit="79.8403" stroke-linecap="round" stroke-linejoin="round"/>
<path d="M96.9494 112.798C97.1138 113.62 97.9357 114.113 98.5933 114.442L102.374 115.592C103.525 115.921 105.826 116.086 105.826 114.442C105.826 112.962 105.662 111.647 105.005 110.168C104.676 108.688 103.854 107.537 103.196 106.222C102.21 104.907 100.566 106.387 99.744 107.373L97.2782 110.332C96.785 111.154 96.785 112.14 96.9494 112.798Z" stroke="#0587D6" stroke-width="1.40619" stroke-miterlimit="79.8403" stroke-linecap="round" stroke-linejoin="round"/>
<path d="M94.9769 119.045C94.4837 119.374 93.8262 120.36 93.8262 121.182L93.9906 125.127C93.9906 126.278 94.4837 128.58 96.1276 128.086C97.4428 127.758 98.7579 126.936 100.073 125.949C101.224 124.963 102.374 124.141 103.032 122.99C104.018 121.675 102.046 120.525 100.895 120.196L97.2784 118.881C96.4564 118.552 95.4701 118.716 94.9769 119.045Z" stroke="#0587D6" stroke-width="1.40619" stroke-miterlimit="79.8403" stroke-linecap="round" stroke-linejoin="round"/>
<path d="M91.5253 132.197C101.24 132.197 109.115 124.322 109.115 114.607C109.115 104.893 101.24 97.0173 91.5253 97.0173C81.8107 97.0173 73.9355 104.893 73.9355 114.607C73.9355 124.322 81.8107 132.197 91.5253 132.197Z" stroke="#0587D6" stroke-width="1.40619" stroke-miterlimit="79.8403" stroke-linecap="round" stroke-linejoin="round"/>
<path d="M120.293 112.634C120.787 113.62 122.102 114.442 124.403 114.113C127.855 113.62 131.308 112.469 134.267 110.99C138.376 108.853 140.02 104.579 142.65 101.291C145.445 97.6743 149.062 95.0441 149.062 90.6055C149.062 83.5368 143.472 77.7831 143.472 70.8787C143.472 68.4129 144.952 66.1114 144.952 63.81C144.952 61.3441 141.5 59.7002 139.363 59.7002L120.951 58.2207" stroke="white" stroke-width="5.6246" stroke-miterlimit="79.8403" stroke-linecap="round" stroke-linejoin="round"/>
<path d="M80.5104 77.9482C74.2636 86.8253 65.3866 92.0858 60.6193 101.949C57.1671 108.854 50.4271 116.087 42.2076 116.087H36.7827" stroke="#00A2E5" stroke-width="5.6246" stroke-miterlimit="79.8403" stroke-linecap="round" stroke-linejoin="round"/>
<path fill-rule="evenodd" clip-rule="evenodd" d="M25.6045 121.676H63.4142V114.607C63.4142 98.9897 75.9078 86.4961 91.5249 86.4961C105.662 86.4961 117.334 97.017 119.307 110.497C119.471 111.812 120.129 114.936 124.238 114.278C127.691 113.785 131.143 112.634 134.102 111.155C138.212 109.018 139.856 104.743 142.486 101.456C145.28 97.839 148.897 95.2087 148.897 90.7702C148.897 83.7014 143.308 77.9478 143.308 71.0434C143.308 68.5776 144.787 66.2761 144.787 63.9746C144.787 61.5088 141.335 59.8649 139.198 59.8649L120.786 58.3854C94.9771 42.7683 75.7434 33.0693 36.4542 33.0693H13.9328L11.1382 38.4942H23.9606C62.921 38.4942 91.5249 47.7 91.5249 58.221C91.5249 63.1527 84.6205 72.0298 80.5107 77.9478C74.2639 86.8248 65.3869 92.0853 60.6196 101.949C57.1674 108.853 50.4274 116.086 42.2079 116.086H19.5221L25.6045 121.676Z" fill="#85DBF6"/>
<path fill-rule="evenodd" clip-rule="evenodd" d="M24.125 120.196L20.0152 116.086H42.5367C50.5918 116.086 57.4961 109.018 60.9483 101.949C65.7156 92.2497 74.5927 86.8248 80.8395 77.9478C84.4561 72.8517 90.0454 65.6185 91.5249 60.5225C91.6893 61.3444 91.8537 61.8376 91.8537 62.6595C91.8537 67.5912 84.9493 76.4683 80.8395 82.3863C74.5927 91.2634 65.7156 96.5239 60.9483 106.387C57.4961 113.292 50.7562 120.525 42.5367 120.525L24.125 120.196ZM143.636 75.1532C143.636 74.66 143.636 74.0024 143.801 73.5093C144.952 79.2629 149.226 84.5234 149.226 90.7702C149.226 91.2634 149.226 92.0853 149.061 92.5785C148.075 86.4961 143.636 81.4 143.636 75.1532ZM139.362 63.9746L120.951 62.4951C95.1414 46.8781 75.9078 37.1791 36.6186 37.1791H14.0972L13.2753 38.6586H11.1382L13.9328 33.0693H36.4542C75.9078 33.0693 94.9771 42.7683 120.786 58.3854L139.198 59.8649C141.499 60.0293 144.787 61.6732 144.787 63.9746C144.787 64.961 144.623 65.7829 144.458 66.6049C143.636 65.1254 141.335 64.139 139.362 63.9746Z" fill="white"/>
<path fill-rule="evenodd" clip-rule="evenodd" d="M147.747 85.1815C145.938 80.4142 144.294 75.8113 143.637 71.0439H135.253C133.938 71.0439 133.773 73.3454 133.773 75.1537C133.773 81.0717 142.65 82.3868 147.747 85.1815Z" fill="#00A2E5"/>
<path d="M25.6048 121.676H63.4145V114.607C63.4145 98.9897 75.9081 86.4961 91.5252 86.4961C105.663 86.4961 117.334 97.017 119.307 110.497C119.471 111.812 120.129 114.936 124.239 114.278C127.691 113.785 131.143 112.634 134.102 111.155C138.212 109.018 139.856 104.743 142.486 101.456C145.281 97.839 148.897 95.2087 148.897 90.7702C148.897 83.7014 143.308 77.9478 143.308 71.0434C143.308 68.5776 144.788 66.2761 144.788 63.9746C144.788 61.5088 141.335 59.8649 139.198 59.8649L120.787 58.3854C94.9774 42.7683 75.7437 33.0693 36.4545 33.0693H13.9331" stroke="#0587D6" stroke-width="2.81222" stroke-miterlimit="79.8403" stroke-linecap="round" stroke-linejoin="round"/>
<path d="M11.4673 38.6587H24.2897C63.2501 38.6587 91.854 47.8645 91.854 58.3855C91.854 63.3172 84.9496 72.1942 80.8399 78.1123C74.593 86.9893 65.716 92.2498 60.9487 102.113C57.4965 109.018 50.7565 116.251 42.537 116.251H20.0156" stroke="#0587D6" stroke-width="2.81222" stroke-miterlimit="79.8403" stroke-linecap="round" stroke-linejoin="round"/>
<path d="M47.4683 62.66L25.2757 65.1258C22.3167 65.4546 21.3303 62.3312 22.3167 56.9063C22.6454 54.4405 23.303 51.8102 23.6318 49.3444L25.7688 40.3029L27.4127 38.8234C29.7142 37.1795 33.002 36.522 38.0981 36.522C49.2766 36.522 54.2083 42.9332 54.2083 52.6322C54.5371 57.7283 51.5781 62.1668 47.4683 62.66Z" stroke="#00A2E5" stroke-width="4.21841" stroke-miterlimit="79.8403" stroke-linecap="round" stroke-linejoin="round"/>
<path fill-rule="evenodd" clip-rule="evenodd" d="M24.4538 37.1796C17.2206 55.4268 16.0699 82.2224 17.385 112.799C2.58991 91.757 -4.47886 67.9205 13.2753 35.0425L24.4538 37.1796Z" fill="#85DBF6"/>
<path fill-rule="evenodd" clip-rule="evenodd" d="M20.0153 38.6587L15.9056 65.2899H4.72705C4.89144 56.2484 6.04217 47.0426 13.1109 38.6587H20.0153Z" fill="#00A2E5"/>
<path d="M11.4673 38.6587H22.6458" stroke="#0587D6" stroke-width="2.81222" stroke-miterlimit="79.8403" stroke-linecap="round" stroke-linejoin="round"/>
<path d="M4.39795 65.4546H17.2204" stroke="#0587D6" stroke-width="2.81222" stroke-miterlimit="79.8403" stroke-linecap="round" stroke-linejoin="round"/>
<path d="M43.359 133.676C19.5225 122.826 3.0835 98.825 3.0835 71.0431C3.0835 38.9871 24.9474 12.0271 54.8663 4.30078" stroke="white" stroke-width="5.6246" stroke-miterlimit="79.8403" stroke-linecap="round" stroke-linejoin="round"/>
<path d="M48.455 135.813C21.9882 126.279 2.91895 100.798 2.91895 70.8794C2.91895 32.7409 33.8243 2 71.7983 2" stroke="#0587D6" stroke-width="2.81222" stroke-miterlimit="79.8403" stroke-linecap="round" stroke-linejoin="round"/>
<path d="M17.2207 111.812V79.4276C17.2207 64.4681 19.6866 52.3033 22.81 38.4945C26.2622 34.056 31.3582 32.9053 38.2626 32.9053C51.5782 32.9053 57.9894 41.1248 57.9894 52.6321C57.9894 57.8926 53.5509 74.1672 48.2904 90.113C45.989 97.0174 42.5368 101.62 40.2353 107.374C36.4543 116.744 34.3173 125.95 32.6734 125.95C29.2212 125.786 21.3305 116.415 17.2207 111.812Z" stroke="white" stroke-width="5.6246" stroke-miterlimit="79.8403" stroke-linecap="round" stroke-linejoin="round"/>
<path fill-rule="evenodd" clip-rule="evenodd" d="M17.2207 111.812V79.4276C17.2207 64.4681 19.6866 52.3033 22.81 38.4945C26.2622 34.056 31.3582 32.9053 38.2626 32.9053C51.5782 32.9053 57.9894 41.1248 57.9894 52.6321C57.9894 57.8926 53.5509 74.1672 48.2904 90.113C45.989 97.0174 42.5368 101.62 40.2353 107.374C36.4543 116.744 34.3173 125.95 32.6734 125.95C29.2212 125.786 21.3305 116.415 17.2207 111.812ZM25.6046 65.1257L47.7972 62.6599C51.7426 62.3311 54.5372 57.7282 54.5372 52.7965C54.5372 43.0975 49.6055 36.6862 38.427 36.6862C33.3309 36.6862 30.2075 37.1794 27.7417 38.9877L26.0978 40.4672L23.9607 49.5087C23.4675 51.9745 22.9744 54.6047 22.6456 57.0706C21.6592 62.1667 22.6456 65.4545 25.6046 65.1257Z" fill="#85DBF6"/>
<path fill-rule="evenodd" clip-rule="evenodd" d="M22.81 41.4532V38.6586C26.2622 34.2201 31.3583 33.0693 38.2626 33.0693C51.5782 33.0693 57.9894 41.2888 57.9894 52.7961C57.9894 53.1249 57.9894 53.6181 57.9894 53.9469C57.4963 43.4259 51.0851 36.0284 38.2626 36.0284C31.3583 35.864 26.0978 37.0147 22.81 41.4532ZM22.1524 61.6732C22.3168 64.139 23.4675 65.2898 25.2758 65.1254L47.4685 62.6595C51.2494 62.3307 53.8797 58.3854 54.2085 53.7825C54.2085 54.2756 54.2085 54.9332 54.2085 55.4264C54.2085 60.5225 51.4138 66.2761 47.4685 66.9337L25.2758 69.3995C22.9744 69.5639 21.8236 65.9473 22.1524 61.6732Z" fill="white"/>
<path d="M17.2207 111.812V79.4276C17.2207 64.4681 19.6866 52.3033 22.81 38.4945C26.2622 34.056 31.3582 32.9053 38.2626 32.9053C51.5782 32.9053 57.9894 41.1248 57.9894 52.6321C57.9894 57.8926 53.5509 74.1672 48.2904 90.113C45.989 97.0174 42.5368 101.62 40.2353 107.374C36.4543 116.744 34.3173 125.95 32.6734 125.95C29.2212 125.786 21.3305 116.415 17.2207 111.812Z" stroke="#0587D6" stroke-width="2.81222" stroke-miterlimit="79.8403" stroke-linecap="round" stroke-linejoin="round"/>
<path d="M47.4683 62.66L25.2757 65.1258C22.3167 65.4546 21.3303 62.3312 22.3167 56.9063C22.6454 54.4405 23.303 51.8102 23.6318 49.3444L25.7688 40.3029L27.4127 38.8234C29.7142 37.1795 33.002 36.522 38.0981 36.522C49.2766 36.522 54.2083 42.9332 54.2083 52.6322C54.5371 57.7283 51.5781 62.1668 47.4683 62.66Z" stroke="#0587D6" stroke-width="1.40619" stroke-miterlimit="79.8403" stroke-linecap="round" stroke-linejoin="round"/>
<path d="M143.637 71.0439H135.253C133.938 71.0439 133.773 73.3454 133.773 75.1537C133.773 80.9073 142.651 82.2225 147.911 84.8527" stroke="#0587D6" stroke-width="2.81222" stroke-miterlimit="79.8403" stroke-linecap="round" stroke-linejoin="round"/>
</svg>
