<svg width="185" height="164" viewBox="0 0 185 164" fill="none" xmlns="http://www.w3.org/2000/svg">
<g clip-path="url(#clip0_325_6714)">
<path d="M90.2003 161.4C133.831 161.4 169.2 125.941 169.2 82.2001C169.2 38.4591 133.831 3 90.2003 3C46.5697 3 11.2002 38.4591 11.2002 82.2001C11.2002 125.941 46.5697 161.4 90.2003 161.4Z" stroke="#0587D6" stroke-width="3.225" stroke-miterlimit="79.8403" stroke-linecap="round" stroke-linejoin="round"/>
<path d="M179.8 107.2H1" stroke="white" stroke-width="4.8374" stroke-miterlimit="79.8403" stroke-linecap="round" stroke-linejoin="round"/>
<path d="M13.8003 89.6001V97.6001H20.2003V89.6001" stroke="white" stroke-width="4.8374" stroke-miterlimit="79.8403" stroke-linecap="round" stroke-linejoin="round"/>
<path d="M166.8 89.6001V97.6001H160.4V89.6001" stroke="white" stroke-width="4.8374" stroke-miterlimit="79.8403" stroke-linecap="round" stroke-linejoin="round"/>
<path d="M117.8 97.4001H63" stroke="#0587D6" stroke-width="1.6124" stroke-miterlimit="79.8403" stroke-linecap="round" stroke-linejoin="round"/>
<path d="M179.8 104H1" stroke="white" stroke-width="4.8374" stroke-miterlimit="79.8403" stroke-linecap="round" stroke-linejoin="round"/>
<path d="M173.2 89.6001H7.2002V94.6001H173.2V89.6001Z" stroke="white" stroke-width="4.8374" stroke-miterlimit="79.8403" stroke-linecap="round" stroke-linejoin="round"/>
<path d="M173.2 89.6001H7.2002V94.6001H173.2V89.6001Z" fill="#00A2E5"/>
<path d="M173.2 89.6001H7.2002V94.6001H173.2V89.6001Z" stroke="#0587D6" stroke-width="1.6124" stroke-miterlimit="79.8403" stroke-linecap="round" stroke-linejoin="round"/>
<path fill-rule="evenodd" clip-rule="evenodd" d="M37.1992 95.2002V100H51.7993V95.2002H37.1992Z" fill="#00A2E5"/>
<path d="M56.6005 104C59.6933 104 62.2005 101.493 62.2005 98.4C62.2005 95.3072 59.6933 92.8 56.6005 92.8C53.5077 92.8 51.0005 95.3072 51.0005 98.4C51.0005 101.493 53.5077 104 56.6005 104Z" fill="white"/>
<path d="M56.6005 104C59.6933 104 62.2005 101.493 62.2005 98.4C62.2005 95.3072 59.6933 92.8 56.6005 92.8C53.5077 92.8 51.0005 95.3072 51.0005 98.4C51.0005 101.493 53.5077 104 56.6005 104Z" stroke="#0587D6" stroke-width="1.6124" stroke-miterlimit="79.8403" stroke-linecap="round" stroke-linejoin="round"/>
<path d="M56.6002 100.8C57.9257 100.8 59.0003 99.7255 59.0003 98.4C59.0003 97.0745 57.9257 96 56.6002 96C55.2747 96 54.2002 97.0745 54.2002 98.4C54.2002 99.7255 55.2747 100.8 56.6002 100.8Z" stroke="#0587D6" stroke-width="1.6124" stroke-miterlimit="79.8403" stroke-linecap="round" stroke-linejoin="round"/>
<path d="M32.2001 104C35.2929 104 37.8001 101.493 37.8001 98.4C37.8001 95.3072 35.2929 92.8 32.2001 92.8C29.1073 92.8 26.6001 95.3072 26.6001 98.4C26.6001 101.493 29.1073 104 32.2001 104Z" fill="white"/>
<path d="M32.2001 104C35.2929 104 37.8001 101.493 37.8001 98.4C37.8001 95.3072 35.2929 92.8 32.2001 92.8C29.1073 92.8 26.6001 95.3072 26.6001 98.4C26.6001 101.493 29.1073 104 32.2001 104Z" stroke="#0587D6" stroke-width="1.6124" stroke-miterlimit="79.8403" stroke-linecap="round" stroke-linejoin="round"/>
<path d="M32.2003 100.8C33.5257 100.8 34.6003 99.7255 34.6003 98.4C34.6003 97.0745 33.5257 96 32.2003 96C30.8748 96 29.8003 97.0745 29.8003 98.4C29.8003 99.7255 30.8748 100.8 32.2003 100.8Z" stroke="#0587D6" stroke-width="1.6124" stroke-miterlimit="79.8403" stroke-linecap="round" stroke-linejoin="round"/>
<path d="M37.1992 94.2002H39.3992L41.5992 97.4002H47.7993L49.9993 94.2002H52.1992" stroke="#0587D6" stroke-width="1.6124" stroke-miterlimit="79.8403" stroke-linecap="round" stroke-linejoin="round"/>
<path d="M44.1992 91V97.4" stroke="#0587D6" stroke-width="1.6124" stroke-miterlimit="79.8403" stroke-linecap="round" stroke-linejoin="round"/>
<path d="M50.8 100.6H38" stroke="#0587D6" stroke-width="1.6124" stroke-miterlimit="79.8403" stroke-linecap="round" stroke-linejoin="round"/>
<path fill-rule="evenodd" clip-rule="evenodd" d="M143.6 95.2V99.9999H129V95.2H143.6Z" fill="#00A2E5"/>
<path d="M124.2 104C127.293 104 129.8 101.493 129.8 98.4C129.8 95.3072 127.293 92.8 124.2 92.8C121.107 92.8 118.6 95.3072 118.6 98.4C118.6 101.493 121.107 104 124.2 104Z" fill="white"/>
<path d="M124.2 104C127.293 104 129.8 101.493 129.8 98.4C129.8 95.3072 127.293 92.8 124.2 92.8C121.107 92.8 118.6 95.3072 118.6 98.4C118.6 101.493 121.107 104 124.2 104Z" stroke="#0587D6" stroke-width="1.6124" stroke-miterlimit="79.8403" stroke-linecap="round" stroke-linejoin="round"/>
<path d="M124.2 100.8C125.526 100.8 126.6 99.7255 126.6 98.4C126.6 97.0745 125.526 96 124.2 96C122.875 96 121.8 97.0745 121.8 98.4C121.8 99.7255 122.875 100.8 124.2 100.8Z" stroke="#0587D6" stroke-width="1.6124" stroke-miterlimit="79.8403" stroke-linecap="round" stroke-linejoin="round"/>
<path d="M148.4 104C151.493 104 154 101.493 154 98.4C154 95.3072 151.493 92.8 148.4 92.8C145.307 92.8 142.8 95.3072 142.8 98.4C142.8 101.493 145.307 104 148.4 104Z" fill="white"/>
<path d="M148.4 104C151.493 104 154 101.493 154 98.4C154 95.3072 151.493 92.8 148.4 92.8C145.307 92.8 142.8 95.3072 142.8 98.4C142.8 101.493 145.307 104 148.4 104Z" stroke="#0587D6" stroke-width="1.6124" stroke-miterlimit="79.8403" stroke-linecap="round" stroke-linejoin="round"/>
<path d="M148.4 100.8C149.726 100.8 150.8 99.7255 150.8 98.4C150.8 97.0745 149.726 96 148.4 96C147.075 96 146 97.0745 146 98.4C146 99.7255 147.075 100.8 148.4 100.8Z" stroke="#0587D6" stroke-width="1.6124" stroke-miterlimit="79.8403" stroke-linecap="round" stroke-linejoin="round"/>
<path d="M143.6 94.2H141.4L139.2 97.3999H133L130.8 94.2H128.6" stroke="#0587D6" stroke-width="1.6124" stroke-miterlimit="79.8403" stroke-linecap="round" stroke-linejoin="round"/>
<path d="M136.199 91V97.4" stroke="#0587D6" stroke-width="1.6124" stroke-miterlimit="79.8403" stroke-linecap="round" stroke-linejoin="round"/>
<path d="M129.8 100.6H142.6" stroke="#0587D6" stroke-width="1.6124" stroke-miterlimit="79.8403" stroke-linecap="round" stroke-linejoin="round"/>
<path d="M176 55H5V89H176V55Z" stroke="white" stroke-width="6.45001" stroke-miterlimit="79.8403" stroke-linecap="round" stroke-linejoin="round"/>
<path d="M176 55H5V89H176V55Z" fill="#00A2E5"/>
<path d="M176.4 79.8H4V84.6H176.4V79.8Z" fill="#85DBF6"/>
<path fill-rule="evenodd" clip-rule="evenodd" d="M5.00001 87.2001V59.6001H0V87.2001H5.00001Z" fill="#85DBF6"/>
<path fill-rule="evenodd" clip-rule="evenodd" d="M175.8 87.2001V59.6001H180.8V87.2001H175.8Z" fill="#85DBF6"/>
<path d="M176 55H5V89H176V55Z" stroke="#0587D6" stroke-width="3.225" stroke-miterlimit="79.8403" stroke-linecap="round" stroke-linejoin="round"/>
<path d="M10.6001 88.6V63.8C10.6001 62.8 11.4001 62 12.4001 62H21.8001C22.8001 62 23.6001 62.8 23.6001 63.8V88.8H10.6001V88.6Z" stroke="#0587D6" stroke-width="1.6124" stroke-miterlimit="79.8403" stroke-linecap="round" stroke-linejoin="round"/>
<path fill-rule="evenodd" clip-rule="evenodd" d="M83.0005 67.0002V74.8002C83.0005 75.8002 83.8005 76.6002 84.8005 76.6002H95.8005C96.8005 76.6002 97.6005 75.8002 97.6005 74.8002V67.0002C97.6005 66.0002 96.8005 65.2002 95.8005 65.2002H84.8005C83.8005 65.2002 83.0005 66.0002 83.0005 67.0002Z" fill="white"/>
<path d="M83.0005 67.0002V74.8002C83.0005 75.8002 83.8005 76.6002 84.8005 76.6002H95.8005C96.8005 76.6002 97.6005 75.8002 97.6005 74.8002V67.0002C97.6005 66.0002 96.8005 65.2002 95.8005 65.2002H84.8005C83.8005 65.2002 83.0005 66.0002 83.0005 67.0002Z" stroke="#0587D6" stroke-width="1.6124" stroke-miterlimit="79.8403" stroke-linecap="round" stroke-linejoin="round"/>
<path fill-rule="evenodd" clip-rule="evenodd" d="M28.2002 66.9999V74.8C28.2002 75.8 29.0002 76.6 30.0002 76.6H33.0003C34.0003 76.6 34.8002 75.8 34.8002 74.8V66.9999C34.8002 65.9999 34.0003 65.2 33.0003 65.2H30.0002C29.0002 65.2 28.2002 65.9999 28.2002 66.9999Z" fill="white"/>
<path d="M28.2002 66.9999V74.8C28.2002 75.8 29.0002 76.6 30.0002 76.6H33.0003C34.0003 76.6 34.8002 75.8 34.8002 74.8V66.9999C34.8002 65.9999 34.0003 65.2 33.0003 65.2H30.0002C29.0002 65.2 28.2002 65.9999 28.2002 66.9999Z" stroke="#0587D6" stroke-width="1.6124" stroke-miterlimit="79.8403" stroke-linecap="round" stroke-linejoin="round"/>
<path fill-rule="evenodd" clip-rule="evenodd" d="M13.8003 67.0002V74.8002C13.8003 75.8002 14.6003 76.6002 15.6003 76.6002H18.6003C19.6003 76.6002 20.4003 75.8002 20.4003 74.8002V67.0002C20.4003 66.0002 19.6003 65.2002 18.6003 65.2002H15.6003C14.6003 65.2002 13.8003 66.0002 13.8003 67.0002Z" fill="white"/>
<path d="M13.8003 67.0002V74.8002C13.8003 75.8002 14.6003 76.6002 15.6003 76.6002H18.6003C19.6003 76.6002 20.4003 75.8002 20.4003 74.8002V67.0002C20.4003 66.0002 19.6003 65.2002 18.6003 65.2002H15.6003C14.6003 65.2002 13.8003 66.0002 13.8003 67.0002Z" stroke="#0587D6" stroke-width="1.6124" stroke-miterlimit="79.8403" stroke-linecap="round" stroke-linejoin="round"/>
<path d="M5.00001 59.6001H0V87.2001H5.00001" stroke="#0587D6" stroke-width="3.225" stroke-miterlimit="79.8403" stroke-linecap="round" stroke-linejoin="round"/>
<path fill-rule="evenodd" clip-rule="evenodd" d="M62.2002 66.9999V74.8C62.2002 75.8 63.0002 76.6 64.0002 76.6H75.0003C76.0003 76.6 76.8003 75.8 76.8003 74.8V66.9999C76.8003 65.9999 76.0003 65.2 75.0003 65.2H64.0002C63.0002 65.2 62.2002 65.9999 62.2002 66.9999Z" fill="white"/>
<path d="M62.2002 66.9999V74.8C62.2002 75.8 63.0002 76.6 64.0002 76.6H75.0003C76.0003 76.6 76.8003 75.8 76.8003 74.8V66.9999C76.8003 65.9999 76.0003 65.2 75.0003 65.2H64.0002C63.0002 65.2 62.2002 65.9999 62.2002 66.9999Z" stroke="#0587D6" stroke-width="1.6124" stroke-miterlimit="79.8403" stroke-linecap="round" stroke-linejoin="round"/>
<path fill-rule="evenodd" clip-rule="evenodd" d="M41 66.9999V74.8C41 75.8 41.8 76.6 42.8 76.6H53.8C54.8 76.6 55.6 75.8 55.6 74.8V66.9999C55.6 65.9999 54.8 65.2 53.8 65.2H42.8C42 65.2 41 65.9999 41 66.9999Z" fill="white"/>
<path d="M41 66.9999V74.8C41 75.8 41.8 76.6 42.8 76.6H53.8C54.8 76.6 55.6 75.8 55.6 74.8V66.9999C55.6 65.9999 54.8 65.2 53.8 65.2H42.8C42 65.2 41 65.9999 41 66.9999Z" stroke="#0587D6" stroke-width="1.6124" stroke-miterlimit="79.8403" stroke-linecap="round" stroke-linejoin="round"/>
<path d="M170.2 88.6V63.8C170.2 62.8 169.4 62 168.4 62H159C158 62 157.2 62.8 157.2 63.8V88.8H170.2V88.6Z" stroke="#0587D6" stroke-width="1.6124" stroke-miterlimit="79.8403" stroke-linecap="round" stroke-linejoin="round"/>
<path fill-rule="evenodd" clip-rule="evenodd" d="M152.4 66.9999V74.8C152.4 75.8 151.6 76.6 150.6 76.6H147.6C146.6 76.6 145.8 75.8 145.8 74.8V66.9999C145.8 65.9999 146.6 65.2 147.6 65.2H150.6C151.6 65.2 152.4 65.9999 152.4 66.9999Z" fill="white"/>
<path d="M152.4 66.9999V74.8C152.4 75.8 151.6 76.6 150.6 76.6H147.6C146.6 76.6 145.8 75.8 145.8 74.8V66.9999C145.8 65.9999 146.6 65.2 147.6 65.2H150.6C151.6 65.2 152.4 65.9999 152.4 66.9999Z" stroke="#0587D6" stroke-width="1.6124" stroke-miterlimit="79.8403" stroke-linecap="round" stroke-linejoin="round"/>
<path fill-rule="evenodd" clip-rule="evenodd" d="M167 66.9999V74.8C167 75.8 166.2 76.6 165.2 76.6H162.2C161.2 76.6 160.4 75.8 160.4 74.8V66.9999C160.4 65.9999 161.2 65.2 162.2 65.2H165.2C166.2 65.2 167 65.9999 167 66.9999Z" fill="white"/>
<path d="M167 66.9999V74.8C167 75.8 166.2 76.6 165.2 76.6H162.2C161.2 76.6 160.4 75.8 160.4 74.8V66.9999C160.4 65.9999 161.2 65.2 162.2 65.2H165.2C166.2 65.2 167 65.9999 167 66.9999Z" stroke="#0587D6" stroke-width="1.6124" stroke-miterlimit="79.8403" stroke-linecap="round" stroke-linejoin="round"/>
<path d="M175.8 59.6001H180.8V87.2001H175.8" stroke="#0587D6" stroke-width="3.225" stroke-miterlimit="79.8403" stroke-linecap="round" stroke-linejoin="round"/>
<path fill-rule="evenodd" clip-rule="evenodd" d="M118.4 66.9999V74.8C118.4 75.8 117.6 76.6 116.6 76.6H105.6C104.6 76.6 103.8 75.8 103.8 74.8V66.9999C103.8 65.9999 104.6 65.2 105.6 65.2H116.6C117.8 65.2 118.4 65.9999 118.4 66.9999Z" fill="white"/>
<path d="M118.4 66.9999V74.8C118.4 75.8 117.6 76.6 116.6 76.6H105.6C104.6 76.6 103.8 75.8 103.8 74.8V66.9999C103.8 65.9999 104.6 65.2 105.6 65.2H116.6C117.8 65.2 118.4 65.9999 118.4 66.9999Z" stroke="#0587D6" stroke-width="1.6124" stroke-miterlimit="79.8403" stroke-linecap="round" stroke-linejoin="round"/>
<path fill-rule="evenodd" clip-rule="evenodd" d="M139.6 67.0002V74.8002C139.6 75.8002 138.8 76.6002 137.8 76.6002H126.8C125.8 76.6002 125 75.8002 125 74.8002V67.0002C125 66.0002 125.8 65.2002 126.8 65.2002H137.8C138.6 65.2002 139.6 66.0002 139.6 67.0002Z" fill="white"/>
<path d="M139.6 67.0002V74.8002C139.6 75.8002 138.8 76.6002 137.8 76.6002H126.8C125.8 76.6002 125 75.8002 125 74.8002V67.0002C125 66.0002 125.8 65.2002 126.8 65.2002H137.8C138.6 65.2002 139.6 66.0002 139.6 67.0002Z" stroke="#0587D6" stroke-width="1.6124" stroke-miterlimit="79.8403" stroke-linecap="round" stroke-linejoin="round"/>
<path d="M176.4 79.8H4V84.6H176.4V79.8Z" stroke="#0587D6" stroke-width="1.6124" stroke-miterlimit="79.8403" stroke-linecap="round" stroke-linejoin="round"/>
<path d="M8.7998 68.3999V85.9999" stroke="white" stroke-width="1.6124" stroke-miterlimit="79.8403" stroke-linecap="round" stroke-linejoin="round"/>
<path d="M25 68.3999V85.9999" stroke="white" stroke-width="1.6124" stroke-miterlimit="79.8403" stroke-linecap="round" stroke-linejoin="round"/>
<path d="M171.8 68.3999V85.9999" stroke="white" stroke-width="1.6124" stroke-miterlimit="79.8403" stroke-linecap="round" stroke-linejoin="round"/>
<path d="M155.6 68.3999V85.9999" stroke="white" stroke-width="1.6124" stroke-miterlimit="79.8403" stroke-linecap="round" stroke-linejoin="round"/>
<path d="M13.7998 89.6001V97.6001H20.1998V89.6001" stroke="#0587D6" stroke-width="1.6124" stroke-miterlimit="79.8403" stroke-linecap="round" stroke-linejoin="round"/>
<path d="M179.8 104H1" stroke="#0587D6" stroke-width="1.6124" stroke-miterlimit="79.8403" stroke-linecap="round" stroke-linejoin="round"/>
<path d="M166.8 89.6001V97.6001H160.4V89.6001" stroke="#0587D6" stroke-width="1.6124" stroke-miterlimit="79.8403" stroke-linecap="round" stroke-linejoin="round"/>
<path d="M160.4 92.8H166.8" stroke="#0587D6" stroke-width="1.6124" stroke-miterlimit="79.8403" stroke-linecap="round" stroke-linejoin="round"/>
<path d="M179.8 107.2H1" stroke="#0587D6" stroke-width="1.6124" stroke-miterlimit="79.8403" stroke-linecap="round" stroke-linejoin="round"/>
<path d="M103.2 157L98.0003 146C100.4 145 101.4 142 100.4 139.6C99.4003 137.2 96.4003 136.2 94.0003 137.2L88.8003 126.2C88.2003 125 88.8003 123.6 90.0003 123L160 90.4C161.2 89.8 162.6 90.4 163.2 91.4L168.4 102.4C166 103.4 165 106.4 166 108.8C167 111.2 170 112.2 172.4 111.2L177.6 122.2C178.2 123.4 177.6 124.8 176.6 125.4L106.2 158.2C105.4 158.8 103.8 158.4 103.2 157Z" stroke="white" stroke-width="6.45001" stroke-miterlimit="79.8403" stroke-linecap="round" stroke-linejoin="round"/>
<path fill-rule="evenodd" clip-rule="evenodd" d="M103.2 157L98.0003 146C100.4 145 101.4 142 100.4 139.6C99.4003 137.2 96.4003 136.2 94.0003 137.2L88.8003 126.2C88.2003 125 88.8003 123.6 90.0003 123L160 90.4C161.2 89.8 162.6 90.4 163.2 91.4L168.4 102.4C166 103.4 165 106.4 166 108.8C167 111.2 170 112.2 172.4 111.2L177.6 122.2C178.2 123.4 177.6 124.8 176.6 125.4L106.2 158.2C105.4 158.8 103.8 158.4 103.2 157Z" fill="white"/>
<path d="M103.2 157L98.0003 146C100.4 145 101.4 142 100.4 139.6C99.4003 137.2 96.4003 136.2 94.0003 137.2L88.8003 126.2C88.2003 125 88.8003 123.6 90.0003 123L160 90.4C161.2 89.8 162.6 90.4 163.2 91.4L168.4 102.4C166 103.4 165 106.4 166 108.8C167 111.2 170 112.2 172.4 111.2L177.6 122.2C178.2 123.4 177.6 124.8 176.6 125.4L106.2 158.2C105.4 158.8 103.8 158.4 103.2 157Z" stroke="#0587D6" stroke-width="3.225" stroke-miterlimit="79.8403" stroke-linecap="round" stroke-linejoin="round"/>
<path d="M151.8 99L152.4 100.6" stroke="#0587D6" stroke-width="1.6124" stroke-miterlimit="79.8403" stroke-linecap="round" stroke-linejoin="round"/>
<path d="M153.8 103.2L154.4 104.8" stroke="#0587D6" stroke-width="1.6124" stroke-miterlimit="79.8403" stroke-linecap="round" stroke-linejoin="round"/>
<path d="M155.8 107.6L156.4 109.2" stroke="#0587D6" stroke-width="1.6124" stroke-miterlimit="79.8403" stroke-linecap="round" stroke-linejoin="round"/>
<path d="M157.8 112L158.4 113.6" stroke="#0587D6" stroke-width="1.6124" stroke-miterlimit="79.8403" stroke-linecap="round" stroke-linejoin="round"/>
<path d="M160 116.4L160.6 118" stroke="#0587D6" stroke-width="1.6124" stroke-miterlimit="79.8403" stroke-linecap="round" stroke-linejoin="round"/>
<path d="M161.8 120.6L162.4 122.2" stroke="#0587D6" stroke-width="1.6124" stroke-miterlimit="79.8403" stroke-linecap="round" stroke-linejoin="round"/>
<path d="M164 125.2L164.6 126.8" stroke="#0587D6" stroke-width="1.6124" stroke-miterlimit="79.8403" stroke-linecap="round" stroke-linejoin="round"/>
<path d="M158.4 124.6L149.2 105C148.6 103.4 146.8 102.8 145.4 103.4L100.8 124C99.2004 124.6 98.6004 126.4 99.2004 127.8L108.4 147.4C109 149 110.8 149.6 112.2 149L156.801 128.4C158.401 127.8 159 126 158.4 124.6Z" stroke="#0587D6" stroke-width="1.6124" stroke-miterlimit="79.8403" stroke-linecap="round" stroke-linejoin="round"/>
<path d="M115.4 135.6L144.6 122" stroke="#0587D6" stroke-width="1.6124" stroke-miterlimit="79.8403" stroke-linecap="round" stroke-linejoin="round"/>
<path d="M96.8003 158.8V146.8C99.4003 146.8 101.8 144.6 101.8 142C101.8 139.4 99.6003 137.2 96.8003 137.2V125.2C96.8003 124 97.8003 122.8 99.2003 122.8H176.6C177.8 122.8 179 123.8 179 125.2V137.2C176.4 137.2 174 139.4 174 142C174 144.6 176.2 146.8 179 146.8V158.8C179 160 178 161.2 176.6 161.2H99.2003C97.8003 161.2 96.8003 160 96.8003 158.8Z" stroke="white" stroke-width="6.45001" stroke-miterlimit="79.8403" stroke-linecap="round" stroke-linejoin="round"/>
<path fill-rule="evenodd" clip-rule="evenodd" d="M96.8003 158.8V146.8C99.4003 146.8 101.8 144.6 101.8 142C101.8 139.4 99.6003 137.2 96.8003 137.2V125.2C96.8003 124 97.8003 122.8 99.2003 122.8H176.6C177.8 122.8 179 123.8 179 125.2V137.2C176.4 137.2 174 139.4 174 142C174 144.6 176.2 146.8 179 146.8V158.8C179 160 178 161.2 176.6 161.2H99.2003C97.8003 161.2 96.8003 160 96.8003 158.8Z" fill="white"/>
<path d="M96.8003 158.8V146.8C99.4003 146.8 101.8 144.6 101.8 142C101.8 139.4 99.6003 137.2 96.8003 137.2V125.2C96.8003 124 97.8003 122.8 99.2003 122.8H176.6C177.8 122.8 179 123.8 179 125.2V137.2C176.4 137.2 174 139.4 174 142C174 144.6 176.2 146.8 179 146.8V158.8C179 160 178 161.2 176.6 161.2H99.2003C97.8003 161.2 96.8003 160 96.8003 158.8Z" stroke="#0587D6" stroke-width="3.225" stroke-miterlimit="79.8403" stroke-linecap="round" stroke-linejoin="round"/>
<path d="M165.4 126.4V128.2" stroke="#0587D6" stroke-width="1.6124" stroke-miterlimit="79.8403" stroke-linecap="round" stroke-linejoin="round"/>
<path d="M165.4 131.4V133.2" stroke="#0587D6" stroke-width="1.6124" stroke-miterlimit="79.8403" stroke-linecap="round" stroke-linejoin="round"/>
<path d="M165.4 136.2V138" stroke="#0587D6" stroke-width="1.6124" stroke-miterlimit="79.8403" stroke-linecap="round" stroke-linejoin="round"/>
<path d="M165.4 141.2V143" stroke="#0587D6" stroke-width="1.6124" stroke-miterlimit="79.8403" stroke-linecap="round" stroke-linejoin="round"/>
<path d="M165.4 145.8V147.6" stroke="#0587D6" stroke-width="1.6124" stroke-miterlimit="79.8403" stroke-linecap="round" stroke-linejoin="round"/>
<path d="M165.4 150.8V152.6" stroke="#0587D6" stroke-width="1.6124" stroke-miterlimit="79.8403" stroke-linecap="round" stroke-linejoin="round"/>
<path d="M165.4 155.6V157.4" stroke="#0587D6" stroke-width="1.6124" stroke-miterlimit="79.8403" stroke-linecap="round" stroke-linejoin="round"/>
<path d="M111.4 155.6H154.6C157.8 155.6 160.4 153 160.4 149.8V133.8C160.4 130.6 157.8 128 154.6 128H111.4C108.2 128 105.6 130.6 105.6 133.8V149.8C105.6 153 108.4 155.6 111.4 155.6Z" stroke="#0587D6" stroke-width="1.6124" stroke-miterlimit="79.8403" stroke-linecap="round" stroke-linejoin="round"/>
<path d="M120.201 139.4H146.001" stroke="#0587D6" stroke-width="1.6124" stroke-miterlimit="79.8403" stroke-linecap="round" stroke-linejoin="round"/>
<path d="M117 144.4H149.2" stroke="#0587D6" stroke-width="1.6124" stroke-miterlimit="79.8403" stroke-linecap="round" stroke-linejoin="round"/>
</g>
<defs>
<clipPath id="clip0_325_6714">
<rect width="185" height="164" fill="white"/>
</clipPath>
</defs>
</svg>
