<svg width="25" height="26" viewBox="0 0 25 26" fill="none" xmlns="http://www.w3.org/2000/svg">
<path fill-rule="evenodd" clip-rule="evenodd" d="M0.682617 13.0426C0.682617 6.81302 5.80277 1.69287 12.0323 1.69287C14.507 1.69287 16.7258 2.46089 18.6885 3.74093H15.7871C14.6777 3.22891 13.3977 3.05823 12.1177 3.05823C6.65616 3.05823 2.13334 7.49571 2.13334 13.0426C2.13334 18.5041 6.57082 23.0269 12.1177 23.0269C13.483 23.0269 14.6777 22.7708 15.7871 22.2588H18.6885C16.8111 23.6242 14.507 24.3069 12.0323 24.3069C5.80277 24.3923 0.682617 19.2721 0.682617 13.0426ZM22.0166 13.0426C22.0166 9.88512 20.4806 7.06902 18.2618 5.19163H20.3099C22.1873 7.23969 23.4673 10.0558 23.4673 13.0426C23.4673 16.0293 22.2726 18.8454 20.3099 20.8081H18.1765C20.4806 19.0161 22.0166 16.2 22.0166 13.0426Z" fill="#0587D6"/>
<path fill-rule="evenodd" clip-rule="evenodd" d="M2.90137 13.0423C2.90137 11.8476 3.07208 10.6529 3.5841 9.62889C4.09611 8.51952 6.14418 8.60485 6.99754 7.75149C7.59489 7.15413 6.65618 5.53275 7.25354 5.19141H21.4193C22.1873 5.19141 22.7847 5.78879 22.7847 6.55681V19.5278C22.7847 20.2959 22.1873 20.8933 21.4193 20.8933H7.25354C4.60812 19.1865 2.90137 16.3704 2.90137 13.0423Z" fill="#00A2E5"/>
<path fill-rule="evenodd" clip-rule="evenodd" d="M21.8463 20.7229L10.6673 11.336L3.75502 17.1388C3.66969 16.9681 3.58436 16.6268 3.49902 16.4561L10.4113 10.5679C10.4966 10.4826 10.6673 10.4826 10.9233 10.5679L22.2729 20.1256C22.4436 20.2109 22.4436 20.4669 22.2729 20.6376C22.1876 20.8083 21.9316 20.8083 21.8463 20.7229Z" fill="#85DBF6"/>
<path fill-rule="evenodd" clip-rule="evenodd" d="M9.81364 14.5785L3.66943 9.37297C4.43746 7.66625 5.63214 6.21555 7.16819 5.27686H21.5047C21.7607 5.27686 22.102 5.36218 22.358 5.53285L11.691 14.6638C11.0937 14.9198 10.2403 14.9198 9.81364 14.5785Z" fill="#85DBF6"/>
<path fill-rule="evenodd" clip-rule="evenodd" d="M6.14404 20.1257H21.4192C21.7605 20.1257 22.1018 19.8697 22.1018 19.443V6.55725C22.1018 6.21591 21.8458 5.87452 21.4192 5.87452H6.14404C6.82673 5.27717 7.68008 4.85051 8.53344 4.42383H21.4192C22.5285 4.42383 23.4672 5.36252 23.4672 6.47189V19.443C23.4672 20.5523 22.5285 21.4911 21.4192 21.4911H8.53344C7.68008 21.2351 6.82673 20.723 6.14404 20.1257Z" fill="#0587D6"/>
<path fill-rule="evenodd" clip-rule="evenodd" d="M9.55791 14.7494L3.49902 9.62928C3.58436 9.45861 3.66969 9.11728 3.75502 8.9466L9.98459 14.2374C10.2406 14.4935 10.9233 14.4935 11.3499 14.2374L22.017 5.10648C22.1876 5.02115 22.3583 5.02115 22.5289 5.10648C22.6143 5.27715 22.6143 5.44781 22.5289 5.61848L11.8619 14.7494C11.1793 15.3468 10.1553 15.3468 9.55791 14.7494Z" fill="#0587D6"/>
</svg>
