<svg width="304" height="110" viewBox="0 0 304 110" fill="none" xmlns="http://www.w3.org/2000/svg">
<rect x="-0.5" y="0.5" width="303" height="109" rx="9.5" transform="matrix(-1 0 0 1 303 0)" stroke="#DCDBDB"/>
<path d="M235.514 60.4806C235.514 65.3863 231.566 69.344 226.703 69.344C221.839 69.344 217.891 65.3829 217.891 60.4806C217.891 55.5785 221.835 51.6174 226.703 51.6174C231.569 51.6174 235.514 55.5785 235.514 60.4806Z" fill="#C6C0BE"/>
<path d="M256.664 60.4806C256.664 65.3863 252.716 69.344 247.852 69.344C242.99 69.344 239.042 65.3829 239.042 60.4806C239.042 55.5785 242.99 51.6174 247.852 51.6174C252.716 51.6174 256.664 55.5785 256.664 60.4806Z" fill="#ECDCD6"/>
<path fill-rule="evenodd" clip-rule="evenodd" d="M100.367 50.0548C102.643 47.6209 105.995 47.3244 107.811 47.3244L107.807 47.3209C114.079 47.3209 117.551 52.4885 117.551 57.4528C117.551 63.2583 114.655 69.3464 106.361 69.3395C97.5052 69.336 94.7497 62.0862 94.7497 55.612C94.7497 48.2034 95.5037 45.249 98.1359 42.6015C100.87 39.8512 104.828 38.7352 108.23 37.7758C108.867 37.5963 109.483 37.4223 110.069 37.2442C111.886 36.6926 113.641 36.8718 114.261 38.8955C114.652 40.1641 114.158 41.7396 111.948 42.3394C109.73 42.9428 106.824 43.7563 105.885 44.0356C102.067 45.1698 100.367 46.5694 100.367 50.0548ZM106.347 63.9892C109.401 63.9892 111.67 61.7449 111.67 58.1905V58.1492C111.67 54.5984 109.435 52.3955 106.382 52.3955C103.328 52.3955 101.059 54.6363 101.059 58.1905V58.232C101.059 61.7862 103.294 63.9892 106.347 63.9892ZM81.388 47.0389C74.9483 47.0389 70.1638 51.686 70.1638 58.1878V58.2672C70.1638 64.7723 74.9106 69.3437 81.3161 69.3437C87.7217 69.3437 92.5403 64.6931 92.5403 58.1878V58.112C92.5403 51.6102 87.7936 47.0389 81.388 47.0389ZM86.6592 58.1913C86.6592 61.7456 84.3904 63.9899 81.3367 63.9899C78.283 63.9899 76.0485 61.787 76.0485 58.2327V58.1913C76.0485 54.637 78.3173 52.3962 81.3709 52.3962C84.4246 52.3962 86.6592 54.5991 86.6592 58.1499V58.1913ZM214.374 60.4804C214.374 65.3861 210.425 69.3437 205.559 69.3437C200.693 69.3437 196.747 65.3827 196.747 60.4804C196.747 55.5782 200.693 51.6172 205.559 51.6172C210.425 51.6172 214.374 55.5782 214.374 60.4804ZM130.852 47.0391C127.414 47.0391 124.7 48.1594 122.787 50.0417C120.885 51.955 119.686 54.7061 119.686 57.9432C119.686 61.1803 120.837 64.145 122.883 66.2136C124.892 68.22 127.846 69.3403 131.52 69.3403C133.621 69.3403 135.766 69.1059 137.727 68.313C139.536 67.6132 140.441 66.7271 140.441 65.4482C140.441 64.0969 139.44 62.9764 138.107 62.9764C137.463 62.9764 136.876 63.2162 136.181 63.5004C135.17 63.9138 133.928 64.4209 131.948 64.4209C128.857 64.4209 126.519 62.8834 125.947 60.0392H138.251C140.201 60.0392 141.353 58.7775 141.353 56.5678C141.353 54.4717 140.729 51.9516 138.631 49.8522C136.911 48.1526 134.385 47.0322 130.855 47.0322L130.852 47.0391ZM125.896 55.9644C126.324 53.4926 128.363 51.9069 130.992 51.9069C133.844 51.9069 135.403 53.4719 135.615 55.9644H125.896ZM64.5749 47.3248H64.6092C66.2817 47.3248 67.6423 48.7072 67.6423 50.386V66.0201C67.6423 67.7024 66.2817 69.0641 64.6092 69.0641C62.9367 69.0641 61.5761 67.7024 61.5761 66.0201V52.7647H53.0662V66.0201C53.0662 67.7024 51.709 69.0641 50.0331 69.0641C48.3572 69.0641 47 67.7024 47 66.0201V50.386C47 48.7037 48.3572 47.3248 50.0331 47.3248H50.0674H64.5749ZM163.585 47.3248H153.811C151.679 47.3248 150.507 48.4624 149.863 50.417L145.771 63.9068H144.629C143.217 63.9068 142.066 65.0582 142.066 66.4923C142.066 67.9264 143.217 69.0606 144.629 69.0606H163.585C164.932 69.0606 166.653 68.0058 166.653 65.9856V50.417C166.653 48.3969 164.932 47.3248 163.585 47.3248ZM160.923 63.9068H151.782L154.887 52.482H160.923V63.9068ZM173.224 47.8208C175.099 47.0969 177.323 47.0384 178.982 47.0384V47.0349C184.085 47.0349 189.062 49.5894 189.062 56.3704V66.2197C189.062 67.7918 187.824 69.0569 186.313 69.0569C185.299 69.0569 184.123 68.6294 183.612 67.3573C182.341 68.3502 180.648 69.343 177.961 69.343C173.293 69.343 169.458 66.3817 169.458 61.869C169.458 55.7257 175.438 54.6226 177.93 54.6226C178.859 54.6226 181.655 54.7225 183.342 56.2533C183.342 53.5057 182.022 51.9854 178.797 51.9854C176.998 51.9854 175.758 52.3582 174.748 52.662C174.053 52.8709 173.467 53.0471 172.882 53.0471C171.672 53.0471 170.76 51.9509 170.76 50.6271C170.76 49.3756 171.562 48.4621 173.224 47.8208ZM174.849 61.9276C174.849 63.8858 176.614 65.1648 179.006 65.1648C181.405 65.1648 183.167 63.8858 183.167 61.9276C183.167 59.9695 181.405 58.694 179.006 58.694C176.864 58.694 174.849 59.7179 174.849 61.9276Z" fill="#A69C99"/>
</svg>
