<svg width="35" height="35" viewBox="0 0 35 35" fill="none" xmlns="http://www.w3.org/2000/svg">
<path fill-rule="evenodd" clip-rule="evenodd" d="M30.9707 25.1638L29.519 23.7121C30.6078 21.7764 31.0917 19.5988 31.0917 17.3002C31.0917 9.5575 24.8008 3.14563 16.9371 3.14563C9.19449 3.14563 2.78262 9.43652 2.78262 17.3002C2.78262 17.7841 2.41969 18.389 1.69382 18.389C1.2099 18.389 0.60498 18.026 0.60498 17.3002C0.60498 8.46869 7.86374 1.20996 16.6952 1.20996C25.5267 1.20996 32.7854 8.46869 32.7854 17.3002C33.1483 19.9617 32.4225 22.8652 30.9707 25.1638Z" fill="#0587D6"/>
<path fill-rule="evenodd" clip-rule="evenodd" d="M23.4698 32.664L25.7683 29.3975C26.0103 29.0346 25.8893 28.9136 25.5264 29.0346L25.2844 29.1557C24.9215 29.2766 24.4376 29.6395 24.1956 30.0024L22.139 32.906C22.018 33.2689 21.897 33.6318 22.3809 33.6318C22.8648 33.2689 23.2278 33.0269 23.4698 32.664Z" fill="#0587D6"/>
<path fill-rule="evenodd" clip-rule="evenodd" d="M21.5341 33.1481L20.3243 30.4865C20.2033 30.2446 20.3243 29.7607 20.5663 29.7607H20.6872C20.9292 29.6397 21.4131 29.8817 21.5341 30.1236L22.7439 32.7852C22.8649 33.0271 22.7439 33.511 22.5019 33.511H22.3809C22.018 33.632 21.6551 33.3901 21.5341 33.1481Z" fill="#0587D6"/>
<path fill-rule="evenodd" clip-rule="evenodd" d="M20.5661 33.2689L21.5339 30.0024C21.6549 29.6395 21.4129 29.5186 21.171 29.5186H20.929C20.6871 29.6395 20.2032 29.8815 20.0822 30.3654L19.2354 33.2689C19.2354 33.6318 19.3563 33.9948 19.7193 33.9948C20.2032 34.1158 20.5661 33.7528 20.5661 33.2689Z" fill="#0587D6"/>
<path fill-rule="evenodd" clip-rule="evenodd" d="M19.1144 33.753L18.2675 30.9705C18.1465 30.7286 18.3885 30.2446 18.6305 30.2446H18.7514C18.9934 30.2446 19.4773 30.3656 19.5983 30.7286L20.4452 33.5111C20.5662 33.753 20.3242 34.2369 20.0822 34.2369H19.9612C19.4773 34.2369 19.1144 33.995 19.1144 33.753Z" fill="#0587D6"/>
<path fill-rule="evenodd" clip-rule="evenodd" d="M18.0257 33.7531L19.4774 30.8496C19.5984 30.6076 19.4774 30.3657 19.2355 30.3657H18.9935C18.7515 30.3657 18.2676 30.6077 18.1466 31.0916L16.8159 33.7531C16.6949 34.1161 16.8159 34.479 17.1788 34.6C17.4208 34.2371 17.9047 33.9951 18.0257 33.7531Z" fill="#0587D6"/>
<path fill-rule="evenodd" clip-rule="evenodd" d="M16.4529 33.7531L16.2109 30.8496C16.2109 30.6076 16.4529 30.3657 16.6948 30.3657H16.8158C17.0578 30.3657 17.5417 30.6076 17.5417 30.8496L17.7836 33.7531C17.7836 33.9951 17.5417 34.237 17.2997 34.237H17.1788C16.8158 34.237 16.4529 33.9951 16.4529 33.7531Z" fill="#0587D6"/>
<path fill-rule="evenodd" clip-rule="evenodd" d="M15.4854 33.7533L17.4211 30.9708C17.542 30.7288 17.542 30.4868 17.1791 30.4868H16.9371C16.6952 30.4868 16.0903 30.6078 15.9693 30.9708L14.3966 33.5113C14.2756 33.8742 14.2756 34.2372 14.6385 34.3582C14.7595 34.1162 15.2434 33.9952 15.4854 33.7533Z" fill="#0587D6"/>
<path fill-rule="evenodd" clip-rule="evenodd" d="M13.7915 33.3899L13.9125 30.4864C13.9125 30.2444 14.1544 30.0024 14.6383 30.0024H14.7593C15.0013 30.0024 15.2432 30.3654 15.2432 30.7284L15.1222 33.6318C15.1222 33.8738 14.8803 34.1158 14.3964 34.1158H14.2754C14.1544 34.1158 13.7915 33.7528 13.7915 33.3899Z" fill="#0587D6"/>
<path fill-rule="evenodd" clip-rule="evenodd" d="M12.9448 33.1484L15.2434 30.7288C15.4854 30.4868 15.3644 30.2448 15.1224 30.0029H14.8805C14.6385 29.8819 14.0336 30.1239 13.7917 30.3659L11.735 32.6644C11.4931 33.0274 11.4931 33.3903 11.856 33.5113C12.219 33.6323 12.5819 33.3903 12.9448 33.1484Z" fill="#0587D6"/>
<path fill-rule="evenodd" clip-rule="evenodd" d="M11.251 32.7854L11.7349 29.8819C11.7349 29.64 12.0978 29.398 12.4608 29.519H12.5818C12.8237 29.64 13.0657 29.8819 12.9447 30.3659L12.4608 33.2693C12.4608 33.5113 12.0978 33.7532 11.7349 33.6322H11.6139C11.3719 33.3903 11.251 33.0274 11.251 32.7854Z" fill="#0587D6"/>
<path fill-rule="evenodd" clip-rule="evenodd" d="M10.4044 32.4223L13.066 30.3657C13.3079 30.1238 13.3079 29.8818 13.066 29.6398L12.945 29.5189C12.703 29.3979 12.0981 29.5188 11.8562 29.6398L9.43658 31.5755C9.19462 31.8175 9.07364 32.3013 9.43658 32.4223C9.67854 32.6643 10.0415 32.5433 10.4044 32.4223Z" fill="#0587D6"/>
<path fill-rule="evenodd" clip-rule="evenodd" d="M8.95274 31.6964L10.0415 28.9139C10.1625 28.672 10.4045 28.551 10.7674 28.672L10.8884 28.7929C11.1303 28.9139 11.2513 29.2768 11.1303 29.6398L10.0415 32.4223C9.92056 32.6642 9.6786 32.7852 9.31566 32.6643L9.19467 32.5433C8.95272 32.4223 8.83176 31.9384 8.95274 31.6964Z" fill="#0587D6"/>
<path fill-rule="evenodd" clip-rule="evenodd" d="M8.22666 31.2125L11.1301 29.7608C11.3721 29.6399 11.4931 29.3979 11.2511 29.0349L11.1301 28.914C10.8882 28.793 10.2833 28.793 10.0413 28.914L7.37979 30.3657C7.13783 30.6077 6.89587 30.8496 7.2588 31.2125C7.37978 31.3335 7.74274 31.3335 8.22666 31.2125Z" fill="#0587D6"/>
<path fill-rule="evenodd" clip-rule="evenodd" d="M6.8956 30.2445L8.22638 27.5829C8.34736 27.341 8.71027 27.22 9.07321 27.462L9.1942 27.5829C9.43615 27.7039 9.55715 28.0669 9.43617 28.4298L8.10539 31.0913C7.98441 31.3333 7.62146 31.4543 7.25852 31.2123L7.13758 31.0913C6.89562 30.8494 6.77462 30.4864 6.8956 30.2445Z" fill="#0587D6"/>
<path fill-rule="evenodd" clip-rule="evenodd" d="M6.04926 29.5192L9.19472 28.4303C9.55766 28.3093 9.55767 28.0674 9.31571 27.9464L9.19472 27.8254C8.95276 27.5835 8.46885 27.5835 8.10592 27.7045L5.32342 28.7932C4.96048 29.0352 4.83949 29.2772 5.08144 29.6401C5.20242 29.5191 5.8073 29.6401 6.04926 29.5192Z" fill="#0587D6"/>
<path fill-rule="evenodd" clip-rule="evenodd" d="M4.96028 28.4302L6.89595 26.1317C7.13791 25.8897 7.37988 25.8897 7.74282 26.1317L7.86377 26.2526C8.10572 26.4946 8.10572 26.9785 7.86377 27.2204L5.92813 29.5191C5.68617 29.761 5.4442 29.761 5.08126 29.5191L4.96028 29.398C4.71832 29.1561 4.71832 28.7932 4.96028 28.4302Z" fill="#0587D6"/>
<path fill-rule="evenodd" clip-rule="evenodd" d="M4.35546 27.7037L7.62191 26.9778C7.98484 26.8568 8.1058 26.7358 7.86384 26.4939L7.74289 26.3729C7.50093 26.1309 7.01699 26.01 6.65405 26.131L3.75056 26.8568C3.38763 26.9778 3.0247 27.2198 3.38764 27.7037C3.50862 27.7037 3.87154 27.8247 4.35546 27.7037Z" fill="#0587D6"/>
<path fill-rule="evenodd" clip-rule="evenodd" d="M3.38746 26.4942L5.56507 24.4376C5.80703 24.1956 6.049 24.3166 6.41194 24.5585L6.53292 24.6795C6.6539 24.9215 6.65389 25.4054 6.41194 25.6474L4.23429 27.704C3.99233 27.946 3.7504 27.8249 3.38746 27.583L3.26647 27.462C3.1455 26.9781 3.1455 26.7362 3.38746 26.4942Z" fill="#0587D6"/>
<path fill-rule="evenodd" clip-rule="evenodd" d="M2.78252 25.6474L6.16992 25.5264C6.53286 25.5264 6.65386 25.2844 6.53288 25.0425L6.41189 24.9215C6.29091 24.6796 5.686 24.4376 5.44404 24.5585L2.29861 24.6796C1.93568 24.8005 1.57271 24.9215 1.81467 25.4054C2.05663 25.4054 2.41958 25.6474 2.78252 25.6474Z" fill="#0587D6"/>
<path fill-rule="evenodd" clip-rule="evenodd" d="M2.05655 24.1955L4.47613 22.5018C4.71809 22.3809 5.20202 22.3808 5.323 22.6228L5.44394 22.7437C5.56492 22.9857 5.44397 23.4696 5.20201 23.5906L2.78243 25.2843C2.54047 25.4053 2.05654 25.4053 1.93556 25.1633L1.81457 25.0424C1.57262 24.6794 1.81459 24.4375 2.05655 24.1955Z" fill="#0587D6"/>
<path fill-rule="evenodd" clip-rule="evenodd" d="M1.57283 23.2283L4.83925 23.5913C5.20218 23.5913 5.32318 23.4703 5.2022 23.2283L5.08122 23.1074C4.96024 22.8654 4.59729 22.6234 4.23435 22.3815L1.33086 22.0186C0.967925 22.0186 0.60498 22.1396 0.60498 22.5025C0.967917 22.9864 1.33088 23.2283 1.57283 23.2283Z" fill="#0587D6"/>
<path fill-rule="evenodd" clip-rule="evenodd" d="M1.08903 21.7761L3.75055 20.4454C3.99251 20.3244 4.47643 20.4454 4.47643 20.6874V20.8083C4.59741 21.0503 4.47645 21.5342 4.11351 21.6552L1.45196 22.9859C1.21 23.1069 0.726074 22.9859 0.726074 22.744V22.623C0.726074 22.2601 0.847075 21.8971 1.08903 21.7761Z" fill="#0587D6"/>
<path fill-rule="evenodd" clip-rule="evenodd" d="M0.968069 20.8083L4.23448 21.7761C4.59742 21.8971 4.71843 21.6551 4.71843 21.4132V21.1712C4.59745 20.9292 4.35547 20.4453 3.87156 20.3243L0.968069 19.4775C0.605132 19.4775 0.242188 19.4775 0.242188 19.9614C0.242188 20.3243 0.605132 20.6873 0.968069 20.8083Z" fill="#0587D6"/>
<path fill-rule="evenodd" clip-rule="evenodd" d="M0.605069 19.2353L3.38761 18.2675C3.62957 18.1466 4.11349 18.3885 4.11349 18.6305V18.7514C4.11349 18.9934 3.99249 19.4773 3.75053 19.5983L0.968028 20.5661C0.72607 20.6871 0.242147 20.4451 0.242147 20.2032V20.0822C0.121168 19.7193 0.242132 19.3563 0.605069 19.2353Z" fill="#0587D6"/>
<path fill-rule="evenodd" clip-rule="evenodd" d="M1.45179 18.1466L3.6294 19.2354C3.87135 19.3564 3.99236 19.2354 3.99236 18.9935V18.8725C3.99236 18.6305 3.75038 17.7837 3.6294 17.6627L1.57278 16.6948C1.33082 16.6948 1.08887 17.1788 1.08887 17.5417C1.08887 17.7837 1.20983 18.0256 1.45179 18.1466Z" fill="#0587D6"/>
<path fill-rule="evenodd" clip-rule="evenodd" d="M29.2773 30.7286L30.85 28.0671C31.213 27.3412 31.213 26.7363 30.7291 26.1315L27.3417 22.744C26.8577 22.2601 26.1319 22.2601 25.406 22.5021L22.1396 24.4377C20.6878 24.1958 18.6312 22.2601 17.1794 20.9293C15.7277 19.4775 13.913 17.5419 13.671 15.9692L15.6067 12.7027C15.8487 11.9769 15.9696 11.372 15.3647 10.7671L11.9773 7.37971C11.4934 6.89579 10.8885 6.89575 10.0417 7.25869L7.38012 8.8314C6.53326 9.31531 6.89622 10.4042 7.13818 11.614C8.46895 16.5741 10.8885 19.9615 14.5179 23.4699C18.0263 26.9783 21.4137 29.5188 26.3738 30.8496C27.7046 31.3335 28.7934 31.5755 29.2773 30.7286Z" fill="#0587D6"/>
<path fill-rule="evenodd" clip-rule="evenodd" d="M27.4622 30.2446L26.6153 30.1236L24.9216 29.6397C21.1712 28.3089 18.3887 26.1314 15.2433 23.1069C12.3398 19.9614 10.0412 17.1789 8.71041 13.4286L8.2265 11.8558L8.10551 11.3719C7.86356 10.1621 7.98454 10.1621 8.10551 10.1621L10.7671 8.5894C11.13 8.34744 11.251 8.46842 11.4929 8.5894L14.8803 11.9768C15.0013 12.0978 15.0013 12.0978 15.0013 12.2188L14.8803 12.5817L12.9447 15.7271C12.8237 15.9691 12.8237 16.0901 12.8237 16.453C13.1866 18.6307 15.2433 20.5663 16.574 22.018C17.9048 23.3488 20.3244 25.6474 22.1391 25.8894C22.381 25.8894 22.502 25.8893 22.865 25.7684L26.0104 23.8327L26.3733 23.7118L26.6153 23.8327L30.0027 27.2201C30.1237 27.3411 30.2447 27.4621 30.0027 27.946L28.43 30.6075C28.309 30.2446 28.067 30.2446 27.4622 30.2446Z" fill="#00A2E5"/>
</svg>
