<svg width="25" height="26" viewBox="0 0 25 26" fill="none" xmlns="http://www.w3.org/2000/svg">
<path fill-rule="evenodd" clip-rule="evenodd" d="M0.429199 24.7203L2.14651 18.7097C1.20199 16.9924 0.600941 15.1034 0.600941 12.9568C0.600941 6.68858 5.75287 1.53662 12.0211 1.53662C18.2893 1.53662 23.4412 6.68858 23.4412 12.9568C23.4412 19.225 18.2893 24.3769 12.0211 24.3769C10.0462 24.3769 8.24299 23.8617 6.61154 22.9172L0.429199 24.7203Z" fill="#0587D6"/>
<path fill-rule="evenodd" clip-rule="evenodd" d="M7.29843 21.8012C7.04083 21.6295 6.61149 21.6294 6.26803 21.7153L2.57581 22.6599L3.60621 19.1393C3.69208 18.7959 3.69205 18.3665 3.52031 18.0231C2.66166 16.5634 2.14648 14.8461 2.14648 13.0429C2.14648 7.54748 6.61151 2.99658 12.1928 2.99658C17.7741 2.99658 22.239 7.46161 22.239 13.0429C22.239 18.5383 17.7741 23.0892 12.1928 23.0892C10.3896 23.0892 8.84401 22.574 7.29843 21.8012Z" fill="#85DBF6"/>
<path fill-rule="evenodd" clip-rule="evenodd" d="M7.81383 21.1144C7.29864 20.8568 6.78345 20.8567 6.26826 20.9426L3.69229 21.6295L4.3792 19.3111C4.55093 18.7101 4.46506 18.1949 4.20746 17.5938C3.43467 16.22 3.00537 14.6744 3.00537 12.9571C3.00537 7.80516 7.21278 3.68359 12.2789 3.68359C17.4308 3.68359 21.5523 7.89103 21.5523 12.9571C21.5523 18.1091 17.3449 22.2306 12.2789 22.2306C10.5615 22.3165 9.01595 21.8871 7.81383 21.1144Z" fill="#0587D6"/>
<path fill-rule="evenodd" clip-rule="evenodd" d="M7.98544 20.5993C7.29852 20.2558 6.5257 20.0841 5.92464 20.3417L4.55081 20.6852L4.8084 19.5689C4.98013 18.7961 4.89428 18.0233 4.55081 17.3364C3.77802 16.1343 3.43457 14.6746 3.43457 13.0431C3.43457 8.3205 7.21266 4.45654 12.0211 4.45654C16.8296 4.45654 20.6077 8.23463 20.6077 13.0431C20.6077 17.7657 16.8296 21.6297 12.0211 21.6297C10.6473 21.6297 9.27343 21.2862 7.98544 20.5993Z" fill="white"/>
<path fill-rule="evenodd" clip-rule="evenodd" d="M17.6026 15.7907C17.345 15.619 15.7994 14.9321 15.5418 14.8462C15.2842 14.7603 15.0266 14.6745 14.8549 15.0179C14.6831 15.2755 14.0821 15.9624 13.9104 16.1342C13.7386 16.3059 13.5669 16.3059 13.2234 16.2201C12.9658 16.0483 12.0213 15.7049 10.8192 14.6745C9.9605 13.9017 9.27358 12.8713 9.10185 12.6137C8.93012 12.3561 9.10188 12.0985 9.18774 12.0126C9.27361 11.9268 9.44532 11.6692 9.70292 11.4116C9.87465 11.2398 9.87464 11.154 9.9605 10.8964C10.0464 10.7247 10.0464 10.5529 9.9605 10.2953C9.87464 10.1236 9.2736 8.66386 9.016 7.97694C8.7584 7.37588 8.50082 7.46176 8.32909 7.46176C8.15736 7.46176 7.98561 7.46176 7.72802 7.46176C7.55628 7.46176 7.2128 7.54765 6.9552 7.80525C6.69761 8.06284 5.9248 8.83563 5.9248 10.3812C5.9248 11.9268 6.95521 13.3006 7.12695 13.5582C7.29868 13.7299 9.18772 16.8211 12.2789 18.1091C13.0517 18.3667 13.481 18.6243 13.9962 18.796C14.769 18.9678 15.3701 18.9678 15.8853 18.8819C16.4863 18.796 17.6884 18.1091 17.8602 17.4222C18.1178 16.7352 18.1178 16.0484 18.0319 15.9625C18.1178 16.0484 17.8602 16.0483 17.6026 15.7907Z" fill="#00A2E5"/>
<path fill-rule="evenodd" clip-rule="evenodd" d="M13.996 19.2254C13.4808 19.1395 12.9656 18.9678 12.2787 18.5385C9.10163 17.1646 7.12674 14.0734 7.04088 13.9017C6.95501 13.73 5.66699 12.1844 5.66699 10.5529C5.66699 8.92148 6.52564 8.06286 6.78324 7.80526C7.1267 7.4618 7.55604 7.29004 7.81364 7.29004C7.98537 7.29004 8.15711 7.29004 8.41471 7.29004C8.41471 7.29004 8.67228 7.29007 8.92988 7.37594C9.10161 7.4618 9.27335 7.63352 9.53095 8.06285C9.78855 8.74978 10.3896 10.1236 10.4755 10.2953C10.5614 10.4671 10.6472 10.8105 10.4755 11.154C10.3896 11.3257 10.3038 11.4975 10.132 11.7551C10.0462 11.9268 9.87444 12.0985 9.61685 12.3561L9.53095 12.442V12.5279C9.70268 12.7855 10.3038 13.73 11.1624 14.5028C12.2787 15.4473 13.1373 15.7049 13.4808 15.9625C13.5667 15.9625 13.5666 15.9625 13.5666 16.0484H13.6525C13.8242 15.8766 14.4253 15.1897 14.597 14.9321C14.6829 14.8462 14.7688 14.7604 14.8546 14.6745C14.9405 14.5887 15.0264 14.5886 15.1122 14.5886C15.284 14.5886 15.4557 14.6745 15.7133 14.6745C15.9709 14.7604 17.5165 15.5331 17.7741 15.7049C17.9458 15.7907 18.2893 15.8766 18.461 16.0484L18.5469 16.1342C18.5469 16.1342 18.5469 16.2201 18.6327 16.2201C18.7186 16.4777 18.6327 17.1646 18.461 17.8515C18.2034 18.7102 16.8295 19.483 16.1426 19.5688C15.5416 19.5688 14.8546 19.5689 13.996 19.2254ZM15.885 18.7102C16.4002 18.6243 17.4306 18.0233 17.6023 17.5081C17.7741 16.907 17.7741 16.5636 17.7741 16.3918C17.6882 16.3918 17.6023 16.306 17.4306 16.2201C17.173 16.0484 15.7133 15.3614 15.4557 15.2755C15.3698 15.2755 15.3698 15.2756 15.284 15.1897H15.1981C15.1981 15.1897 15.1981 15.1897 15.1122 15.2755C14.9405 15.5331 14.3395 16.306 14.1677 16.4777C14.0819 16.5635 13.996 16.6494 13.9101 16.7353C13.8243 16.7353 13.8243 16.7353 13.7384 16.8212C13.5667 16.8212 13.3949 16.8211 13.1373 16.7353C12.8797 16.6494 11.7634 16.2201 10.6472 15.1897C9.70267 14.331 9.10161 13.3007 8.92988 12.9572C8.84401 12.8713 8.84403 12.6996 8.84403 12.6137C8.84403 12.5279 8.84403 12.442 8.84403 12.3561C8.9299 12.1844 9.01576 12.0127 9.10162 12.0127C9.18749 11.9268 9.35925 11.7551 9.61685 11.4975C9.70271 11.4116 9.78857 11.3257 9.87443 10.9823C9.87443 10.8964 9.87443 10.8964 9.87443 10.8106C9.78857 10.6388 9.18748 9.09324 8.92988 8.49218C8.84401 8.23458 8.75819 8.23459 8.75819 8.23459C8.75819 8.23459 8.75818 8.23459 8.58645 8.23459C8.41472 8.23459 8.24297 8.23459 7.98538 8.23459C7.89951 8.23459 7.6419 8.23458 7.38431 8.49218C7.12671 8.74978 6.4398 9.43671 6.4398 10.8106C6.4398 12.1844 7.38432 13.4724 7.55605 13.73C7.72778 13.9017 9.61682 16.9929 12.5362 18.195C13.2232 18.4526 13.7384 18.7102 14.2536 18.8819C14.8546 18.796 15.5416 18.796 15.885 18.7102Z" fill="#0587D6"/>
</svg>
