<svg width="24" height="24" viewBox="0 0 24 24" fill="none" xmlns="http://www.w3.org/2000/svg">
<path d="M17 10H10" stroke="white" stroke-width="2" stroke-linecap="round" stroke-linejoin="round"/>
<path d="M17 14H10" stroke="white" stroke-width="2" stroke-linecap="round" stroke-linejoin="round"/>
<path d="M20 19V4.83333C20 3.26853 18.7315 2 17.1667 2V2C15.6019 2 14.3333 3.26853 14.3333 4.83333V6.53333M8.66667 19V4.83333C8.66667 3.26853 7.39814 2 5.83333 2V2C4.26853 2 3 3.26853 3 4.83333V6.53333" stroke="white" stroke-width="2" stroke-linecap="round" stroke-linejoin="round"/>
<path d="M2 19.25L2.89273 20.6107C3.61909 21.7178 5.25237 21.6869 5.93627 20.553L5.96825 20.5C6.65303 19.3647 8.29935 19.3647 8.98413 20.5V20.5C9.6689 21.6353 11.3152 21.6353 12 20.5V20.5C12.6848 19.3647 14.3311 19.3647 15.0159 20.5V20.5C15.7006 21.6353 17.347 21.6353 18.0317 20.5L18.0637 20.447C18.7476 19.3131 20.3809 19.2822 21.1073 20.3893L22 21.75" stroke="white" stroke-width="2" stroke-linecap="round" stroke-linejoin="round"/>
</svg>
