<svg width="23" height="23" viewBox="0 0 23 23" fill="none" xmlns="http://www.w3.org/2000/svg">
<path d="M3.50001 22C4.88071 22 6 20.8807 6 19.5C6 18.1193 4.88071 17 3.50001 17C2.11929 17 1 18.1193 1 19.5C1 20.8807 2.11929 22 3.50001 22Z" stroke="white" stroke-width="2" stroke-linecap="round" stroke-linejoin="round"/>
<path d="M21 20C21 17.6362 20.5343 15.2956 19.6298 13.1117C18.7253 10.9278 17.3994 8.94354 15.7279 7.27209C14.0565 5.60064 12.0722 4.27475 9.8883 3.37017C7.70445 2.46559 5.36381 2 3 2" stroke="white" stroke-width="2.5" stroke-linecap="round" stroke-linejoin="round"/>
<path d="M3 9C4.31322 9 5.61357 9.25866 6.82683 9.76121C8.04008 10.2638 9.14248 11.0003 10.0711 11.9289C10.9996 12.8575 11.7362 13.9599 12.2388 15.1732C12.7413 16.3865 13 17.6868 13 19" stroke="white" stroke-width="2.5" stroke-linecap="round" stroke-linejoin="round"/>
</svg>
